<svg id="Capa_1" enable-background="new 0 0 512 512" height="512" viewBox="0 0 512 512" width="512" xmlns="http://www.w3.org/2000/svg"><g><path d="m509.07 66.43c-1.86-1.86-4.44-2.93-7.07-2.93h-280c-2.63 0-5.21 1.07-7.07 2.93s-2.93 4.44-2.93 7.07v200c0 2.63 1.07 5.21 2.93 7.07s4.44 2.93 7.07 2.93h110v82.5h-113.006c-4.03-19.774-19.77-35.33-39.633-39.108-2.677-19.183-13.806-37.328-32.599-52.936-9.073-7.535-18.686-13.465-27.771-17.956 9.085-4.49 18.698-10.42 27.771-17.955 21.745-18.059 33.238-39.514 33.238-62.045v-102.5c0-5.523-4.477-10-10-10s-10 4.477-10 10v12.5h-70c-5.523 0-10 4.477-10 10s4.477 10 10 10h70v20h-30c-5.523 0-10 4.477-10 10s4.477 10 10 10h30v20h-70c-5.523 0-10 4.477-10 10s4.477 10 10 10h68.899c-1.588 7.184-4.809 13.877-9.109 20h-39.79c-5.523 0-10 4.477-10 10s4.477 10 10 10h19.888c-13.427 10.081-28.7 16.941-39.888 19.736-11.187-2.796-26.46-9.655-39.887-19.736h19.887c5.523 0 10-4.477 10-10s-4.477-10-10-10h-39.789c-4.3-6.123-7.521-12.816-9.109-20h28.898c5.523 0 10-4.477 10-10s-4.477-10-10-10h-30v-20h70c5.523 0 10-4.477 10-10s-4.477-10-10-10h-70v-20h30c5.523 0 10-4.477 10-10s-4.477-10-10-10h-30v-12.5c0-5.523-4.477-10-10-10s-10 4.477-10 10v102.5c0 22.531 11.494 43.986 33.238 62.045 9.074 7.536 18.688 13.466 27.773 17.956-9.088 4.491-18.701 10.421-27.77 17.955-21.746 18.055-33.241 39.51-33.241 62.044v102.5c0 5.523 4.477 10 10 10s10-4.477 10-10v-12.5h70c5.523 0 10-4.477 10-10s-4.477-10-10-10h-70v-20h30c5.523 0 10-4.477 10-10s-4.477-10-10-10h-30v-20h70c5.523 0 10-4.477 10-10s-4.477-10-10-10h-68.88c1.664-7.438 5.047-14.137 9.195-20h39.685c5.523 0 10-4.477 10-10s-4.477-10-10-10h-19.733c14.274-10.758 29.579-17.178 39.739-19.734 11.186 2.796 26.457 9.655 39.881 19.734h-19.887c-5.523 0-10 4.477-10 10s4.477 10 10 10h39.789c4.3 6.123 7.522 12.816 9.11 20h-28.899c-5.523 0-10 4.477-10 10s4.477 10 10 10h.027c-4.377 5.817-7.516 12.614-9.021 20h-31.006c-5.523 0-10 4.477-10 10s4.477 10 10 10h31.006c1.505 7.386 4.644 14.183 9.021 20h-.027c-5.523 0-10 4.477-10 10s4.477 10 10 10h30v12.5c0 5.523 4.477 10 10 10s10-4.477 10-10v-13.506c19.563-3.987 35.007-19.431 38.994-38.994h123.006c5.523 0 10-4.477 10-10v-92.5h25c5.51 0 10-4.49 10-10s-4.49-10-10-10h-145v-180h260v180h-25c-5.51 0-10 4.49-10 10s4.49 10 10 10h35c2.63 0 5.21-1.07 7.07-2.93s2.93-4.44 2.93-7.07v-200c0-2.63-1.07-5.21-2.93-7.07zm-339.07 339.57c-16.542 0-30-13.458-30-30s13.458-30 30-30 30 13.458 30 30-13.458 30-30 30z"/><circle cx="422" cy="273.5" r="10"/><path d="m472 133.5c0-16.542-13.458-30-30-30s-30 13.458-30 30 13.458 30 30 30 30-13.458 30-30zm-30 10c-5.514 0-10-4.486-10-10s4.486-10 10-10 10 4.486 10 10-4.486 10-10 10z"/><path d="m322 103.5c-16.542 0-30 13.458-30 30s13.458 30 30 30 30-13.458 30-30-13.458-30-30-30zm0 40c-5.514 0-10-4.486-10-10s4.486-10 10-10 10 4.486 10 10-4.486 10-10 10z"/><path d="m392 153.5v-40c0-5.523-4.477-10-10-10s-10 4.477-10 10v40c0 5.523 4.477 10 10 10s10-4.477 10-10z"/><path d="m272 153.5v-40c0-5.523-4.477-10-10-10s-10 4.477-10 10v40c0 5.523 4.477 10 10 10s10-4.477 10-10z"/><path d="m282 243.5c16.542 0 30-13.458 30-30s-13.458-30-30-30-30 13.458-30 30 13.458 30 30 30zm0-40c5.514 0 10 4.486 10 10s-4.486 10-10 10-10-4.486-10-10 4.486-10 10-10z"/><path d="m402 183.5c-16.542 0-30 13.458-30 30s13.458 30 30 30 30-13.458 30-30-13.458-30-30-30zm0 40c-5.514 0-10-4.486-10-10s4.486-10 10-10 10 4.486 10 10-4.486 10-10 10z"/><path d="m332 193.5v40c0 5.523 4.477 10 10 10s10-4.477 10-10v-40c0-5.523-4.477-10-10-10s-10 4.477-10 10z"/><path d="m472 233.5v-40c0-5.523-4.477-10-10-10s-10 4.477-10 10v40c0 5.523 4.477 10 10 10s10-4.477 10-10z"/></g></svg>