<svg id="Layer_1" enable-background="new 0 0 512 512" height="512" viewBox="0 0 512 512" width="512" xmlns="http://www.w3.org/2000/svg"><g><path d="m478.557 125.192h-6.193c-4.143 0-7.5 3.358-7.5 7.5s3.357 7.5 7.5 7.5h6.193c10.17 0 18.443 8.247 18.443 18.384v242.63h-482v-65.349c0-4.142-3.358-7.5-7.5-7.5s-7.5 3.358-7.5 7.5v97.987c0 15.241 12.421 27.641 27.688 27.641h175.861v35.515h-53.199c-4.142 0-7.5 3.358-7.5 7.5s3.358 7.5 7.5 7.5h211.399c4.143 0 7.5-3.358 7.5-7.5s-3.357-7.5-7.5-7.5h-53.199v-35.515h77.69c4.143 0 7.5-3.358 7.5-7.5s-3.357-7.5-7.5-7.5h-358.552c-6.996 0-12.688-5.671-12.688-12.641v-17.638h482v17.638c0 6.97-5.691 12.641-12.688 12.641h-63.3c-4.143 0-7.5 3.358-7.5 7.5s3.357 7.5 7.5 7.5h63.3c15.267 0 27.688-12.4 27.688-27.641v-275.268c0-18.408-15.003-33.384-33.443-33.384zm-260.008 336.293h75v35.515h-75z"/><path d="m7.5 308.247c4.142 0 7.5-3.358 7.5-7.5v-142.171c0-10.137 8.273-18.384 18.443-18.384h8.899c4.142 0 7.5-3.358 7.5-7.5s-3.358-7.5-7.5-7.5h-8.899c-18.441 0-33.443 14.976-33.443 33.384v142.171c0 4.142 3.358 7.5 7.5 7.5z"/><path d="m91.753 353.505h330.639c14.987 0 27.181-12.193 27.181-27.18v-107.971c0-4.142-3.357-7.5-7.5-7.5s-7.5 3.358-7.5 7.5v107.972c0 6.716-5.464 12.18-12.181 12.18h-330.639c-6.716 0-12.18-5.464-12.18-12.18v-251.646h355v109.208c0 4.142 3.357 7.5 7.5 7.5s7.5-3.358 7.5-7.5v-156.708c0-14.987-12.193-27.18-27.18-27.18h-330.64c-14.987 0-27.18 12.193-27.18 27.18v299.145c0 14.988 12.193 27.18 27.18 27.18zm-12.18-326.325c0-6.716 5.464-12.18 12.18-12.18h330.639c6.717 0 12.181 5.464 12.181 12.18v32.5h-355z"/><path d="m397.233 214.173h-220.464c-4.142 0-7.5 3.358-7.5 7.5s3.358 7.5 7.5 7.5h220.464c4.143 0 7.5-3.358 7.5-7.5s-3.357-7.5-7.5-7.5z"/><path d="m131.683 199.112c-12.407 0-22.5 10.093-22.5 22.5s10.093 22.5 22.5 22.5 22.5-10.093 22.5-22.5-10.093-22.5-22.5-22.5zm0 30c-4.136 0-7.5-3.364-7.5-7.5s3.364-7.5 7.5-7.5 7.5 3.364 7.5 7.5-3.364 7.5-7.5 7.5z"/><path d="m397.233 279.173h-220.464c-4.142 0-7.5 3.358-7.5 7.5s3.358 7.5 7.5 7.5h220.464c4.143 0 7.5-3.358 7.5-7.5s-3.357-7.5-7.5-7.5z"/><path d="m131.683 264.112c-12.407 0-22.5 10.093-22.5 22.5s10.093 22.5 22.5 22.5 22.5-10.093 22.5-22.5-10.093-22.5-22.5-22.5zm0 30c-4.136 0-7.5-3.364-7.5-7.5s3.364-7.5 7.5-7.5 7.5 3.364 7.5 7.5-3.364 7.5-7.5 7.5z"/><path d="m251.982 119.043c4.142 0 7.5-3.358 7.5-7.5s-3.358-7.5-7.5-7.5h-29.982c-4.142 0-7.5 3.358-7.5 7.5v59.983c0 4.142 3.358 7.5 7.5 7.5h29.982c4.142 0 7.5-3.358 7.5-7.5s-3.358-7.5-7.5-7.5h-22.482v-14.992h22.482c4.142 0 7.5-3.358 7.5-7.5s-3.358-7.5-7.5-7.5h-22.482v-14.992h22.482z"/><path d="m288.5 171.526v-32.236l21.004 36.015c1.367 2.345 3.859 3.723 6.479 3.722.649 0 1.307-.084 1.957-.26 3.271-.884 5.543-3.852 5.543-7.24v-59.983c0-4.142-3.357-7.5-7.5-7.5s-7.5 3.358-7.5 7.5v32.236l-21.004-36.015c-1.706-2.926-5.161-4.346-8.436-3.462-3.271.884-5.543 3.852-5.543 7.24v59.983c0 4.142 3.357 7.5 7.5 7.5s7.5-3.358 7.5-7.5z"/><path d="m345.982 104.043c-4.143 0-7.5 3.358-7.5 7.5v59.983c0 4.142 3.357 7.5 7.5 7.5h30.981c4.143 0 7.5-3.358 7.5-7.5v-59.983c0-4.142-3.357-7.5-7.5-7.5s-7.5 3.358-7.5 7.5v52.483h-15.981v-52.483c0-4.142-3.357-7.5-7.5-7.5z"/><circle cx="102.482" cy="37.585" r="7.504"/><circle cx="132.478" cy="37.581" r="7.504"/><circle cx="162.478" cy="37.581" r="7.504"/><path d="m165.014 179.028c.677 0 1.365-.092 2.048-.286 2.635-.746 4.54-2.812 5.202-5.278l8.773-30.974 6.633 30.623c.876 4.048 4.866 6.62 8.918 5.742 4.048-.877 6.619-4.87 5.742-8.918l-12.992-59.983c-.729-3.364-3.654-5.8-7.095-5.908-3.476-.121-6.514 2.14-7.451 5.452l-9.774 34.508-9.774-34.508c-.938-3.312-4.001-5.584-7.451-5.452-3.44.108-6.366 2.544-7.095 5.908l-12.992 59.983c-.877 4.048 1.694 8.041 5.742 8.918 4.051.875 8.041-1.696 8.918-5.742l6.633-30.624 8.804 31.08c.935 3.304 3.941 5.459 7.211 5.459z"/></g></svg>