<svg height="512pt" viewBox="0 0 512 512" width="512pt" xmlns="http://www.w3.org/2000/svg"><path d="m70 44c-2.628906 0-5.210938 1.070312-7.070312 2.929688-1.859376 1.859374-2.929688 4.441406-2.929688 7.070312s1.070312 5.210938 2.929688 7.070312c1.859374 1.859376 4.441406 2.929688 7.070312 2.929688s5.210938-1.070312 7.070312-2.929688c1.859376-1.859374 2.929688-4.441406 2.929688-7.070312s-1.070312-5.210938-2.929688-7.070312c-1.859374-1.859376-4.441406-2.929688-7.070312-2.929688zm0 0"/><path d="m123.667969 44c-2.636719 0-5.207031 1.070312-7.070313 2.929688-1.867187 1.859374-2.929687 4.441406-2.929687 7.070312s1.0625 5.210938 2.929687 7.070312c1.863282 1.859376 4.433594 2.929688 7.070313 2.929688 2.632812 0 5.210937-1.070312 7.070312-2.929688 1.859375-1.859374 2.929688-4.441406 2.929688-7.070312s-1.070313-5.210938-2.929688-7.070312c-1.867187-1.859376-4.4375-2.929688-7.070312-2.929688zm0 0"/><path d="m448 44h-235.5c-5.523438 0-10 4.476562-10 10s4.476562 10 10 10h235.5c5.519531 0 10-4.476562 10-10s-4.480469-10-10-10zm0 0"/><path d="m482 0h-452c-16.542969 0-30 13.457031-30 30v372c0 16.539062 13.457031 30 30 30h84.03125c5.519531 0 10-4.480469 10-10 0-5.523438-4.480469-10-10-10h-84.03125c-5.515625 0-10-4.488281-10-10v-294h472v294c0 5.511719-4.488281 10-10 10h-21.832031l-8.644531-14.972656 17.066406-9.777344c3.105468-1.78125 5.023437-5.082031 5.027344-8.660156.007812-3.578125-1.898438-6.886719-5-8.675782l-89.914063-51.914062h54.449219c5.523437 0 10-4.480469 10-10 0-5.523438-4.476563-10-10-10h-91.765625c-.003907 0-.007813 0-.011719 0h-51.375c-5.523438 0-10 4.476562-10 10 0 5.519531 4.476562 10 10 10h41.382812v94h-137.351562c-5.523438 0-10 4.476562-10 10 0 5.519531 4.476562 10 10 10h137.351562v17.144531c0 3.578125 1.910157 6.882813 5.011719 8.667969 3.101563 1.785156 6.917969 1.777344 10.011719-.019531l20.046875-11.648438 35.132813 60.851563c1.851562 3.210937 5.214843 5.003906 8.671874 5.003906 1.695313 0 3.414063-.433594 4.988282-1.34375l67.753906-39.113281c2.296875-1.328125 3.972656-3.511719 4.65625-6.074219.6875-2.5625.328125-5.289062-1-7.585938l-14.941406-25.882812h10.285156c16.539062 0 29.996094-13.460938 29.996094-30v-372c0-16.542969-13.457032-30-29.996094-30zm-68.09375 488.339844-35.148438-60.882813c-1.328124-2.300781-3.519531-3.980469-6.085937-4.664062-.847656-.226563-1.710937-.335938-2.574219-.335938-1.75 0-3.484375.460938-5.023437 1.355469l-13.691407 7.957031v-106.449219l92.179688 53.21875-10.683594 6.125c-2.308594 1.320313-3.992187 3.507813-4.6875 6.074219-.6875 2.5625-.332031 5.300781.996094 7.601563l35.152344 60.882812zm-393.90625-400.339844v-58c0-5.515625 4.484375-10 10-10h452c5.511719 0 10 4.484375 10 10v58zm0 0"/><path d="m225.578125 338.136719c.410156-.324219.789063-.683594 1.140625-1.0625 20.496094-19.339844 33.3125-46.738281 33.3125-77.074219 0-58.449219-47.554688-106-106-106-58.449219 0-106 47.550781-106 106 0 30.335938 12.816406 57.734375 33.308594 77.074219.355468.378906.730468.738281 1.144531 1.0625 18.867187 17.292969 43.996094 27.863281 71.546875 27.863281s52.675781-10.570312 71.546875-27.863281zm-124.660156-10.574219c10.398437-19.53125 30.558593-31.808594 53.113281-31.808594 22.550781 0 42.714844 12.277344 53.113281 31.808594-14.636719 11.53125-33.078125 18.4375-53.113281 18.4375s-38.480469-6.90625-53.113281-18.4375zm32.671875-72.246094v-7.609375c0-11.269531 9.171875-20.4375 20.441406-20.4375s20.4375 9.167969 20.4375 20.4375v7.609375c0 11.269532-9.167969 20.4375-20.4375 20.4375s-20.441406-9.167968-20.441406-20.4375zm20.441406-81.316406c47.421875 0 86 38.578125 86 86 0 19.941406-6.84375 38.308594-18.277344 52.910156-8.945312-14.140625-21.949218-24.945312-37.152344-31.167968 6.140626-7.09375 9.867188-16.332032 9.867188-26.425782v-7.609375c0-22.296875-18.140625-40.4375-40.4375-40.4375s-40.4375 18.140625-40.4375 40.4375v7.609375c0 10.09375 3.726562 19.332032 9.867188 26.425782-15.207032 6.222656-28.210938 17.027343-37.148438 31.167968-11.4375-14.601562-18.28125-32.96875-18.28125-52.910156 0-47.421875 38.578125-86 86-86zm0 0"/><path d="m290 222h164c5.519531 0 10-4.476562 10-10v-48c0-5.523438-4.480469-10-10-10h-164c-5.523438 0-10 4.476562-10 10v48c0 5.523438 4.476562 10 10 10zm10-48h144v28h-144zm0 0"/><path d="m290 270h164c5.519531 0 10-4.480469 10-10 0-5.523438-4.480469-10-10-10h-164c-5.523438 0-10 4.476562-10 10 0 5.519531 4.476562 10 10 10zm0 0"/><path d="m154.03125 412c-2.632812 0-5.210938 1.066406-7.070312 2.929688-1.863282 1.859374-2.929688 4.4375-2.929688 7.070312 0 2.628906 1.066406 5.207031 2.929688 7.066406 1.859374 1.859375 4.4375 2.933594 7.070312 2.933594 2.628906 0 5.207031-1.070312 7.066406-2.933594 1.859375-1.859375 2.933594-4.4375 2.933594-7.066406 0-2.632812-1.070312-5.210938-2.933594-7.070312-1.859375-1.863282-4.4375-2.929688-7.066406-2.929688zm0 0"/></svg>