<svg width="912" height="1173" viewBox="0 0 912 1173" fill="none" xmlns="http://www.w3.org/2000/svg">
<mask id="path-1-outside-1_1896_2065" maskUnits="userSpaceOnUse" x="279" y="192" width="570" height="858" fill="black">
<rect fill="white" x="279" y="192" width="570" height="858"/>
<path d="M283 228C283 210.327 297.327 196 315 196H813C830.673 196 845 210.327 845 228V1002C845 1019.67 830.673 1034 813 1034H315C297.327 1034 283 1019.67 283 1002V228Z"/>
</mask>
<path d="M283 228C283 210.327 297.327 196 315 196H813C830.673 196 845 210.327 845 228V1002C845 1019.67 830.673 1034 813 1034H315C297.327 1034 283 1019.67 283 1002V228Z" fill="white"/>
<path d="M279 228C279 208.118 295.118 192 315 192H813C832.882 192 849 208.118 849 228H841C841 212.536 828.464 200 813 200H315C299.536 200 287 212.536 287 228H279ZM849 1014C849 1033.88 832.882 1050 813 1050H315C295.118 1050 279 1033.88 279 1014L287 1002C287 1010.84 299.536 1018 315 1018H813C828.464 1018 841 1010.84 841 1002L849 1014ZM315 1050C295.118 1050 279 1033.88 279 1014V228C279 208.118 295.118 192 315 192V200C299.536 200 287 212.536 287 228V1002C287 1010.84 299.536 1018 315 1018V1050ZM813 192C832.882 192 849 208.118 849 228V1014C849 1033.88 832.882 1050 813 1050V1018C828.464 1018 841 1010.84 841 1002V228C841 212.536 828.464 200 813 200V192Z" fill="#722ED1" mask="url(#path-1-outside-1_1896_2065)"/>
<path d="M754 276V276.5H759C762.038 276.5 764.5 278.962 764.5 282V287.046H765V292.091H764.5V302.182H765V307.228H764.5V317.318H765V322.364H764.5V332.455H765V337.5H764.5V347.591H765V352.637H764.5V362.728H765V367.773H764.5V377.864H765V382.909H764.5V393H765V398.046H764.5V408.137H765V413.182H764.5V423.272H765V428.318H764.5V438.409H765V443.455H764.5V453.546H765V458.591H764.5V468.682H765V473.728H764.5V483.818H765V488.863H764.5V498.955H765V504H764.5V514.091H765V519.137H764.5V529.228H765V534.272H764.5V544.363H765V549.409H764.5V559.5H765V564.546H764.5V574.637H765V579.682H764.5V589.772H765V594.818H764.5V604.909H765V609.954H764.5V620.046H765V625.091H764.5V635.182H765V640.228H764.5V650.318H765V655.363H764.5V665.454H765V670.5H764.5V680.591H765V685.637H764.5V695.728H765V700.772H764.5V710.863H765V715.909H764.5V726H765V731.045H764.5V741.137H765V746.182H764.5V756.272H765V761.318H764.5V771.409H765V776.454H764.5V786.546H765V791.591H764.5V801.682H765V806.728H764.5V816.818H765V821.863H764.5V831.954H765V837H764.5V847.091H765V852.137H764.5V862.228H765V867.272H764.5V877.363H765V882.409H764.5V892.5H765V897.546H764.5V907.637H765V912.682H764.5V922.772H765V927.818H764.5V937.909H765V942.954H764.5V948C764.5 951.038 762.038 953.5 759 953.5H754V954H749V953.5H739V954H734V953.5H724V954H719V953.5H709V954H704V953.5H694V954H689V953.5H679V954H674V953.5H664V954H659V953.5H649V954H644V953.5H634V954H629V953.5H619V954H614V953.5H604V954H599V953.5H589V954H584V953.5H574V954H569V953.5H559V954H554V953.5H544V954H539V953.5H529V954H524V953.5H514V954H509V953.5H499V954H494V953.5H484V954H479V953.5H469V954H464V953.5H454V954H449V953.5H439V954H434V953.5H424V954H419V953.5H409V954H404V953.5H394V954H389V953.5H379V954H374V953.5H369C365.962 953.5 363.5 951.038 363.5 948V942.954H363V937.909H363.5V927.818H363V922.772H363.5V912.682H363V907.636H363.5V897.545H363V892.5H363.5V882.409H363V877.363H363.5V867.272H363V862.227H363.5V852.136H363V847.091H363.5V837H363V831.954H363.5V821.863H363V816.818H363.5V806.728H363V801.682H363.5V791.591H363V786.545H363.5V776.454H363V771.409H363.5V761.318H363V756.272H363.5V746.182H363V741.137H363.5V731.045H363V726H363.5V715.909H363V710.863H363.5V700.772H363V695.728H363.5V685.637H363V680.591H363.5V670.5H363V665.454H363.5V655.363H363V650.318H363.5V640.228H363V635.182H363.5V625.091H363V620.046H363.5V609.954H363V604.909H363.5V594.818H363V589.772H363.5V579.682H363V574.637H363.5V564.546H363V559.5H363.5V549.409H363V544.363H363.5V534.272H363V529.228H363.5V519.137H363V514.091H363.5V504H363V498.955H363.5V488.863H363V483.818H363.5V473.728H363V468.682H363.5V458.591H363V453.546H363.5V443.454H363V438.409H363.5V428.318H363V423.272H363.5V413.182H363V408.137H363.5V398.046H363V393H363.5V382.909H363V377.863H363.5V367.772H363V362.728H363.5V352.637H363V347.591H363.5V337.5H363V332.454H363.5V322.363H363V317.318H363.5V307.228H363V302.182H363.5V292.091H363V287.046H363.5V282C363.5 278.962 365.962 276.5 369 276.5H374V276H379V276.5H389V276H394V276.5H404V276H409V276.5H419V276H424V276.5H434V276H439V276.5H449V276H454V276.5H464V276H469V276.5H479V276H484V276.5H494V276H499V276.5H509V276H514V276.5H524V276H529V276.5H539V276H544V276.5H554V276H559V276.5H569V276H574V276.5H584V276H589V276.5H599V276H604V276.5H614V276H619V276.5H629V276H634V276.5H644V276H649V276.5H659V276H664V276.5H674V276H679V276.5H689V276H694V276.5H704V276H709V276.5H719V276H724V276.5H734V276H739V276.5H749V276H754Z" fill="white"/>
<path d="M754 276V276.5H759C762.038 276.5 764.5 278.962 764.5 282V287.046H765V292.091H764.5V302.182H765V307.228H764.5V317.318H765V322.364H764.5V332.455H765V337.5H764.5V347.591H765V352.637H764.5V362.728H765V367.773H764.5V377.864H765V382.909H764.5V393H765V398.046H764.5V408.137H765V413.182H764.5V423.272H765V428.318H764.5V438.409H765V443.455H764.5V453.546H765V458.591H764.5V468.682H765V473.728H764.5V483.818H765V488.863H764.5V498.955H765V504H764.5V514.091H765V519.137H764.5V529.228H765V534.272H764.5V544.363H765V549.409H764.5V559.5H765V564.546H764.5V574.637H765V579.682H764.5V589.772H765V594.818H764.5V604.909H765V609.954H764.5V620.046H765V625.091H764.5V635.182H765V640.228H764.5V650.318H765V655.363H764.5V665.454H765V670.5H764.5V680.591H765V685.637H764.5V695.728H765V700.772H764.5V710.863H765V715.909H764.5V726H765V731.045H764.5V741.137H765V746.182H764.5V756.272H765V761.318H764.5V771.409H765V776.454H764.5V786.546H765V791.591H764.5V801.682H765V806.728H764.5V816.818H765V821.863H764.5V831.954H765V837H764.5V847.091H765V852.137H764.5V862.228H765V867.272H764.5V877.363H765V882.409H764.5V892.5H765V897.546H764.5V907.637H765V912.682H764.5V922.772H765V927.818H764.5V937.909H765V942.954H764.5V948C764.5 951.038 762.038 953.5 759 953.5H754V954H749V953.5H739V954H734V953.5H724V954H719V953.5H709V954H704V953.5H694V954H689V953.5H679V954H674V953.5H664V954H659V953.5H649V954H644V953.5H634V954H629V953.5H619V954H614V953.5H604V954H599V953.5H589V954H584V953.5H574V954H569V953.5H559V954H554V953.5H544V954H539V953.5H529V954H524V953.5H514V954H509V953.5H499V954H494V953.5H484V954H479V953.5H469V954H464V953.5H454V954H449V953.5H439V954H434V953.5H424V954H419V953.5H409V954H404V953.5H394V954H389V953.5H379V954H374V953.5H369C365.962 953.5 363.5 951.038 363.5 948V942.954H363V937.909H363.5V927.818H363V922.772H363.5V912.682H363V907.636H363.5V897.545H363V892.5H363.5V882.409H363V877.363H363.5V867.272H363V862.227H363.5V852.136H363V847.091H363.5V837H363V831.954H363.5V821.863H363V816.818H363.5V806.728H363V801.682H363.5V791.591H363V786.545H363.5V776.454H363V771.409H363.5V761.318H363V756.272H363.5V746.182H363V741.137H363.5V731.045H363V726H363.5V715.909H363V710.863H363.5V700.772H363V695.728H363.5V685.637H363V680.591H363.5V670.5H363V665.454H363.5V655.363H363V650.318H363.5V640.228H363V635.182H363.5V625.091H363V620.046H363.5V609.954H363V604.909H363.5V594.818H363V589.772H363.5V579.682H363V574.637H363.5V564.546H363V559.5H363.5V549.409H363V544.363H363.5V534.272H363V529.228H363.5V519.137H363V514.091H363.5V504H363V498.955H363.5V488.863H363V483.818H363.5V473.728H363V468.682H363.5V458.591H363V453.546H363.5V443.454H363V438.409H363.5V428.318H363V423.272H363.5V413.182H363V408.137H363.5V398.046H363V393H363.5V382.909H363V377.863H363.5V367.772H363V362.728H363.5V352.637H363V347.591H363.5V337.5H363V332.454H363.5V322.363H363V317.318H363.5V307.228H363V302.182H363.5V292.091H363V287.046H363.5V282C363.5 278.962 365.962 276.5 369 276.5H374V276H379V276.5H389V276H394V276.5H404V276H409V276.5H419V276H424V276.5H434V276H439V276.5H449V276H454V276.5H464V276H469V276.5H479V276H484V276.5H494V276H499V276.5H509V276H514V276.5H524V276H529V276.5H539V276H544V276.5H554V276H559V276.5H569V276H574V276.5H584V276H589V276.5H599V276H604V276.5H614V276H619V276.5H629V276H634V276.5H644V276H649V276.5H659V276H664V276.5H674V276H679V276.5H689V276H694V276.5H704V276H709V276.5H719V276H724V276.5H734V276H739V276.5H749V276H754Z" stroke="#722ED1" stroke-dasharray="10 5"/>
<rect x="677.5" y="313.5" width="51" height="51" rx="7.5" fill="white"/>
<rect x="677.5" y="313.5" width="51" height="51" rx="7.5" stroke="#B9B9B9"/>
<path d="M702.983 341.28C702.46 341.28 702.071 341.168 701.815 340.944C701.569 340.72 701.447 340.368 701.447 339.888C701.447 339.397 701.569 339.04 701.815 338.816C702.071 338.592 702.46 338.48 702.983 338.48C703.516 338.48 703.911 338.592 704.167 338.816C704.423 339.04 704.551 339.397 704.551 339.888C704.551 340.368 704.423 340.72 704.167 340.944C703.911 341.168 703.516 341.28 702.983 341.28Z" fill="#8A8A8A"/>
<rect x="581.5" y="315.5" width="47" height="47" rx="7.5" fill="white"/>
<rect x="581.5" y="315.5" width="47" height="47" rx="7.5" stroke="#B9B9B9"/>
<path d="M604.983 341.28C604.46 341.28 604.071 341.168 603.815 340.944C603.569 340.72 603.447 340.368 603.447 339.888C603.447 339.397 603.569 339.04 603.815 338.816C604.071 338.592 604.46 338.48 604.983 338.48C605.516 338.48 605.911 338.592 606.167 338.816C606.423 339.04 606.551 339.397 606.551 339.888C606.551 340.368 606.423 340.72 606.167 340.944C605.911 341.168 605.516 341.28 604.983 341.28Z" fill="#8A8A8A"/>
<rect x="485.5" y="319.5" width="39" height="39" rx="7.5" fill="white"/>
<rect x="485.5" y="319.5" width="39" height="39" rx="7.5" stroke="#B9B9B9"/>
<path d="M504.985 341.62C504.527 341.62 504.187 341.522 503.963 341.326C503.748 341.13 503.641 340.822 503.641 340.402C503.641 339.973 503.748 339.66 503.963 339.464C504.187 339.268 504.527 339.17 504.985 339.17C505.451 339.17 505.797 339.268 506.021 339.464C506.245 339.66 506.357 339.973 506.357 340.402C506.357 340.822 506.245 341.13 506.021 341.326C505.797 341.522 505.451 341.62 504.985 341.62Z" fill="#8A8A8A"/>
<rect x="397.5" y="321.5" width="35" height="35" rx="7.5" fill="white"/>
<rect x="397.5" y="321.5" width="35" height="35" rx="7.5" stroke="#B9B9B9"/>
<path d="M414.985 341.62C414.527 341.62 414.187 341.522 413.963 341.326C413.748 341.13 413.641 340.822 413.641 340.402C413.641 339.973 413.748 339.66 413.963 339.464C414.187 339.268 414.527 339.17 414.985 339.17C415.451 339.17 415.797 339.268 416.021 339.464C416.245 339.66 416.357 339.973 416.357 340.402C416.357 340.822 416.245 341.13 416.021 341.326C415.797 341.522 415.451 341.62 414.985 341.62Z" fill="#8A8A8A"/>
<rect x="677.5" y="451.5" width="51" height="51" rx="7.5" fill="white"/>
<rect x="677.5" y="451.5" width="51" height="51" rx="7.5" stroke="#2F54EB"/>
<path d="M702.983 479.28C702.46 479.28 702.071 479.168 701.815 478.944C701.569 478.72 701.447 478.368 701.447 477.888C701.447 477.397 701.569 477.04 701.815 476.816C702.071 476.592 702.46 476.48 702.983 476.48C703.516 476.48 703.911 476.592 704.167 476.816C704.423 477.04 704.551 477.397 704.551 477.888C704.551 478.368 704.423 478.72 704.167 478.944C703.911 479.168 703.516 479.28 702.983 479.28Z" fill="#141414"/>
<rect x="581.5" y="453.5" width="47" height="47" rx="7.5" fill="white"/>
<rect x="581.5" y="453.5" width="47" height="47" rx="7.5" stroke="#2F54EB"/>
<path d="M604.983 479.28C604.46 479.28 604.071 479.168 603.815 478.944C603.569 478.72 603.447 478.368 603.447 477.888C603.447 477.397 603.569 477.04 603.815 476.816C604.071 476.592 604.46 476.48 604.983 476.48C605.516 476.48 605.911 476.592 606.167 476.816C606.423 477.04 606.551 477.397 606.551 477.888C606.551 478.368 606.423 478.72 606.167 478.944C605.911 479.168 605.516 479.28 604.983 479.28Z" fill="#141414"/>
<rect x="485.5" y="457.5" width="39" height="39" rx="7.5" fill="white"/>
<rect x="485.5" y="457.5" width="39" height="39" rx="7.5" stroke="#2F54EB"/>
<path d="M504.985 479.62C504.527 479.62 504.187 479.522 503.963 479.326C503.748 479.13 503.641 478.822 503.641 478.402C503.641 477.973 503.748 477.66 503.963 477.464C504.187 477.268 504.527 477.17 504.985 477.17C505.451 477.17 505.797 477.268 506.021 477.464C506.245 477.66 506.357 477.973 506.357 478.402C506.357 478.822 506.245 479.13 506.021 479.326C505.797 479.522 505.451 479.62 504.985 479.62Z" fill="#141414"/>
<rect x="397.5" y="459.5" width="35" height="35" rx="7.5" fill="white"/>
<rect x="397.5" y="459.5" width="35" height="35" rx="7.5" stroke="#2F54EB"/>
<path d="M414.985 479.62C414.527 479.62 414.187 479.522 413.963 479.326C413.748 479.13 413.641 478.822 413.641 478.402C413.641 477.973 413.748 477.66 413.963 477.464C414.187 477.268 414.527 477.17 414.985 477.17C415.451 477.17 415.797 477.268 416.021 477.464C416.245 477.66 416.357 477.973 416.357 478.402C416.357 478.822 416.245 479.13 416.021 479.326C415.797 479.522 415.451 479.62 414.985 479.62Z" fill="#141414"/>
<rect x="677.5" y="589.5" width="51" height="51" rx="7.5" fill="white"/>
<rect x="677.5" y="589.5" width="51" height="51" rx="7.5" stroke="#141414"/>
<path d="M702.983 617.28C702.46 617.28 702.071 617.168 701.815 616.944C701.569 616.72 701.447 616.368 701.447 615.888C701.447 615.397 701.569 615.04 701.815 614.816C702.071 614.592 702.46 614.48 702.983 614.48C703.516 614.48 703.911 614.592 704.167 614.816C704.423 615.04 704.551 615.397 704.551 615.888C704.551 616.368 704.423 616.72 704.167 616.944C703.911 617.168 703.516 617.28 702.983 617.28Z" fill="#141414"/>
<rect x="581.5" y="591.5" width="47" height="47" rx="7.5" fill="white"/>
<rect x="581.5" y="591.5" width="47" height="47" rx="7.5" stroke="#141414"/>
<path d="M604.983 617.28C604.46 617.28 604.071 617.168 603.815 616.944C603.569 616.72 603.447 616.368 603.447 615.888C603.447 615.397 603.569 615.04 603.815 614.816C604.071 614.592 604.46 614.48 604.983 614.48C605.516 614.48 605.911 614.592 606.167 614.816C606.423 615.04 606.551 615.397 606.551 615.888C606.551 616.368 606.423 616.72 606.167 616.944C605.911 617.168 605.516 617.28 604.983 617.28Z" fill="#141414"/>
<rect x="485.5" y="595.5" width="39" height="39" rx="7.5" fill="white"/>
<rect x="485.5" y="595.5" width="39" height="39" rx="7.5" stroke="#141414"/>
<path d="M504.985 617.62C504.527 617.62 504.187 617.522 503.963 617.326C503.748 617.13 503.641 616.822 503.641 616.402C503.641 615.973 503.748 615.66 503.963 615.464C504.187 615.268 504.527 615.17 504.985 615.17C505.451 615.17 505.797 615.268 506.021 615.464C506.245 615.66 506.357 615.973 506.357 616.402C506.357 616.822 506.245 617.13 506.021 617.326C505.797 617.522 505.451 617.62 504.985 617.62Z" fill="#141414"/>
<rect x="397.5" y="597.5" width="35" height="35" rx="7.5" fill="white"/>
<rect x="397.5" y="597.5" width="35" height="35" rx="7.5" stroke="#141414"/>
<path d="M414.985 617.62C414.527 617.62 414.187 617.522 413.963 617.326C413.748 617.13 413.641 616.822 413.641 616.402C413.641 615.973 413.748 615.66 413.963 615.464C414.187 615.268 414.527 615.17 414.985 615.17C415.451 615.17 415.797 615.268 416.021 615.464C416.245 615.66 416.357 615.973 416.357 616.402C416.357 616.822 416.245 617.13 416.021 617.326C415.797 617.522 415.451 617.62 414.985 617.62Z" fill="#141414"/>
<rect x="677.5" y="865.5" width="51" height="51" rx="7.5" fill="#F6F6F6"/>
<rect x="677.5" y="865.5" width="51" height="51" rx="7.5" stroke="#B9B9B9"/>
<path d="M702.983 893.28C702.46 893.28 702.071 893.168 701.815 892.944C701.569 892.72 701.447 892.368 701.447 891.888C701.447 891.397 701.569 891.04 701.815 890.816C702.071 890.592 702.46 890.48 702.983 890.48C703.516 890.48 703.911 890.592 704.167 890.816C704.423 891.04 704.551 891.397 704.551 891.888C704.551 892.368 704.423 892.72 704.167 892.944C703.911 893.168 703.516 893.28 702.983 893.28Z" fill="#B9B9B9"/>
<rect x="581.5" y="867.5" width="47" height="47" rx="7.5" fill="#F6F6F6"/>
<rect x="581.5" y="867.5" width="47" height="47" rx="7.5" stroke="#B9B9B9"/>
<path d="M604.983 893.28C604.46 893.28 604.071 893.168 603.815 892.944C603.569 892.72 603.447 892.368 603.447 891.888C603.447 891.397 603.569 891.04 603.815 890.816C604.071 890.592 604.46 890.48 604.983 890.48C605.516 890.48 605.911 890.592 606.167 890.816C606.423 891.04 606.551 891.397 606.551 891.888C606.551 892.368 606.423 892.72 606.167 892.944C605.911 893.168 605.516 893.28 604.983 893.28Z" fill="#B9B9B9"/>
<rect x="485.5" y="871.5" width="39" height="39" rx="7.5" fill="#F6F6F6"/>
<rect x="485.5" y="871.5" width="39" height="39" rx="7.5" stroke="#B9B9B9"/>
<path d="M504.985 893.62C504.527 893.62 504.187 893.522 503.963 893.326C503.748 893.13 503.641 892.822 503.641 892.402C503.641 891.973 503.748 891.66 503.963 891.464C504.187 891.268 504.527 891.17 504.985 891.17C505.451 891.17 505.797 891.268 506.021 891.464C506.245 891.66 506.357 891.973 506.357 892.402C506.357 892.822 506.245 893.13 506.021 893.326C505.797 893.522 505.451 893.62 504.985 893.62Z" fill="#B9B9B9"/>
<rect x="397.5" y="873.5" width="35" height="35" rx="7.5" fill="#F6F6F6"/>
<rect x="397.5" y="873.5" width="35" height="35" rx="7.5" stroke="#B9B9B9"/>
<path d="M414.985 893.62C414.527 893.62 414.187 893.522 413.963 893.326C413.748 893.13 413.641 892.822 413.641 892.402C413.641 891.973 413.748 891.66 413.963 891.464C414.187 891.268 414.527 891.17 414.985 891.17C415.451 891.17 415.797 891.268 416.021 891.464C416.245 891.66 416.357 891.973 416.357 892.402C416.357 892.822 416.245 893.13 416.021 893.326C415.797 893.522 415.451 893.62 414.985 893.62Z" fill="#B9B9B9"/>
<rect x="677.5" y="727.5" width="51" height="51" rx="7.5" fill="#FFF1F0"/>
<rect x="677.5" y="727.5" width="51" height="51" rx="7.5" stroke="#FF4D4F"/>
<path d="M702.983 755.28C702.46 755.28 702.071 755.168 701.815 754.944C701.569 754.72 701.447 754.368 701.447 753.888C701.447 753.397 701.569 753.04 701.815 752.816C702.071 752.592 702.46 752.48 702.983 752.48C703.516 752.48 703.911 752.592 704.167 752.816C704.423 753.04 704.551 753.397 704.551 753.888C704.551 754.368 704.423 754.72 704.167 754.944C703.911 755.168 703.516 755.28 702.983 755.28Z" fill="#141414"/>
<rect x="581.5" y="729.5" width="47" height="47" rx="7.5" fill="#FFF1F0"/>
<rect x="581.5" y="729.5" width="47" height="47" rx="7.5" stroke="#FF4D4F"/>
<path d="M604.983 755.28C604.46 755.28 604.071 755.168 603.815 754.944C603.569 754.72 603.447 754.368 603.447 753.888C603.447 753.397 603.569 753.04 603.815 752.816C604.071 752.592 604.46 752.48 604.983 752.48C605.516 752.48 605.911 752.592 606.167 752.816C606.423 753.04 606.551 753.397 606.551 753.888C606.551 754.368 606.423 754.72 606.167 754.944C605.911 755.168 605.516 755.28 604.983 755.28Z" fill="#141414"/>
<rect x="485.5" y="733.5" width="39" height="39" rx="7.5" fill="#FFF1F0"/>
<rect x="485.5" y="733.5" width="39" height="39" rx="7.5" stroke="#FF4D4F"/>
<path d="M504.985 755.62C504.527 755.62 504.187 755.522 503.963 755.326C503.748 755.13 503.641 754.822 503.641 754.402C503.641 753.973 503.748 753.66 503.963 753.464C504.187 753.268 504.527 753.17 504.985 753.17C505.451 753.17 505.797 753.268 506.021 753.464C506.245 753.66 506.357 753.973 506.357 754.402C506.357 754.822 506.245 755.13 506.021 755.326C505.797 755.522 505.451 755.62 504.985 755.62Z" fill="#141414"/>
<rect x="397.5" y="735.5" width="35" height="35" rx="7.5" fill="#FFF1F0"/>
<rect x="397.5" y="735.5" width="35" height="35" rx="7.5" stroke="#FF4D4F"/>
<path d="M414.985 755.62C414.527 755.62 414.187 755.522 413.963 755.326C413.748 755.13 413.641 754.822 413.641 754.402C413.641 753.973 413.748 753.66 413.963 753.464C414.187 753.268 414.527 753.17 414.985 753.17C415.451 753.17 415.797 753.268 416.021 753.464C416.245 753.66 416.357 753.973 416.357 754.402C416.357 754.822 416.245 755.13 416.021 755.326C415.797 755.522 415.451 755.62 414.985 755.62Z" fill="#141414"/>
<g opacity="0.5">
<path d="M408.814 86.182C408.31 86.182 407.862 86.126 407.47 86.014C407.078 85.9113 406.751 85.762 406.49 85.566C406.228 85.3607 406.028 85.118 405.888 84.838C405.748 84.558 405.673 84.25 405.664 83.914L406.742 83.634C406.723 83.942 406.798 84.2127 406.966 84.446C407.143 84.67 407.39 84.8427 407.708 84.964C408.034 85.0853 408.426 85.146 408.884 85.146C409.434 85.146 409.859 85.0527 410.158 84.866C410.466 84.6793 410.62 84.4227 410.62 84.096C410.62 83.8347 410.536 83.634 410.368 83.494C410.2 83.3447 409.966 83.228 409.668 83.144C409.378 83.0507 409.033 82.9667 408.632 82.892C408.296 82.8173 407.96 82.7333 407.624 82.64C407.288 82.5467 406.98 82.4253 406.7 82.276C406.429 82.1173 406.21 81.912 406.042 81.66C405.874 81.408 405.79 81.0953 405.79 80.722C405.79 80.2833 405.906 79.9053 406.14 79.588C406.373 79.2707 406.704 79.0233 407.134 78.846C407.563 78.6687 408.076 78.58 408.674 78.58C409.271 78.58 409.78 78.6733 410.2 78.86C410.62 79.0373 410.951 79.2893 411.194 79.616C411.436 79.9427 411.572 80.3253 411.6 80.764L410.494 81.044C410.484 80.736 410.4 80.4747 410.242 80.26C410.092 80.0453 409.878 79.8867 409.598 79.784C409.318 79.672 408.991 79.616 408.618 79.616C408.123 79.616 407.731 79.7093 407.442 79.896C407.152 80.0827 407.008 80.3393 407.008 80.666C407.008 80.9087 407.092 81.1047 407.26 81.254C407.437 81.4033 407.675 81.52 407.974 81.604C408.272 81.688 408.604 81.772 408.968 81.856C409.341 81.9307 409.696 82.0147 410.032 82.108C410.377 82.2013 410.685 82.3227 410.956 82.472C411.226 82.6213 411.441 82.822 411.6 83.074C411.758 83.3167 411.838 83.6293 411.838 84.012C411.838 84.488 411.712 84.8893 411.46 85.216C411.208 85.5333 410.853 85.776 410.396 85.944C409.948 86.1027 409.42 86.182 408.814 86.182ZM413.563 86V81.52V78.762H414.697L414.571 81.058H414.809C414.93 80.5073 415.094 80.05 415.299 79.686C415.504 79.3127 415.756 79.0373 416.055 78.86C416.363 78.6733 416.713 78.58 417.105 78.58C417.572 78.58 417.954 78.6967 418.253 78.93C418.552 79.154 418.771 79.448 418.911 79.812C419.06 80.176 419.135 80.5773 419.135 81.016H419.359C419.462 80.4933 419.62 80.05 419.835 79.686C420.05 79.322 420.316 79.0467 420.633 78.86C420.95 78.6733 421.314 78.58 421.725 78.58C422.098 78.58 422.425 78.6547 422.705 78.804C422.985 78.9533 423.223 79.1773 423.419 79.476C423.615 79.7653 423.76 80.1247 423.853 80.554C423.946 80.9833 423.993 81.478 423.993 82.038V86H422.719V82.206C422.719 81.6553 422.668 81.198 422.565 80.834C422.462 80.4607 422.308 80.1853 422.103 80.008C421.907 79.8213 421.655 79.728 421.347 79.728C421.002 79.728 420.689 79.8493 420.409 80.092C420.138 80.3253 419.914 80.6567 419.737 81.086C419.569 81.506 419.457 81.9867 419.401 82.528V86H418.155V82.332C418.155 81.7533 418.104 81.2727 418.001 80.89C417.898 80.5073 417.744 80.218 417.539 80.022C417.343 79.826 417.086 79.728 416.769 79.728C416.396 79.728 416.074 79.8587 415.803 80.12C415.532 80.372 415.313 80.7127 415.145 81.142C414.986 81.5713 414.884 82.052 414.837 82.584V86H413.563Z" fill="#9254DE"/>
<path d="M496.579 86V81.52V78.762H497.713L497.587 81.058H497.825C497.946 80.5073 498.109 80.05 498.315 79.686C498.52 79.3127 498.772 79.0373 499.071 78.86C499.379 78.6733 499.729 78.58 500.121 78.58C500.587 78.58 500.97 78.6967 501.269 78.93C501.567 79.154 501.787 79.448 501.927 79.812C502.076 80.176 502.151 80.5773 502.151 81.016H502.375C502.477 80.4933 502.636 80.05 502.851 79.686C503.065 79.322 503.331 79.0467 503.649 78.86C503.966 78.6733 504.33 78.58 504.741 78.58C505.114 78.58 505.441 78.6547 505.721 78.804C506.001 78.9533 506.239 79.1773 506.435 79.476C506.631 79.7653 506.775 80.1247 506.869 80.554C506.962 80.9833 507.009 81.478 507.009 82.038V86H505.735V82.206C505.735 81.6553 505.683 81.198 505.581 80.834C505.478 80.4607 505.324 80.1853 505.119 80.008C504.923 79.8213 504.671 79.728 504.363 79.728C504.017 79.728 503.705 79.8493 503.425 80.092C503.154 80.3253 502.93 80.6567 502.753 81.086C502.585 81.506 502.473 81.9867 502.417 82.528V86H501.171V82.332C501.171 81.7533 501.119 81.2727 501.017 80.89C500.914 80.5073 500.76 80.218 500.555 80.022C500.359 79.826 500.102 79.728 499.785 79.728C499.411 79.728 499.089 79.8587 498.819 80.12C498.548 80.372 498.329 80.7127 498.161 81.142C498.002 81.5713 497.899 82.052 497.853 82.584V86H496.579ZM511.677 86.182C511.061 86.182 510.534 86.0187 510.095 85.692C509.657 85.3653 509.321 84.9173 509.087 84.348C508.863 83.7787 508.751 83.1253 508.751 82.388C508.751 81.6507 508.863 80.9973 509.087 80.428C509.311 79.8587 509.638 79.4107 510.067 79.084C510.497 78.7573 511.024 78.594 511.649 78.594C512.163 78.594 512.583 78.7013 512.909 78.916C513.236 79.1307 513.497 79.4107 513.693 79.756C513.899 80.092 514.048 80.4607 514.141 80.862H514.393C514.347 80.5913 514.305 80.3113 514.267 80.022C514.23 79.7233 514.197 79.434 514.169 79.154C514.141 78.8647 514.127 78.608 514.127 78.384V76.2H515.415V82.43V86H514.267L514.337 84.04H514.113C514.001 84.46 513.843 84.8333 513.637 85.16C513.432 85.4773 513.171 85.7293 512.853 85.916C512.536 86.0933 512.144 86.182 511.677 86.182ZM511.971 85.062C512.307 85.062 512.611 84.9827 512.881 84.824C513.152 84.6653 513.381 84.46 513.567 84.208C513.754 83.9467 513.894 83.6667 513.987 83.368C514.09 83.0693 514.141 82.78 514.141 82.5V82.332C514.141 82.136 514.113 81.926 514.057 81.702C514.001 81.4687 513.917 81.2353 513.805 81.002C513.703 80.7687 513.563 80.554 513.385 80.358C513.217 80.1527 513.017 79.994 512.783 79.882C512.55 79.7607 512.289 79.7 511.999 79.7C511.579 79.7 511.225 79.8213 510.935 80.064C510.655 80.2973 510.441 80.6193 510.291 81.03C510.151 81.4407 510.081 81.9027 510.081 82.416C510.081 82.948 510.156 83.4147 510.305 83.816C510.455 84.208 510.669 84.516 510.949 84.74C511.239 84.9547 511.579 85.062 511.971 85.062Z" fill="#9254DE"/>
<path d="M598.295 86V76.2H599.569V86H598.295ZM604.47 88.45C603.705 88.45 603.075 88.3893 602.58 88.268C602.095 88.156 601.735 87.9787 601.502 87.736C601.269 87.5027 601.152 87.2087 601.152 86.854C601.152 86.4247 601.32 86.07 601.656 85.79C601.992 85.51 602.501 85.3233 603.182 85.23V84.978C602.687 84.978 602.314 84.9173 602.062 84.796C601.81 84.6747 601.684 84.4927 601.684 84.25C601.684 83.998 601.81 83.788 602.062 83.62C602.314 83.4427 602.725 83.2793 603.294 83.13V82.864C602.725 82.8547 602.291 82.6867 601.992 82.36C601.693 82.024 601.544 81.59 601.544 81.058C601.544 80.582 601.67 80.1713 601.922 79.826C602.183 79.4713 602.557 79.2007 603.042 79.014C603.537 78.818 604.125 78.72 604.806 78.72H608.222V79.798L605.982 79.448V79.714C606.523 79.826 606.939 80.0173 607.228 80.288C607.517 80.5493 607.662 80.904 607.662 81.352C607.662 81.7533 607.545 82.1033 607.312 82.402C607.079 82.7007 606.733 82.934 606.276 83.102C605.828 83.2607 605.273 83.34 604.61 83.34C604.479 83.34 604.339 83.3353 604.19 83.326C604.05 83.3073 603.863 83.2793 603.63 83.242C603.378 83.4007 603.173 83.5453 603.014 83.676C602.865 83.8067 602.79 83.9233 602.79 84.026C602.79 84.1287 602.86 84.2127 603 84.278C603.149 84.334 603.327 84.3713 603.532 84.39C603.737 84.4087 603.929 84.418 604.106 84.418H605.744C605.931 84.418 606.164 84.4367 606.444 84.474C606.733 84.5113 607.018 84.5907 607.298 84.712C607.587 84.8333 607.83 85.02 608.026 85.272C608.222 85.524 608.32 85.874 608.32 86.322C608.32 86.826 608.171 87.2367 607.872 87.554C607.573 87.8713 607.139 88.1 606.57 88.24C606.001 88.38 605.301 88.45 604.47 88.45ZM604.498 87.4C605.123 87.4 605.627 87.358 606.01 87.274C606.402 87.1993 606.687 87.078 606.864 86.91C607.051 86.742 607.144 86.5273 607.144 86.266C607.144 86.0233 607.079 85.8367 606.948 85.706C606.827 85.566 606.673 85.468 606.486 85.412C606.299 85.356 606.113 85.3233 605.926 85.314C605.739 85.2953 605.581 85.286 605.45 85.286H603.812C603.271 85.4073 602.897 85.5753 602.692 85.79C602.487 86.0047 602.384 86.2333 602.384 86.476C602.384 86.7373 602.477 86.9333 602.664 87.064C602.851 87.1947 603.103 87.2833 603.42 87.33C603.747 87.3767 604.106 87.4 604.498 87.4ZM604.666 82.514C605.254 82.514 605.697 82.3927 605.996 82.15C606.295 81.9073 606.444 81.5807 606.444 81.17C606.444 80.7313 606.29 80.372 605.982 80.092C605.683 79.8027 605.231 79.658 604.624 79.658C604.036 79.658 603.583 79.7933 603.266 80.064C602.958 80.3347 602.804 80.6847 602.804 81.114C602.804 81.394 602.874 81.6413 603.014 81.856C603.163 82.0613 603.373 82.2247 603.644 82.346C603.924 82.458 604.265 82.514 604.666 82.514Z" fill="#9254DE"/>
<path d="M544.742 40.182C544.135 40.182 543.594 40.1213 543.118 40C542.642 39.888 542.236 39.7107 541.9 39.468C541.573 39.216 541.321 38.9127 541.144 38.558C540.967 38.194 540.873 37.7693 540.864 37.284L542.432 36.822C542.423 37.27 542.516 37.6433 542.712 37.942C542.908 38.2313 543.188 38.446 543.552 38.586C543.925 38.726 544.35 38.796 544.826 38.796C545.283 38.796 545.666 38.74 545.974 38.628C546.291 38.516 546.529 38.3667 546.688 38.18C546.847 37.984 546.926 37.7647 546.926 37.522C546.926 37.2513 546.828 37.0367 546.632 36.878C546.436 36.71 546.17 36.5747 545.834 36.472C545.507 36.36 545.134 36.2573 544.714 36.164C544.257 36.0613 543.809 35.9493 543.37 35.828C542.941 35.7067 542.549 35.5433 542.194 35.338C541.839 35.1327 541.555 34.8713 541.34 34.554C541.135 34.2273 541.032 33.8167 541.032 33.322C541.032 32.762 541.172 32.2813 541.452 31.88C541.732 31.4693 542.138 31.152 542.67 30.928C543.211 30.6947 543.855 30.578 544.602 30.578C545.339 30.578 545.983 30.69 546.534 30.914C547.085 31.1287 547.514 31.446 547.822 31.866C548.13 32.286 548.293 32.7807 548.312 33.35L546.702 33.798C546.702 33.49 546.651 33.224 546.548 33C546.455 32.7667 546.315 32.5753 546.128 32.426C545.941 32.2673 545.717 32.1507 545.456 32.076C545.204 32.0013 544.915 31.964 544.588 31.964C544.205 31.964 543.869 32.0153 543.58 32.118C543.3 32.2207 543.085 32.3653 542.936 32.552C542.787 32.7293 542.712 32.9393 542.712 33.182C542.712 33.4807 542.824 33.7187 543.048 33.896C543.272 34.0733 543.566 34.218 543.93 34.33C544.303 34.4327 544.709 34.5353 545.148 34.638C545.549 34.722 545.951 34.8247 546.352 34.946C546.763 35.0673 547.141 35.226 547.486 35.422C547.831 35.618 548.107 35.884 548.312 36.22C548.527 36.5467 548.634 36.962 548.634 37.466C548.634 38.0073 548.489 38.4833 548.2 38.894C547.911 39.3047 547.477 39.622 546.898 39.846C546.319 40.07 545.601 40.182 544.742 40.182ZM550.265 40V32.678H552.029V40H550.265ZM551.147 31.53C550.792 31.53 550.517 31.4553 550.321 31.306C550.134 31.1473 550.041 30.9233 550.041 30.634C550.041 30.3447 550.134 30.1253 550.321 29.976C550.517 29.8173 550.792 29.738 551.147 29.738C551.52 29.738 551.8 29.8127 551.987 29.962C552.173 30.1113 552.267 30.3353 552.267 30.634C552.267 30.9233 552.169 31.1473 551.973 31.306C551.786 31.4553 551.511 31.53 551.147 31.53ZM553.507 40V38.488L557.399 34.316V34.12H553.563V32.678H559.667V34.162L555.719 38.362V38.544H559.695V40H553.507ZM564.397 40.182C563.809 40.182 563.281 40.098 562.815 39.93C562.357 39.762 561.97 39.5193 561.653 39.202C561.335 38.8753 561.093 38.4833 560.925 38.026C560.757 37.5687 560.673 37.0507 560.673 36.472C560.673 35.8933 560.752 35.3613 560.911 34.876C561.079 34.3907 561.317 33.9707 561.625 33.616C561.933 33.2613 562.306 32.986 562.745 32.79C563.193 32.594 563.701 32.496 564.271 32.496C564.803 32.496 565.279 32.5847 565.699 32.762C566.119 32.9393 566.473 33.2053 566.763 33.56C567.052 33.9053 567.267 34.3393 567.407 34.862C567.547 35.3753 567.593 35.9727 567.547 36.654L561.821 36.696V35.674L566.525 35.632L565.909 36.206C565.965 35.674 565.923 35.24 565.783 34.904C565.643 34.5587 565.442 34.3067 565.181 34.148C564.919 33.98 564.621 33.896 564.285 33.896C563.902 33.896 563.566 33.9987 563.277 34.204C562.987 34.4 562.763 34.6893 562.605 35.072C562.455 35.4453 562.381 35.9027 562.381 36.444C562.381 37.256 562.558 37.8627 562.913 38.264C563.277 38.6653 563.771 38.866 564.397 38.866C564.677 38.866 564.91 38.8333 565.097 38.768C565.293 38.6933 565.456 38.6 565.587 38.488C565.717 38.3667 565.82 38.2313 565.895 38.082C565.979 37.9327 566.044 37.774 566.091 37.606L567.631 37.956C567.556 38.3013 567.435 38.6093 567.267 38.88C567.099 39.1507 566.879 39.384 566.609 39.58C566.347 39.776 566.035 39.9253 565.671 40.028C565.307 40.1307 564.882 40.182 564.397 40.182ZM572.083 40.182C571.588 40.182 571.14 40.1307 570.739 40.028C570.347 39.9347 570.011 39.7993 569.731 39.622C569.451 39.4353 569.227 39.216 569.059 38.964C568.891 38.7027 568.788 38.4133 568.751 38.096L570.137 37.578C570.156 37.8207 570.249 38.04 570.417 38.236C570.585 38.4227 570.818 38.572 571.117 38.684C571.416 38.796 571.775 38.852 572.195 38.852C572.662 38.852 573.021 38.782 573.273 38.642C573.534 38.4927 573.665 38.2827 573.665 38.012C573.665 37.816 573.595 37.662 573.455 37.55C573.315 37.4287 573.11 37.3307 572.839 37.256C572.578 37.172 572.26 37.0927 571.887 37.018C571.542 36.9433 571.192 36.8593 570.837 36.766C570.492 36.6633 570.17 36.5327 569.871 36.374C569.582 36.206 569.344 35.9913 569.157 35.73C568.98 35.4593 568.891 35.1187 568.891 34.708C568.891 34.26 569.008 33.8727 569.241 33.546C569.484 33.2193 569.829 32.9627 570.277 32.776C570.734 32.5893 571.285 32.496 571.929 32.496C572.536 32.496 573.058 32.58 573.497 32.748C573.945 32.916 574.309 33.1587 574.589 33.476C574.869 33.784 575.046 34.1527 575.121 34.582L573.665 35.044C573.637 34.7827 573.548 34.5633 573.399 34.386C573.25 34.1993 573.049 34.0593 572.797 33.966C572.545 33.8727 572.251 33.826 571.915 33.826C571.486 33.826 571.15 33.9007 570.907 34.05C570.664 34.1993 570.543 34.4 570.543 34.652C570.543 34.8573 570.618 35.0207 570.767 35.142C570.926 35.2633 571.14 35.3613 571.411 35.436C571.691 35.5107 572.008 35.5853 572.363 35.66C572.736 35.7347 573.096 35.8233 573.441 35.926C573.796 36.0193 574.113 36.1453 574.393 36.304C574.673 36.4627 574.897 36.6727 575.065 36.934C575.233 37.186 575.317 37.5127 575.317 37.914C575.317 38.3993 575.186 38.8147 574.925 39.16C574.664 39.496 574.29 39.7527 573.805 39.93C573.329 40.098 572.755 40.182 572.083 40.182Z" fill="#9254DE"/>
<path d="M695.362 86V81.604V76.2H696.678V78.454C696.678 78.6593 696.669 78.8693 696.65 79.084C696.641 79.2893 696.622 79.4993 696.594 79.714C696.575 79.9287 696.552 80.148 696.524 80.372C696.496 80.5867 696.463 80.806 696.426 81.03H696.664C696.804 80.4793 696.981 80.0267 697.196 79.672C697.411 79.308 697.677 79.0373 697.994 78.86C698.321 78.6733 698.708 78.58 699.156 78.58C699.977 78.58 700.589 78.8693 700.99 79.448C701.401 80.0173 701.606 80.8713 701.606 82.01V86H700.318V82.136C700.318 81.296 700.187 80.6847 699.926 80.302C699.674 79.91 699.291 79.714 698.778 79.714C698.349 79.714 697.985 79.84 697.686 80.092C697.387 80.344 697.149 80.6847 696.972 81.114C696.804 81.5433 696.692 82.0333 696.636 82.584V86H695.362ZM706.404 88.45C705.638 88.45 705.008 88.3893 704.514 88.268C704.028 88.156 703.669 87.9787 703.436 87.736C703.202 87.5027 703.086 87.2087 703.086 86.854C703.086 86.4247 703.254 86.07 703.59 85.79C703.926 85.51 704.434 85.3233 705.116 85.23V84.978C704.621 84.978 704.248 84.9173 703.996 84.796C703.744 84.6747 703.618 84.4927 703.618 84.25C703.618 83.998 703.744 83.788 703.996 83.62C704.248 83.4427 704.658 83.2793 705.228 83.13V82.864C704.658 82.8547 704.224 82.6867 703.926 82.36C703.627 82.024 703.478 81.59 703.478 81.058C703.478 80.582 703.604 80.1713 703.856 79.826C704.117 79.4713 704.49 79.2007 704.976 79.014C705.47 78.818 706.058 78.72 706.74 78.72H710.156V79.798L707.916 79.448V79.714C708.457 79.826 708.872 80.0173 709.162 80.288C709.451 80.5493 709.596 80.904 709.596 81.352C709.596 81.7533 709.479 82.1033 709.246 82.402C709.012 82.7007 708.667 82.934 708.21 83.102C707.762 83.2607 707.206 83.34 706.544 83.34C706.413 83.34 706.273 83.3353 706.124 83.326C705.984 83.3073 705.797 83.2793 705.564 83.242C705.312 83.4007 705.106 83.5453 704.948 83.676C704.798 83.8067 704.724 83.9233 704.724 84.026C704.724 84.1287 704.794 84.2127 704.934 84.278C705.083 84.334 705.26 84.3713 705.466 84.39C705.671 84.4087 705.862 84.418 706.04 84.418H707.678C707.864 84.418 708.098 84.4367 708.378 84.474C708.667 84.5113 708.952 84.5907 709.232 84.712C709.521 84.8333 709.764 85.02 709.96 85.272C710.156 85.524 710.254 85.874 710.254 86.322C710.254 86.826 710.104 87.2367 709.806 87.554C709.507 87.8713 709.073 88.1 708.504 88.24C707.934 88.38 707.234 88.45 706.404 88.45ZM706.432 87.4C707.057 87.4 707.561 87.358 707.944 87.274C708.336 87.1993 708.62 87.078 708.798 86.91C708.984 86.742 709.078 86.5273 709.078 86.266C709.078 86.0233 709.012 85.8367 708.882 85.706C708.76 85.566 708.606 85.468 708.42 85.412C708.233 85.356 708.046 85.3233 707.86 85.314C707.673 85.2953 707.514 85.286 707.384 85.286H705.746C705.204 85.4073 704.831 85.5753 704.626 85.79C704.42 86.0047 704.318 86.2333 704.318 86.476C704.318 86.7373 704.411 86.9333 704.598 87.064C704.784 87.1947 705.036 87.2833 705.354 87.33C705.68 87.3767 706.04 87.4 706.432 87.4ZM706.6 82.514C707.188 82.514 707.631 82.3927 707.93 82.15C708.228 81.9073 708.378 81.5807 708.378 81.17C708.378 80.7313 708.224 80.372 707.916 80.092C707.617 79.8027 707.164 79.658 706.558 79.658C705.97 79.658 705.517 79.7933 705.2 80.064C704.892 80.3347 704.738 80.6847 704.738 81.114C704.738 81.394 704.808 81.6413 704.948 81.856C705.097 82.0613 705.307 82.2247 705.578 82.346C705.858 82.458 706.198 82.514 706.6 82.514Z" fill="#9254DE"/>
<path d="M415 276V114.747C415 110.329 418.582 106.747 423 106.747H505M505 276V106.747M505 106.747H605M605 276V106.747M605 106.747H695C699.418 106.747 703 110.329 703 114.747V276" stroke="#9254DE" stroke-width="2"/>
<path d="M143.815 481L147.063 471.76H148.939L152.187 481H150.801L148.085 472.838H147.917L145.201 481H143.815ZM145.355 478.928V477.948H150.801V478.928H145.355ZM156.618 481.182C155.984 481.182 155.442 481.079 154.994 480.874C154.556 480.669 154.196 480.393 153.916 480.048C153.646 479.703 153.445 479.306 153.314 478.858C153.193 478.41 153.132 477.943 153.132 477.458C153.132 476.926 153.202 476.427 153.342 475.96C153.482 475.493 153.692 475.083 153.972 474.728C154.262 474.364 154.616 474.084 155.036 473.888C155.466 473.683 155.965 473.58 156.534 473.58C157.085 473.58 157.57 473.678 157.99 473.874C158.41 474.061 158.751 474.327 159.012 474.672C159.283 475.017 159.456 475.428 159.53 475.904L158.312 476.24C158.294 475.979 158.214 475.727 158.074 475.484C157.944 475.241 157.748 475.045 157.486 474.896C157.225 474.737 156.903 474.658 156.52 474.658C156.156 474.658 155.844 474.728 155.582 474.868C155.33 475.008 155.116 475.204 154.938 475.456C154.77 475.708 154.64 476.002 154.546 476.338C154.462 476.674 154.42 477.038 154.42 477.43C154.42 477.971 154.495 478.443 154.644 478.844C154.803 479.245 155.046 479.558 155.372 479.782C155.699 480.006 156.119 480.118 156.632 480.118C157.015 480.118 157.342 480.053 157.612 479.922C157.883 479.782 158.098 479.591 158.256 479.348C158.415 479.096 158.518 478.802 158.564 478.466L159.74 478.732C159.675 479.133 159.554 479.488 159.376 479.796C159.199 480.104 158.975 480.361 158.704 480.566C158.434 480.762 158.121 480.911 157.766 481.014C157.421 481.126 157.038 481.182 156.618 481.182ZM163.448 481.14C162.776 481.14 162.277 480.958 161.95 480.594C161.623 480.23 161.46 479.675 161.46 478.928V474.826H160.368L160.382 473.762H161.068C161.301 473.762 161.469 473.72 161.572 473.636C161.684 473.552 161.749 473.412 161.768 473.216L161.908 472.124H162.692V473.762H164.778V474.84H162.692V478.9C162.692 479.273 162.776 479.544 162.944 479.712C163.121 479.871 163.373 479.95 163.7 479.95C163.877 479.95 164.059 479.927 164.246 479.88C164.442 479.833 164.633 479.74 164.82 479.6V480.874C164.549 480.977 164.297 481.047 164.064 481.084C163.84 481.121 163.635 481.14 163.448 481.14ZM166.403 481V473.762H167.677V481H166.403ZM167.047 472.502C166.749 472.502 166.525 472.441 166.375 472.32C166.226 472.199 166.151 472.017 166.151 471.774C166.151 471.531 166.226 471.349 166.375 471.228C166.525 471.107 166.744 471.046 167.033 471.046C167.332 471.046 167.556 471.107 167.705 471.228C167.855 471.349 167.929 471.531 167.929 471.774C167.929 472.007 167.855 472.189 167.705 472.32C167.556 472.441 167.337 472.502 167.047 472.502ZM171.639 481L169.049 473.776H170.463L172.437 479.922H172.633L174.593 473.776H175.979L173.403 481H171.639ZM180.312 481.182C179.742 481.182 179.238 481.098 178.8 480.93C178.37 480.753 178.006 480.501 177.708 480.174C177.409 479.847 177.185 479.46 177.036 479.012C176.886 478.564 176.812 478.06 176.812 477.5C176.812 476.931 176.886 476.408 177.036 475.932C177.185 475.456 177.404 475.041 177.694 474.686C177.983 474.331 178.338 474.061 178.758 473.874C179.178 473.678 179.658 473.58 180.2 473.58C180.676 473.58 181.11 473.659 181.502 473.818C181.894 473.977 182.225 474.224 182.496 474.56C182.776 474.887 182.986 475.302 183.126 475.806C183.266 476.301 183.322 476.884 183.294 477.556L177.61 477.598V476.73L182.524 476.688L182.09 477.276C182.136 476.688 182.08 476.203 181.922 475.82C181.763 475.437 181.534 475.148 181.236 474.952C180.946 474.756 180.601 474.658 180.2 474.658C179.77 474.658 179.392 474.77 179.066 474.994C178.739 475.218 178.487 475.54 178.31 475.96C178.142 476.38 178.058 476.889 178.058 477.486C178.058 478.345 178.249 479.003 178.632 479.46C179.014 479.908 179.584 480.132 180.34 480.132C180.629 480.132 180.881 480.099 181.096 480.034C181.32 479.959 181.506 479.861 181.656 479.74C181.814 479.609 181.94 479.46 182.034 479.292C182.136 479.124 182.216 478.942 182.272 478.746L183.392 479.012C183.308 479.348 183.177 479.651 183 479.922C182.832 480.183 182.617 480.407 182.356 480.594C182.104 480.781 181.81 480.925 181.474 481.028C181.138 481.131 180.75 481.182 180.312 481.182Z" fill="#9254DE"/>
<path d="M150.259 620V610.76H151.547V620H150.259ZM150.763 616.038V614.932H156.069V616.038H150.763ZM150.763 611.894V610.76H156.671V611.894H150.763ZM158.214 620V612.762H159.488V620H158.214ZM158.858 611.502C158.559 611.502 158.335 611.441 158.186 611.32C158.036 611.199 157.962 611.017 157.962 610.774C157.962 610.531 158.036 610.349 158.186 610.228C158.335 610.107 158.554 610.046 158.844 610.046C159.142 610.046 159.366 610.107 159.516 610.228C159.665 610.349 159.74 610.531 159.74 610.774C159.74 611.007 159.665 611.189 159.516 611.32C159.366 611.441 159.147 611.502 158.858 611.502ZM161.7 620V610.2H162.974V620H161.7ZM165.172 620V610.2H166.446V620H165.172ZM171.753 620.182C171.184 620.182 170.68 620.098 170.241 619.93C169.812 619.753 169.448 619.501 169.149 619.174C168.85 618.847 168.626 618.46 168.477 618.012C168.328 617.564 168.253 617.06 168.253 616.5C168.253 615.931 168.328 615.408 168.477 614.932C168.626 614.456 168.846 614.041 169.135 613.686C169.424 613.331 169.779 613.061 170.199 612.874C170.619 612.678 171.1 612.58 171.641 612.58C172.117 612.58 172.551 612.659 172.943 612.818C173.335 612.977 173.666 613.224 173.937 613.56C174.217 613.887 174.427 614.302 174.567 614.806C174.707 615.301 174.763 615.884 174.735 616.556L169.051 616.598V615.73L173.965 615.688L173.531 616.276C173.578 615.688 173.522 615.203 173.363 614.82C173.204 614.437 172.976 614.148 172.677 613.952C172.388 613.756 172.042 613.658 171.641 613.658C171.212 613.658 170.834 613.77 170.507 613.994C170.18 614.218 169.928 614.54 169.751 614.96C169.583 615.38 169.499 615.889 169.499 616.486C169.499 617.345 169.69 618.003 170.073 618.46C170.456 618.908 171.025 619.132 171.781 619.132C172.07 619.132 172.322 619.099 172.537 619.034C172.761 618.959 172.948 618.861 173.097 618.74C173.256 618.609 173.382 618.46 173.475 618.292C173.578 618.124 173.657 617.942 173.713 617.746L174.833 618.012C174.749 618.348 174.618 618.651 174.441 618.922C174.273 619.183 174.058 619.407 173.797 619.594C173.545 619.781 173.251 619.925 172.915 620.028C172.579 620.131 172.192 620.182 171.753 620.182ZM179.15 620.182C178.534 620.182 178.007 620.019 177.568 619.692C177.129 619.365 176.793 618.917 176.56 618.348C176.336 617.779 176.224 617.125 176.224 616.388C176.224 615.651 176.336 614.997 176.56 614.428C176.784 613.859 177.111 613.411 177.54 613.084C177.969 612.757 178.497 612.594 179.122 612.594C179.635 612.594 180.055 612.701 180.382 612.916C180.709 613.131 180.97 613.411 181.166 613.756C181.371 614.092 181.521 614.461 181.614 614.862H181.866C181.819 614.591 181.777 614.311 181.74 614.022C181.703 613.723 181.67 613.434 181.642 613.154C181.614 612.865 181.6 612.608 181.6 612.384V610.2H182.888V616.43V620H181.74L181.81 618.04H181.586C181.474 618.46 181.315 618.833 181.11 619.16C180.905 619.477 180.643 619.729 180.326 619.916C180.009 620.093 179.617 620.182 179.15 620.182ZM179.444 619.062C179.78 619.062 180.083 618.983 180.354 618.824C180.625 618.665 180.853 618.46 181.04 618.208C181.227 617.947 181.367 617.667 181.46 617.368C181.563 617.069 181.614 616.78 181.614 616.5V616.332C181.614 616.136 181.586 615.926 181.53 615.702C181.474 615.469 181.39 615.235 181.278 615.002C181.175 614.769 181.035 614.554 180.858 614.358C180.69 614.153 180.489 613.994 180.256 613.882C180.023 613.761 179.761 613.7 179.472 613.7C179.052 613.7 178.697 613.821 178.408 614.064C178.128 614.297 177.913 614.619 177.764 615.03C177.624 615.441 177.554 615.903 177.554 616.416C177.554 616.948 177.629 617.415 177.778 617.816C177.927 618.208 178.142 618.516 178.422 618.74C178.711 618.955 179.052 619.062 179.444 619.062Z" fill="#9254DE"/>
<path d="M152.009 758V748.76H153.297V758H152.009ZM152.667 758V756.894H158.491V758H152.667ZM152.667 753.8V752.764H157.833V753.8H152.667ZM152.667 749.852V748.76H158.477V749.852H152.667ZM160.032 758V754.08V750.762H161.18L161.068 753.282H161.306C161.39 752.731 161.52 752.255 161.698 751.854C161.875 751.453 162.108 751.14 162.398 750.916C162.696 750.692 163.065 750.58 163.504 750.58C163.597 750.58 163.704 750.589 163.826 750.608C163.947 750.617 164.087 750.65 164.246 750.706L164.176 752.036C164.036 751.98 163.896 751.943 163.756 751.924C163.616 751.896 163.48 751.882 163.35 751.882C162.986 751.882 162.668 751.999 162.398 752.232C162.136 752.465 161.917 752.783 161.74 753.184C161.562 753.576 161.418 754.019 161.306 754.514V758H160.032ZM165.624 758V754.08V750.762H166.772L166.66 753.282H166.898C166.982 752.731 167.112 752.255 167.29 751.854C167.467 751.453 167.7 751.14 167.99 750.916C168.288 750.692 168.657 750.58 169.096 750.58C169.189 750.58 169.296 750.589 169.418 750.608C169.539 750.617 169.679 750.65 169.838 750.706L169.768 752.036C169.628 751.98 169.488 751.943 169.348 751.924C169.208 751.896 169.072 751.882 168.942 751.882C168.578 751.882 168.26 751.999 167.99 752.232C167.728 752.465 167.509 752.783 167.332 753.184C167.154 753.576 167.01 754.019 166.898 754.514V758H165.624ZM174.214 758.182C173.523 758.182 172.912 758.033 172.38 757.734C171.857 757.426 171.447 756.987 171.148 756.418C170.859 755.849 170.714 755.158 170.714 754.346C170.714 753.506 170.868 752.811 171.176 752.26C171.493 751.7 171.913 751.28 172.436 751C172.959 750.72 173.542 750.58 174.186 750.58C174.858 750.58 175.455 750.729 175.978 751.028C176.51 751.317 176.93 751.747 177.238 752.316C177.546 752.876 177.7 753.571 177.7 754.402C177.7 755.233 177.546 755.928 177.238 756.488C176.939 757.048 176.524 757.473 175.992 757.762C175.469 758.042 174.877 758.182 174.214 758.182ZM174.27 757.132C174.718 757.132 175.101 757.025 175.418 756.81C175.745 756.586 175.992 756.273 176.16 755.872C176.337 755.471 176.426 754.995 176.426 754.444C176.426 753.875 176.333 753.385 176.146 752.974C175.969 752.554 175.712 752.232 175.376 752.008C175.04 751.775 174.634 751.658 174.158 751.658C173.729 751.658 173.351 751.761 173.024 751.966C172.697 752.171 172.445 752.475 172.268 752.876C172.091 753.268 172.002 753.749 172.002 754.318C172.002 755.195 172.203 755.886 172.604 756.39C173.015 756.885 173.57 757.132 174.27 757.132ZM179.514 758V754.08V750.762H180.662L180.55 753.282H180.788C180.872 752.731 181.003 752.255 181.18 751.854C181.358 751.453 181.591 751.14 181.88 750.916C182.179 750.692 182.548 750.58 182.986 750.58C183.08 750.58 183.187 750.589 183.308 750.608C183.43 750.617 183.57 750.65 183.728 750.706L183.658 752.036C183.518 751.98 183.378 751.943 183.238 751.924C183.098 751.896 182.963 751.882 182.832 751.882C182.468 751.882 182.151 751.999 181.88 752.232C181.619 752.465 181.4 752.783 181.222 753.184C181.045 753.576 180.9 754.019 180.788 754.514V758H179.514Z" fill="#9254DE"/>
<path d="M129.015 896V894.894H131.745C132.38 894.894 132.902 894.749 133.313 894.46C133.724 894.161 134.027 893.751 134.223 893.228C134.428 892.705 134.531 892.099 134.531 891.408C134.531 890.801 134.466 890.274 134.335 889.826C134.214 889.378 134.022 889.014 133.761 888.734C133.5 888.445 133.168 888.23 132.767 888.09C132.375 887.941 131.908 887.866 131.367 887.866H129.015V886.76H131.339C132.384 886.76 133.238 886.942 133.901 887.306C134.564 887.67 135.054 888.193 135.371 888.874C135.688 889.555 135.847 890.367 135.847 891.31C135.847 891.935 135.777 892.5 135.637 893.004C135.506 893.508 135.315 893.947 135.063 894.32C134.82 894.693 134.531 895.006 134.195 895.258C133.859 895.501 133.486 895.687 133.075 895.818C132.664 895.939 132.235 896 131.787 896H129.015ZM128.329 896V886.76H129.617V896H128.329ZM137.843 896V888.762H139.117V896H137.843ZM138.487 887.502C138.188 887.502 137.964 887.441 137.815 887.32C137.665 887.199 137.591 887.017 137.591 886.774C137.591 886.531 137.665 886.349 137.815 886.228C137.964 886.107 138.183 886.046 138.473 886.046C138.771 886.046 138.995 886.107 139.145 886.228C139.294 886.349 139.369 886.531 139.369 886.774C139.369 887.007 139.294 887.189 139.145 887.32C138.995 887.441 138.776 887.502 138.487 887.502ZM144.017 896.182C143.513 896.182 143.065 896.126 142.673 896.014C142.281 895.911 141.954 895.762 141.693 895.566C141.431 895.361 141.231 895.118 141.091 894.838C140.951 894.558 140.876 894.25 140.867 893.914L141.945 893.634C141.926 893.942 142.001 894.213 142.169 894.446C142.346 894.67 142.593 894.843 142.911 894.964C143.237 895.085 143.629 895.146 144.087 895.146C144.637 895.146 145.062 895.053 145.361 894.866C145.669 894.679 145.823 894.423 145.823 894.096C145.823 893.835 145.739 893.634 145.571 893.494C145.403 893.345 145.169 893.228 144.871 893.144C144.581 893.051 144.236 892.967 143.835 892.892C143.499 892.817 143.163 892.733 142.827 892.64C142.491 892.547 142.183 892.425 141.903 892.276C141.632 892.117 141.413 891.912 141.245 891.66C141.077 891.408 140.993 891.095 140.993 890.722C140.993 890.283 141.109 889.905 141.343 889.588C141.576 889.271 141.907 889.023 142.337 888.846C142.766 888.669 143.279 888.58 143.877 888.58C144.474 888.58 144.983 888.673 145.403 888.86C145.823 889.037 146.154 889.289 146.397 889.616C146.639 889.943 146.775 890.325 146.803 890.764L145.697 891.044C145.687 890.736 145.603 890.475 145.445 890.26C145.295 890.045 145.081 889.887 144.801 889.784C144.521 889.672 144.194 889.616 143.821 889.616C143.326 889.616 142.934 889.709 142.645 889.896C142.355 890.083 142.211 890.339 142.211 890.666C142.211 890.909 142.295 891.105 142.463 891.254C142.64 891.403 142.878 891.52 143.177 891.604C143.475 891.688 143.807 891.772 144.171 891.856C144.544 891.931 144.899 892.015 145.235 892.108C145.58 892.201 145.888 892.323 146.159 892.472C146.429 892.621 146.644 892.822 146.803 893.074C146.961 893.317 147.041 893.629 147.041 894.012C147.041 894.488 146.915 894.889 146.663 895.216C146.411 895.533 146.056 895.776 145.599 895.944C145.151 896.103 144.623 896.182 144.017 896.182ZM150.528 896.182C150.136 896.182 149.781 896.107 149.464 895.958C149.147 895.799 148.895 895.571 148.708 895.272C148.521 894.964 148.428 894.577 148.428 894.11C148.428 893.765 148.489 893.461 148.61 893.2C148.741 892.939 148.937 892.715 149.198 892.528C149.469 892.341 149.814 892.187 150.234 892.066C150.654 891.945 151.167 891.842 151.774 891.758C152.119 891.711 152.399 891.665 152.614 891.618C152.838 891.571 153.001 891.497 153.104 891.394C153.207 891.282 153.258 891.119 153.258 890.904C153.258 890.549 153.137 890.251 152.894 890.008C152.651 889.765 152.269 889.644 151.746 889.644C151.475 889.644 151.2 889.691 150.92 889.784C150.64 889.877 150.393 890.036 150.178 890.26C149.973 890.475 149.842 890.778 149.786 891.17L148.61 890.778C148.685 890.442 148.806 890.139 148.974 889.868C149.151 889.597 149.375 889.369 149.646 889.182C149.917 888.986 150.229 888.837 150.584 888.734C150.948 888.631 151.349 888.58 151.788 888.58C152.395 888.58 152.899 888.683 153.3 888.888C153.711 889.093 154.014 889.411 154.21 889.84C154.415 890.26 154.518 890.801 154.518 891.464V893.074C154.518 893.363 154.523 893.681 154.532 894.026C154.551 894.362 154.574 894.703 154.602 895.048C154.63 895.384 154.658 895.701 154.686 896H153.51C153.482 895.701 153.454 895.403 153.426 895.104C153.407 894.805 153.393 894.507 153.384 894.208H153.202C153.062 894.553 152.875 894.875 152.642 895.174C152.409 895.473 152.115 895.715 151.76 895.902C151.415 896.089 151.004 896.182 150.528 896.182ZM150.906 895.146C151.111 895.146 151.317 895.113 151.522 895.048C151.737 894.983 151.947 894.875 152.152 894.726C152.367 894.577 152.567 894.385 152.754 894.152C152.95 893.919 153.123 893.639 153.272 893.312V891.912L153.636 891.982C153.487 892.131 153.286 892.243 153.034 892.318C152.791 892.393 152.521 892.453 152.222 892.5C151.923 892.547 151.625 892.598 151.326 892.654C151.027 892.701 150.752 892.775 150.5 892.878C150.257 892.971 150.061 893.107 149.912 893.284C149.763 893.461 149.688 893.704 149.688 894.012C149.688 894.385 149.8 894.67 150.024 894.866C150.248 895.053 150.542 895.146 150.906 895.146ZM160.407 896.182C159.94 896.182 159.539 896.089 159.203 895.902C158.876 895.715 158.61 895.463 158.405 895.146C158.209 894.819 158.059 894.451 157.957 894.04H157.733L157.803 896H156.655V892.43V886.2H157.943V888.468C157.943 888.711 157.929 888.967 157.901 889.238C157.882 889.499 157.849 889.77 157.803 890.05C157.765 890.33 157.723 890.601 157.677 890.862H157.929C158.031 890.47 158.181 890.101 158.377 889.756C158.573 889.411 158.834 889.131 159.161 888.916C159.497 888.701 159.912 888.594 160.407 888.594C161.023 888.594 161.545 888.757 161.975 889.084C162.413 889.401 162.749 889.845 162.983 890.414C163.216 890.983 163.333 891.646 163.333 892.402C163.333 893.13 163.216 893.779 162.983 894.348C162.759 894.917 162.427 895.365 161.989 895.692C161.559 896.019 161.032 896.182 160.407 896.182ZM160.099 895.062C160.5 895.062 160.841 894.955 161.121 894.74C161.401 894.525 161.615 894.217 161.765 893.816C161.923 893.415 162.003 892.948 162.003 892.416C162.003 891.893 161.928 891.431 161.779 891.03C161.629 890.619 161.415 890.297 161.135 890.064C160.855 889.821 160.509 889.7 160.099 889.7C159.8 889.7 159.534 889.761 159.301 889.882C159.067 889.994 158.862 890.148 158.685 890.344C158.517 890.54 158.377 890.755 158.265 890.988C158.153 891.221 158.069 891.455 158.013 891.688C157.957 891.921 157.929 892.136 157.929 892.332V892.5C157.929 892.78 157.975 893.069 158.069 893.368C158.171 893.667 158.316 893.947 158.503 894.208C158.689 894.46 158.918 894.665 159.189 894.824C159.459 894.983 159.763 895.062 160.099 895.062ZM165.172 896V886.2H166.446V896H165.172ZM171.753 896.182C171.184 896.182 170.68 896.098 170.241 895.93C169.812 895.753 169.448 895.501 169.149 895.174C168.85 894.847 168.626 894.46 168.477 894.012C168.328 893.564 168.253 893.06 168.253 892.5C168.253 891.931 168.328 891.408 168.477 890.932C168.626 890.456 168.846 890.041 169.135 889.686C169.424 889.331 169.779 889.061 170.199 888.874C170.619 888.678 171.1 888.58 171.641 888.58C172.117 888.58 172.551 888.659 172.943 888.818C173.335 888.977 173.666 889.224 173.937 889.56C174.217 889.887 174.427 890.302 174.567 890.806C174.707 891.301 174.763 891.884 174.735 892.556L169.051 892.598V891.73L173.965 891.688L173.531 892.276C173.578 891.688 173.522 891.203 173.363 890.82C173.204 890.437 172.976 890.148 172.677 889.952C172.388 889.756 172.042 889.658 171.641 889.658C171.212 889.658 170.834 889.77 170.507 889.994C170.18 890.218 169.928 890.54 169.751 890.96C169.583 891.38 169.499 891.889 169.499 892.486C169.499 893.345 169.69 894.003 170.073 894.46C170.456 894.908 171.025 895.132 171.781 895.132C172.07 895.132 172.322 895.099 172.537 895.034C172.761 894.959 172.948 894.861 173.097 894.74C173.256 894.609 173.382 894.46 173.475 894.292C173.578 894.124 173.657 893.942 173.713 893.746L174.833 894.012C174.749 894.348 174.618 894.651 174.441 894.922C174.273 895.183 174.058 895.407 173.797 895.594C173.545 895.781 173.251 895.925 172.915 896.028C172.579 896.131 172.192 896.182 171.753 896.182ZM179.15 896.182C178.534 896.182 178.007 896.019 177.568 895.692C177.129 895.365 176.793 894.917 176.56 894.348C176.336 893.779 176.224 893.125 176.224 892.388C176.224 891.651 176.336 890.997 176.56 890.428C176.784 889.859 177.111 889.411 177.54 889.084C177.969 888.757 178.497 888.594 179.122 888.594C179.635 888.594 180.055 888.701 180.382 888.916C180.709 889.131 180.97 889.411 181.166 889.756C181.371 890.092 181.521 890.461 181.614 890.862H181.866C181.819 890.591 181.777 890.311 181.74 890.022C181.703 889.723 181.67 889.434 181.642 889.154C181.614 888.865 181.6 888.608 181.6 888.384V886.2H182.888V892.43V896H181.74L181.81 894.04H181.586C181.474 894.46 181.315 894.833 181.11 895.16C180.905 895.477 180.643 895.729 180.326 895.916C180.009 896.093 179.617 896.182 179.15 896.182ZM179.444 895.062C179.78 895.062 180.083 894.983 180.354 894.824C180.625 894.665 180.853 894.46 181.04 894.208C181.227 893.947 181.367 893.667 181.46 893.368C181.563 893.069 181.614 892.78 181.614 892.5V892.332C181.614 892.136 181.586 891.926 181.53 891.702C181.474 891.469 181.39 891.235 181.278 891.002C181.175 890.769 181.035 890.554 180.858 890.358C180.69 890.153 180.489 889.994 180.256 889.882C180.023 889.761 179.761 889.7 179.472 889.7C179.052 889.7 178.697 889.821 178.408 890.064C178.128 890.297 177.913 890.619 177.764 891.03C177.624 891.441 177.554 891.903 177.554 892.416C177.554 892.948 177.629 893.415 177.778 893.816C177.927 894.208 178.142 894.516 178.422 894.74C178.711 894.955 179.052 895.062 179.444 895.062Z" fill="#9254DE"/>
<path d="M33.7089 624.182C33.1022 624.182 32.5609 624.121 32.0849 624C31.6089 623.888 31.2029 623.711 30.8669 623.468C30.5402 623.216 30.2882 622.913 30.1109 622.558C29.9335 622.194 29.8402 621.769 29.8309 621.284L31.3989 620.822C31.3895 621.27 31.4829 621.643 31.6789 621.942C31.8749 622.231 32.1549 622.446 32.5189 622.586C32.8922 622.726 33.3169 622.796 33.7929 622.796C34.2502 622.796 34.6329 622.74 34.9409 622.628C35.2582 622.516 35.4962 622.367 35.6549 622.18C35.8135 621.984 35.8929 621.765 35.8929 621.522C35.8929 621.251 35.7949 621.037 35.5989 620.878C35.4029 620.71 35.1369 620.575 34.8009 620.472C34.4742 620.36 34.1009 620.257 33.6809 620.164C33.2235 620.061 32.7755 619.949 32.3369 619.828C31.9075 619.707 31.5155 619.543 31.1609 619.338C30.8062 619.133 30.5215 618.871 30.3069 618.554C30.1015 618.227 29.9989 617.817 29.9989 617.322C29.9989 616.762 30.1389 616.281 30.4189 615.88C30.6989 615.469 31.1049 615.152 31.6369 614.928C32.1782 614.695 32.8222 614.578 33.5689 614.578C34.3062 614.578 34.9502 614.69 35.5009 614.914C36.0515 615.129 36.4809 615.446 36.7889 615.866C37.0969 616.286 37.2602 616.781 37.2789 617.35L35.6689 617.798C35.6689 617.49 35.6175 617.224 35.5149 617C35.4215 616.767 35.2815 616.575 35.0949 616.426C34.9082 616.267 34.6842 616.151 34.4229 616.076C34.1709 616.001 33.8815 615.964 33.5549 615.964C33.1722 615.964 32.8362 616.015 32.5469 616.118C32.2669 616.221 32.0522 616.365 31.9029 616.552C31.7535 616.729 31.6789 616.939 31.6789 617.182C31.6789 617.481 31.7909 617.719 32.0149 617.896C32.2389 618.073 32.5329 618.218 32.8969 618.33C33.2702 618.433 33.6762 618.535 34.1149 618.638C34.5162 618.722 34.9175 618.825 35.3189 618.946C35.7295 619.067 36.1075 619.226 36.4529 619.422C36.7982 619.618 37.0735 619.884 37.2789 620.22C37.4935 620.547 37.6009 620.962 37.6009 621.466C37.6009 622.007 37.4562 622.483 37.1669 622.894C36.8775 623.305 36.4435 623.622 35.8649 623.846C35.2862 624.07 34.5675 624.182 33.7089 624.182ZM41.7933 624.168C41.0186 624.168 40.4493 623.963 40.0853 623.552C39.7213 623.132 39.5393 622.483 39.5393 621.606V618.092H38.4613L38.4893 616.692H39.2033C39.474 616.692 39.6746 616.65 39.8053 616.566C39.936 616.482 40.0153 616.333 40.0433 616.118L40.2113 615.054H41.2333V616.678H43.1653V618.148H41.2333V621.536C41.2333 621.881 41.3126 622.133 41.4713 622.292C41.6393 622.451 41.8866 622.53 42.2133 622.53C42.3906 622.53 42.5633 622.511 42.7313 622.474C42.9086 622.427 43.072 622.353 43.2213 622.25V623.93C42.932 624.023 42.666 624.084 42.4233 624.112C42.19 624.149 41.98 624.168 41.7933 624.168ZM46.3667 624.182C45.9654 624.182 45.606 624.107 45.2887 623.958C44.9714 623.799 44.7194 623.566 44.5327 623.258C44.3554 622.95 44.2667 622.567 44.2667 622.11C44.2667 621.727 44.3367 621.401 44.4767 621.13C44.626 620.859 44.8454 620.64 45.1347 620.472C45.424 620.295 45.7834 620.15 46.2127 620.038C46.642 619.917 47.146 619.814 47.7247 619.73C48.042 619.683 48.2987 619.637 48.4947 619.59C48.7 619.543 48.8494 619.473 48.9427 619.38C49.036 619.277 49.0827 619.128 49.0827 618.932C49.0827 618.643 48.98 618.395 48.7747 618.19C48.5787 617.975 48.2567 617.868 47.8087 617.868C47.538 617.868 47.2767 617.915 47.0247 618.008C46.782 618.101 46.572 618.251 46.3947 618.456C46.2174 618.652 46.096 618.913 46.0307 619.24L44.4487 618.75C44.5514 618.377 44.7007 618.055 44.8967 617.784C45.0927 617.504 45.3354 617.266 45.6247 617.07C45.914 616.874 46.2454 616.729 46.6187 616.636C46.992 616.543 47.4027 616.496 47.8507 616.496C48.532 616.496 49.092 616.608 49.5307 616.832C49.9694 617.047 50.296 617.387 50.5107 617.854C50.7254 618.311 50.8327 618.904 50.8327 619.632V621.004C50.8327 621.321 50.8374 621.653 50.8467 621.998C50.8654 622.334 50.884 622.675 50.9027 623.02C50.9307 623.356 50.9634 623.683 51.0007 624H49.4187C49.3814 623.739 49.3487 623.459 49.3207 623.16C49.2927 622.861 49.2694 622.558 49.2507 622.25H49.0267C48.896 622.605 48.7094 622.931 48.4667 623.23C48.224 623.519 47.9254 623.753 47.5707 623.93C47.2254 624.098 46.824 624.182 46.3667 624.182ZM47.0667 622.88C47.2534 622.88 47.44 622.847 47.6267 622.782C47.8227 622.717 48.014 622.619 48.2007 622.488C48.3874 622.357 48.56 622.199 48.7187 622.012C48.8774 621.816 49.0127 621.587 49.1247 621.326L49.0967 620.08L49.4327 620.136C49.274 620.267 49.078 620.369 48.8447 620.444C48.6114 620.519 48.364 620.575 48.1027 620.612C47.8507 620.649 47.594 620.696 47.3327 620.752C47.0807 620.799 46.852 620.864 46.6467 620.948C46.4414 621.023 46.278 621.135 46.1567 621.284C46.0354 621.424 45.9747 621.62 45.9747 621.872C45.9747 622.189 46.0774 622.437 46.2827 622.614C46.488 622.791 46.7494 622.88 47.0667 622.88ZM55.3011 624.168C54.5265 624.168 53.9571 623.963 53.5931 623.552C53.2291 623.132 53.0471 622.483 53.0471 621.606V618.092H51.9691L51.9971 616.692H52.7111C52.9818 616.692 53.1825 616.65 53.3131 616.566C53.4438 616.482 53.5231 616.333 53.5511 616.118L53.7191 615.054H54.7411V616.678H56.6731V618.148H54.7411V621.536C54.7411 621.881 54.8205 622.133 54.9791 622.292C55.1471 622.451 55.3945 622.53 55.7211 622.53C55.8985 622.53 56.0711 622.511 56.2391 622.474C56.4165 622.427 56.5798 622.353 56.7291 622.25V623.93C56.4398 624.023 56.1738 624.084 55.9311 624.112C55.6978 624.149 55.4878 624.168 55.3011 624.168ZM61.4298 624.182C60.8418 624.182 60.3145 624.098 59.8478 623.93C59.3905 623.762 59.0032 623.519 58.6858 623.202C58.3685 622.875 58.1258 622.483 57.9578 622.026C57.7898 621.569 57.7058 621.051 57.7058 620.472C57.7058 619.893 57.7852 619.361 57.9438 618.876C58.1118 618.391 58.3498 617.971 58.6578 617.616C58.9658 617.261 59.3392 616.986 59.7778 616.79C60.2258 616.594 60.7345 616.496 61.3038 616.496C61.8358 616.496 62.3118 616.585 62.7318 616.762C63.1518 616.939 63.5065 617.205 63.7958 617.56C64.0852 617.905 64.2998 618.339 64.4398 618.862C64.5798 619.375 64.6265 619.973 64.5798 620.654L58.8538 620.696V619.674L63.5578 619.632L62.9418 620.206C62.9978 619.674 62.9558 619.24 62.8158 618.904C62.6758 618.559 62.4752 618.307 62.2138 618.148C61.9525 617.98 61.6538 617.896 61.3178 617.896C60.9352 617.896 60.5992 617.999 60.3098 618.204C60.0205 618.4 59.7965 618.689 59.6378 619.072C59.4885 619.445 59.4138 619.903 59.4138 620.444C59.4138 621.256 59.5912 621.863 59.9458 622.264C60.3098 622.665 60.8045 622.866 61.4298 622.866C61.7098 622.866 61.9432 622.833 62.1298 622.768C62.3258 622.693 62.4892 622.6 62.6198 622.488C62.7505 622.367 62.8532 622.231 62.9278 622.082C63.0118 621.933 63.0772 621.774 63.1238 621.606L64.6638 621.956C64.5892 622.301 64.4678 622.609 64.2998 622.88C64.1318 623.151 63.9125 623.384 63.6418 623.58C63.3805 623.776 63.0678 623.925 62.7038 624.028C62.3398 624.131 61.9152 624.182 61.4298 624.182ZM69.1163 624.182C68.6216 624.182 68.1736 624.131 67.7723 624.028C67.3803 623.935 67.0443 623.799 66.7643 623.622C66.4843 623.435 66.2603 623.216 66.0923 622.964C65.9243 622.703 65.8216 622.413 65.7843 622.096L67.1703 621.578C67.1889 621.821 67.2823 622.04 67.4503 622.236C67.6183 622.423 67.8516 622.572 68.1503 622.684C68.4489 622.796 68.8083 622.852 69.2283 622.852C69.6949 622.852 70.0543 622.782 70.3063 622.642C70.5676 622.493 70.6983 622.283 70.6983 622.012C70.6983 621.816 70.6283 621.662 70.4883 621.55C70.3483 621.429 70.1429 621.331 69.8723 621.256C69.6109 621.172 69.2936 621.093 68.9203 621.018C68.5749 620.943 68.2249 620.859 67.8703 620.766C67.5249 620.663 67.2029 620.533 66.9043 620.374C66.6149 620.206 66.3769 619.991 66.1903 619.73C66.0129 619.459 65.9243 619.119 65.9243 618.708C65.9243 618.26 66.0409 617.873 66.2743 617.546C66.5169 617.219 66.8623 616.963 67.3103 616.776C67.7676 616.589 68.3183 616.496 68.9623 616.496C69.5689 616.496 70.0916 616.58 70.5303 616.748C70.9783 616.916 71.3423 617.159 71.6223 617.476C71.9023 617.784 72.0796 618.153 72.1543 618.582L70.6983 619.044C70.6703 618.783 70.5816 618.563 70.4323 618.386C70.2829 618.199 70.0823 618.059 69.8303 617.966C69.5783 617.873 69.2843 617.826 68.9483 617.826C68.5189 617.826 68.1829 617.901 67.9403 618.05C67.6976 618.199 67.5763 618.4 67.5763 618.652C67.5763 618.857 67.6509 619.021 67.8003 619.142C67.9589 619.263 68.1736 619.361 68.4443 619.436C68.7243 619.511 69.0416 619.585 69.3963 619.66C69.7696 619.735 70.1289 619.823 70.4743 619.926C70.8289 620.019 71.1463 620.145 71.4263 620.304C71.7063 620.463 71.9303 620.673 72.0983 620.934C72.2663 621.186 72.3503 621.513 72.3503 621.914C72.3503 622.399 72.2196 622.815 71.9583 623.16C71.6969 623.496 71.3236 623.753 70.8383 623.93C70.3623 624.098 69.7883 624.182 69.1163 624.182Z" fill="#9254DE"/>
<path d="M138.49 346V344.894H141.22C141.854 344.894 142.377 344.749 142.788 344.46C143.198 344.161 143.502 343.751 143.698 343.228C143.903 342.705 144.006 342.099 144.006 341.408C144.006 340.801 143.94 340.274 143.81 339.826C143.688 339.378 143.497 339.014 143.236 338.734C142.974 338.445 142.643 338.23 142.242 338.09C141.85 337.941 141.383 337.866 140.842 337.866H138.49V336.76H140.814C141.859 336.76 142.713 336.942 143.376 337.306C144.038 337.67 144.528 338.193 144.846 338.874C145.163 339.555 145.322 340.367 145.322 341.31C145.322 341.935 145.252 342.5 145.112 343.004C144.981 343.508 144.79 343.947 144.538 344.32C144.295 344.693 144.006 345.006 143.67 345.258C143.334 345.501 142.96 345.687 142.55 345.818C142.139 345.939 141.71 346 141.262 346H138.49ZM137.804 346V336.76H139.092V346H137.804ZM150.398 346.182C149.828 346.182 149.324 346.098 148.886 345.93C148.456 345.753 148.092 345.501 147.794 345.174C147.495 344.847 147.271 344.46 147.122 344.012C146.972 343.564 146.898 343.06 146.898 342.5C146.898 341.931 146.972 341.408 147.122 340.932C147.271 340.456 147.49 340.041 147.78 339.686C148.069 339.331 148.424 339.061 148.844 338.874C149.264 338.678 149.744 338.58 150.286 338.58C150.762 338.58 151.196 338.659 151.588 338.818C151.98 338.977 152.311 339.224 152.582 339.56C152.862 339.887 153.072 340.302 153.212 340.806C153.352 341.301 153.408 341.884 153.38 342.556L147.696 342.598V341.73L152.61 341.688L152.176 342.276C152.222 341.688 152.166 341.203 152.008 340.82C151.849 340.437 151.62 340.148 151.322 339.952C151.032 339.756 150.687 339.658 150.286 339.658C149.856 339.658 149.478 339.77 149.152 339.994C148.825 340.218 148.573 340.54 148.396 340.96C148.228 341.38 148.144 341.889 148.144 342.486C148.144 343.345 148.335 344.003 148.718 344.46C149.1 344.908 149.67 345.132 150.426 345.132C150.715 345.132 150.967 345.099 151.182 345.034C151.406 344.959 151.592 344.861 151.742 344.74C151.9 344.609 152.026 344.46 152.12 344.292C152.222 344.124 152.302 343.942 152.358 343.746L153.478 344.012C153.394 344.348 153.263 344.651 153.086 344.922C152.918 345.183 152.703 345.407 152.442 345.594C152.19 345.781 151.896 345.925 151.56 346.028C151.224 346.131 150.836 346.182 150.398 346.182ZM155.766 346V340.89H154.478V339.868L156.284 339.98V339.742C156.051 339.649 155.855 339.523 155.696 339.364C155.547 339.196 155.43 339.005 155.346 338.79C155.271 338.575 155.234 338.347 155.234 338.104C155.234 337.712 155.318 337.371 155.486 337.082C155.663 336.793 155.911 336.564 156.228 336.396C156.555 336.228 156.942 336.144 157.39 336.144C157.745 336.144 158.062 336.195 158.342 336.298C158.631 336.391 158.869 336.517 159.056 336.676L158.902 337.866C158.725 337.698 158.51 337.567 158.258 337.474C158.006 337.371 157.754 337.32 157.502 337.32C157.194 337.32 156.942 337.418 156.746 337.614C156.55 337.81 156.452 338.113 156.452 338.524C156.452 338.757 156.485 338.958 156.55 339.126C156.615 339.294 156.699 339.439 156.802 339.56C156.914 339.672 157.026 339.765 157.138 339.84H158.93L158.916 340.89H157.026V346H155.766ZM162.04 346.182C161.648 346.182 161.293 346.107 160.976 345.958C160.658 345.799 160.406 345.571 160.22 345.272C160.033 344.964 159.94 344.577 159.94 344.11C159.94 343.765 160 343.461 160.122 343.2C160.252 342.939 160.448 342.715 160.71 342.528C160.98 342.341 161.326 342.187 161.746 342.066C162.166 341.945 162.679 341.842 163.286 341.758C163.631 341.711 163.911 341.665 164.126 341.618C164.35 341.571 164.513 341.497 164.616 341.394C164.718 341.282 164.77 341.119 164.77 340.904C164.77 340.549 164.648 340.251 164.406 340.008C164.163 339.765 163.78 339.644 163.258 339.644C162.987 339.644 162.712 339.691 162.432 339.784C162.152 339.877 161.904 340.036 161.69 340.26C161.484 340.475 161.354 340.778 161.298 341.17L160.122 340.778C160.196 340.442 160.318 340.139 160.486 339.868C160.663 339.597 160.887 339.369 161.158 339.182C161.428 338.986 161.741 338.837 162.096 338.734C162.46 338.631 162.861 338.58 163.3 338.58C163.906 338.58 164.41 338.683 164.812 338.888C165.222 339.093 165.526 339.411 165.722 339.84C165.927 340.26 166.03 340.801 166.03 341.464V343.074C166.03 343.363 166.034 343.681 166.044 344.026C166.062 344.362 166.086 344.703 166.114 345.048C166.142 345.384 166.17 345.701 166.198 346H165.022C164.994 345.701 164.966 345.403 164.938 345.104C164.919 344.805 164.905 344.507 164.896 344.208H164.714C164.574 344.553 164.387 344.875 164.154 345.174C163.92 345.473 163.626 345.715 163.272 345.902C162.926 346.089 162.516 346.182 162.04 346.182ZM162.418 345.146C162.623 345.146 162.828 345.113 163.034 345.048C163.248 344.983 163.458 344.875 163.664 344.726C163.878 344.577 164.079 344.385 164.266 344.152C164.462 343.919 164.634 343.639 164.784 343.312V341.912L165.148 341.982C164.998 342.131 164.798 342.243 164.546 342.318C164.303 342.393 164.032 342.453 163.734 342.5C163.435 342.547 163.136 342.598 162.838 342.654C162.539 342.701 162.264 342.775 162.012 342.878C161.769 342.971 161.573 343.107 161.424 343.284C161.274 343.461 161.2 343.704 161.2 344.012C161.2 344.385 161.312 344.67 161.536 344.866C161.76 345.053 162.054 345.146 162.418 345.146ZM170.491 346.182C169.688 346.182 169.081 345.902 168.671 345.342C168.26 344.782 168.055 343.947 168.055 342.836V338.762H169.343V342.724C169.343 343.508 169.464 344.091 169.707 344.474C169.949 344.857 170.332 345.048 170.855 345.048C171.144 345.048 171.401 344.978 171.625 344.838C171.858 344.698 172.063 344.497 172.241 344.236C172.418 343.975 172.563 343.667 172.675 343.312C172.787 342.948 172.861 342.556 172.899 342.136V338.762H174.173V342.976V346H173.039L173.151 343.676H172.941C172.819 344.255 172.647 344.731 172.423 345.104C172.208 345.468 171.937 345.739 171.611 345.916C171.284 346.093 170.911 346.182 170.491 346.182ZM176.383 346V336.2H177.657V346H176.383ZM182.165 346.14C181.493 346.14 180.993 345.958 180.667 345.594C180.34 345.23 180.177 344.675 180.177 343.928V339.826H179.085L179.099 338.762H179.785C180.018 338.762 180.186 338.72 180.289 338.636C180.401 338.552 180.466 338.412 180.485 338.216L180.625 337.124H181.409V338.762H183.495V339.84H181.409V343.9C181.409 344.273 181.493 344.544 181.661 344.712C181.838 344.871 182.09 344.95 182.417 344.95C182.594 344.95 182.776 344.927 182.963 344.88C183.159 344.833 183.35 344.74 183.537 344.6V345.874C183.266 345.977 183.014 346.047 182.781 346.084C182.557 346.121 182.351 346.14 182.165 346.14Z" fill="#9254DE"/>
<path d="M363 477L201.747 477M201.747 477L201.747 347C201.747 342.582 205.329 339 209.747 339L363 339M201.747 477L201.747 615M201.747 477L201.747 753M363 615L201.747 615M201.747 615L201.747 753M363 753L201.747 753M201.747 753L201.747 883C201.747 887.418 205.329 891 209.747 891L363 891" stroke="#9254DE" stroke-width="2"/>
</g>
</svg>
