<svg width="790" height="610" viewBox="0 0 790 610" fill="none" xmlns="http://www.w3.org/2000/svg">
<mask id="path-1-outside-1_1896_2066" maskUnits="userSpaceOnUse" x="286" y="180" width="472" height="400" fill="black">
<rect fill="white" x="286" y="180" width="472" height="400"/>
<path d="M290 216C290 198.327 304.327 184 322 184H722C739.673 184 754 198.327 754 216V532C754 549.673 739.673 564 722 564H322C304.327 564 290 549.673 290 532V216Z"/>
</mask>
<path d="M290 216C290 198.327 304.327 184 322 184H722C739.673 184 754 198.327 754 216V532C754 549.673 739.673 564 722 564H322C304.327 564 290 549.673 290 532V216Z" fill="white"/>
<path d="M286 216C286 196.118 302.118 180 322 180H722C741.882 180 758 196.118 758 216H750C750 200.536 737.464 188 722 188H322C306.536 188 294 200.536 294 216H286ZM758 544C758 563.882 741.882 580 722 580H322C302.118 580 286 563.882 286 544L294 532C294 540.837 306.536 548 322 548H722C737.464 548 750 540.837 750 532L758 544ZM322 580C302.118 580 286 563.882 286 544V216C286 196.118 302.118 180 322 180V188C306.536 188 294 200.536 294 216V532C294 540.837 306.536 548 322 548V580ZM722 180C741.882 180 758 196.118 758 216V544C758 563.882 741.882 580 722 580V548C737.464 548 750 540.837 750 532V216C750 200.536 737.464 188 722 188V180Z" fill="#722ED1" mask="url(#path-1-outside-1_1896_2066)"/>
<path d="M662.877 264V264.5H668C671.038 264.5 673.5 266.962 673.5 270V274.952H674V279.904H673.5V289.81H674V294.762H673.5V304.667H674V309.619H673.5V319.523H674V324.477H673.5V334.381H674V339.333H673.5V349.238H674V354.19H673.5V364.096H674V369.048H673.5V378.952H674V383.904H673.5V393.81H674V398.762H673.5V408.667H674V413.619H673.5V423.523H674V428.477H673.5V438.381H674V443.333H673.5V453.238H674V458.19H673.5V468.096H674V473.048H673.5V478C673.5 481.038 671.038 483.5 668 483.5H662.877V484H657.754V483.5H647.509V484H642.386V483.5H632.141V484H627.018V483.5H616.771V484H611.649V483.5H601.403V484H596.28V483.5H586.035V484H580.912V483.5H570.667V484H565.544V483.5H555.298V484H550.176V483.5H539.93V484H534.807V483.5H524.562V484H519.438V483.5H509.193V484H504.07V483.5H493.824V484H488.702V483.5H478.456V484H473.333V483.5H463.088V484H457.965V483.5H447.72V484H442.597V483.5H432.351V484H427.229V483.5H416.982V484H411.859V483.5H401.614V484H396.491V483.5H386.246V484H381.123V483.5H376C372.962 483.5 370.5 481.038 370.5 478V473.048H370V468.096H370.5V458.19H370V453.238H370.5V443.333H370V438.381H370.5V428.477H370V423.523H370.5V413.619H370V408.667H370.5V398.762H370V393.81H370.5V383.904H370V378.952H370.5V369.048H370V364.096H370.5V354.19H370V349.238H370.5V339.333H370V334.381H370.5V324.477H370V319.523H370.5V309.619H370V304.667H370.5V294.762H370V289.81H370.5V279.904H370V274.952H370.5V270C370.5 266.962 372.962 264.5 376 264.5H381.123V264H386.246V264.5H396.491V264H401.614V264.5H411.859V264H416.982V264.5H427.229V264H432.351V264.5H442.597V264H447.72V264.5H457.965V264H463.088V264.5H473.333V264H478.456V264.5H488.702V264H493.824V264.5H504.07V264H509.193V264.5H519.438V264H524.562V264.5H534.807V264H539.93V264.5H550.176V264H555.298V264.5H565.544V264H570.667V264.5H580.912V264H586.035V264.5H596.28V264H601.403V264.5H611.649V264H616.771V264.5H627.018V264H632.141V264.5H642.386V264H647.509V264.5H657.754V264H662.877Z" fill="white"/>
<path d="M662.877 264V264.5H668C671.038 264.5 673.5 266.962 673.5 270V274.952H674V279.904H673.5V289.81H674V294.762H673.5V304.667H674V309.619H673.5V319.523H674V324.477H673.5V334.381H674V339.333H673.5V349.238H674V354.19H673.5V364.096H674V369.048H673.5V378.952H674V383.904H673.5V393.81H674V398.762H673.5V408.667H674V413.619H673.5V423.523H674V428.477H673.5V438.381H674V443.333H673.5V453.238H674V458.19H673.5V468.096H674V473.048H673.5V478C673.5 481.038 671.038 483.5 668 483.5H662.877V484H657.754V483.5H647.509V484H642.386V483.5H632.141V484H627.018V483.5H616.771V484H611.649V483.5H601.403V484H596.28V483.5H586.035V484H580.912V483.5H570.667V484H565.544V483.5H555.298V484H550.176V483.5H539.93V484H534.807V483.5H524.562V484H519.438V483.5H509.193V484H504.07V483.5H493.824V484H488.702V483.5H478.456V484H473.333V483.5H463.088V484H457.965V483.5H447.72V484H442.597V483.5H432.351V484H427.229V483.5H416.982V484H411.859V483.5H401.614V484H396.491V483.5H386.246V484H381.123V483.5H376C372.962 483.5 370.5 481.038 370.5 478V473.048H370V468.096H370.5V458.19H370V453.238H370.5V443.333H370V438.381H370.5V428.477H370V423.523H370.5V413.619H370V408.667H370.5V398.762H370V393.81H370.5V383.904H370V378.952H370.5V369.048H370V364.096H370.5V354.19H370V349.238H370.5V339.333H370V334.381H370.5V324.477H370V319.523H370.5V309.619H370V304.667H370.5V294.762H370V289.81H370.5V279.904H370V274.952H370.5V270C370.5 266.962 372.962 264.5 376 264.5H381.123V264H386.246V264.5H396.491V264H401.614V264.5H411.859V264H416.982V264.5H427.229V264H432.351V264.5H442.597V264H447.72V264.5H457.965V264H463.088V264.5H473.333V264H478.456V264.5H488.702V264H493.824V264.5H504.07V264H509.193V264.5H519.438V264H524.562V264.5H534.807V264H539.93V264.5H550.176V264H555.298V264.5H565.544V264H570.667V264.5H580.912V264H586.035V264.5H596.28V264H601.403V264.5H611.649V264H616.771V264.5H627.018V264H632.141V264.5H642.386V264H647.509V264.5H657.754V264H662.877Z" stroke="#722ED1" stroke-dasharray="10 5"/>
<g clip-path="url(#clip0_1896_2066)">
<path d="M610 336C610 329.373 615.373 324 622 324H642C648.627 324 654 329.373 654 336C654 342.627 648.627 348 642 348H622C615.373 348 610 342.627 610 336Z" fill="#2F54EB"/>
<g filter="url(#filter0_dd_1896_2066)">
<circle cx="642" cy="336" r="10" fill="white"/>
</g>
</g>
<g clip-path="url(#clip1_1896_2066)">
<path d="M610 376C610 369.373 615.373 364 622 364H642C648.627 364 654 369.373 654 376C654 382.627 648.627 388 642 388H622C615.373 388 610 382.627 610 376Z" fill="#1D39C4"/>
<g filter="url(#filter1_dd_1896_2066)">
<circle cx="642" cy="376" r="10" fill="white"/>
</g>
</g>
<g clip-path="url(#clip2_1896_2066)">
<path d="M450 334C450 328.477 454.477 324 460 324H476C481.523 324 486 328.477 486 334C486 339.523 481.523 344 476 344H460C454.477 344 450 339.523 450 334Z" fill="#2F54EB"/>
<g filter="url(#filter2_dd_1896_2066)">
<circle cx="476" cy="334" r="8" fill="white"/>
</g>
</g>
<g clip-path="url(#clip3_1896_2066)">
<path d="M450 374C450 368.477 454.477 364 460 364H476C481.523 364 486 368.477 486 374C486 379.523 481.523 384 476 384H460C454.477 384 450 379.523 450 374Z" fill="#1D39C4"/>
<g filter="url(#filter3_dd_1896_2066)">
<circle cx="476" cy="374" r="8" fill="white"/>
</g>
</g>
<g clip-path="url(#clip4_1896_2066)">
<path d="M610 296C610 289.373 615.373 284 622 284H642C648.627 284 654 289.373 654 296C654 302.627 648.627 308 642 308H622C615.373 308 610 302.627 610 296Z" fill="#299D91"/>
<g filter="url(#filter4_dd_1896_2066)">
<circle cx="642" cy="296" r="10" fill="white"/>
</g>
</g>
<g clip-path="url(#clip5_1896_2066)">
<path d="M450 294C450 288.477 454.477 284 460 284H476C481.523 284 486 288.477 486 294C486 299.523 481.523 304 476 304H460C454.477 304 450 299.523 450 294Z" fill="#299D91"/>
<g filter="url(#filter5_dd_1896_2066)">
<circle cx="476" cy="294" r="8" fill="white"/>
</g>
</g>
<g clip-path="url(#clip6_1896_2066)">
<path d="M610 456C610 449.373 615.373 444 622 444H642C648.627 444 654 449.373 654 456C654 462.627 648.627 468 642 468H622C615.373 468 610 462.627 610 456Z" fill="#F6F6F6"/>
<g filter="url(#filter6_dd_1896_2066)">
<circle cx="642" cy="456" r="10" fill="#F6F6F6"/>
</g>
</g>
<g clip-path="url(#clip7_1896_2066)">
<path d="M450 454C450 448.477 454.477 444 460 444H476C481.523 444 486 448.477 486 454C486 459.523 481.523 464 476 464H460C454.477 464 450 459.523 450 454Z" fill="#F6F6F6"/>
<g filter="url(#filter7_dd_1896_2066)">
<circle cx="476" cy="454" r="8" fill="#F6F6F6"/>
</g>
</g>
<g clip-path="url(#clip8_1896_2066)">
<path d="M534 336C534 329.373 539.373 324 546 324H566C572.627 324 578 329.373 578 336C578 342.627 572.627 348 566 348H546C539.373 348 534 342.627 534 336Z" fill="#D0D0D0"/>
<g filter="url(#filter8_dd_1896_2066)">
<circle cx="546" cy="336" r="10" fill="white"/>
</g>
</g>
<g clip-path="url(#clip9_1896_2066)">
<path d="M534 376C534 369.373 539.373 364 546 364H566C572.627 364 578 369.373 578 376C578 382.627 572.627 388 566 388H546C539.373 388 534 382.627 534 376Z" fill="#E8E8E8"/>
<g filter="url(#filter9_dd_1896_2066)">
<circle cx="546" cy="376" r="10" fill="white"/>
</g>
</g>
<g clip-path="url(#clip10_1896_2066)">
<path d="M390 334C390 328.477 394.477 324 400 324H416C421.523 324 426 328.477 426 334C426 339.523 421.523 344 416 344H400C394.477 344 390 339.523 390 334Z" fill="#D0D0D0"/>
<g filter="url(#filter10_dd_1896_2066)">
<circle cx="400" cy="334" r="8" fill="white"/>
</g>
</g>
<g clip-path="url(#clip11_1896_2066)">
<path d="M390 374C390 368.477 394.477 364 400 364H416C421.523 364 426 368.477 426 374C426 379.523 421.523 384 416 384H400C394.477 384 390 379.523 390 374Z" fill="#E8E8E8"/>
<g filter="url(#filter11_dd_1896_2066)">
<circle cx="400" cy="374" r="8" fill="white"/>
</g>
</g>
<g clip-path="url(#clip12_1896_2066)">
<path d="M534 296C534 289.373 539.373 284 546 284H566C572.627 284 578 289.373 578 296C578 302.627 572.627 308 566 308H546C539.373 308 534 302.627 534 296Z" fill="#E8E8E8"/>
<g filter="url(#filter12_dd_1896_2066)">
<circle cx="546" cy="296" r="10" fill="white"/>
</g>
</g>
<g clip-path="url(#clip13_1896_2066)">
<path d="M390 294C390 288.477 394.477 284 400 284H416C421.523 284 426 288.477 426 294C426 299.523 421.523 304 416 304H400C394.477 304 390 299.523 390 294Z" fill="#E8E8E8"/>
<g filter="url(#filter13_dd_1896_2066)">
<circle cx="400" cy="294" r="8" fill="white"/>
</g>
</g>
<g clip-path="url(#clip14_1896_2066)">
<path d="M534 456C534 449.373 539.373 444 546 444H566C572.627 444 578 449.373 578 456C578 462.627 572.627 468 566 468H546C539.373 468 534 462.627 534 456Z" fill="#F6F6F6"/>
<g filter="url(#filter14_dd_1896_2066)">
<circle cx="546" cy="456" r="10" fill="#F6F6F6"/>
</g>
</g>
<g clip-path="url(#clip15_1896_2066)">
<path d="M390 454C390 448.477 394.477 444 400 444H416C421.523 444 426 448.477 426 454C426 459.523 421.523 464 416 464H400C394.477 464 390 459.523 390 454Z" fill="#F6F6F6"/>
<g filter="url(#filter15_dd_1896_2066)">
<circle cx="400" cy="454" r="8" fill="#F6F6F6"/>
</g>
</g>
<path d="M476 402.5C482.351 402.5 487.5 407.649 487.5 414C487.5 420.351 482.351 425.5 476 425.5H460C453.649 425.5 448.5 420.351 448.5 414C448.5 407.649 453.649 402.5 460 402.5H476Z" stroke="#F0F5FF" stroke-width="3"/>
<g clip-path="url(#clip16_1896_2066)">
<path d="M450 414C450 408.477 454.477 404 460 404H476C481.523 404 486 408.477 486 414C486 419.523 481.523 424 476 424H460C454.477 424 450 419.523 450 414Z" fill="#2F54EB"/>
<g filter="url(#filter16_dd_1896_2066)">
<circle cx="476" cy="414" r="8" fill="white"/>
</g>
</g>
<path d="M416 402.5C422.351 402.5 427.5 407.649 427.5 414C427.5 420.351 422.351 425.5 416 425.5H400C393.649 425.5 388.5 420.351 388.5 414C388.5 407.649 393.649 402.5 400 402.5H416Z" stroke="#F0F5FF" stroke-width="3"/>
<g clip-path="url(#clip17_1896_2066)">
<path d="M390 414C390 408.477 394.477 404 400 404H416C421.523 404 426 408.477 426 414C426 419.523 421.523 424 416 424H400C394.477 424 390 419.523 390 414Z" fill="#E8E8E8"/>
<g filter="url(#filter17_dd_1896_2066)">
<circle cx="400" cy="414" r="8" fill="white"/>
</g>
</g>
<path d="M642 402.5C649.456 402.5 655.5 408.544 655.5 416C655.5 423.456 649.456 429.5 642 429.5H622C614.544 429.5 608.5 423.456 608.5 416C608.5 408.544 614.544 402.5 622 402.5H642Z" stroke="#F0F5FF" stroke-width="3"/>
<g clip-path="url(#clip18_1896_2066)">
<path d="M610 416C610 409.373 615.373 404 622 404H642C648.627 404 654 409.373 654 416C654 422.627 648.627 428 642 428H622C615.373 428 610 422.627 610 416Z" fill="#2F54EB"/>
<g filter="url(#filter18_dd_1896_2066)">
<circle cx="642" cy="416" r="10" fill="white"/>
</g>
</g>
<path d="M566 402.5C573.456 402.5 579.5 408.544 579.5 416C579.5 423.456 573.456 429.5 566 429.5H546C538.544 429.5 532.5 423.456 532.5 416C532.5 408.544 538.544 402.5 546 402.5H566Z" stroke="#F0F5FF" stroke-width="3"/>
<g clip-path="url(#clip19_1896_2066)">
<path d="M534 416C534 409.373 539.373 404 546 404H566C572.627 404 578 409.373 578 416C578 422.627 572.627 428 566 428H546C539.373 428 534 422.627 534 416Z" fill="#E8E8E8"/>
<g filter="url(#filter19_dd_1896_2066)">
<circle cx="546" cy="416" r="10" fill="white"/>
</g>
</g>
<g opacity="0.5">
<path d="M434.814 75.182C434.31 75.182 433.862 75.126 433.47 75.014C433.078 74.9113 432.751 74.762 432.49 74.566C432.228 74.3607 432.028 74.118 431.888 73.838C431.748 73.558 431.673 73.25 431.664 72.914L432.742 72.634C432.723 72.942 432.798 73.2127 432.966 73.446C433.143 73.67 433.39 73.8427 433.708 73.964C434.034 74.0853 434.426 74.146 434.884 74.146C435.434 74.146 435.859 74.0527 436.158 73.866C436.466 73.6793 436.62 73.4227 436.62 73.096C436.62 72.8347 436.536 72.634 436.368 72.494C436.2 72.3447 435.966 72.228 435.668 72.144C435.378 72.0507 435.033 71.9667 434.632 71.892C434.296 71.8173 433.96 71.7333 433.624 71.64C433.288 71.5467 432.98 71.4253 432.7 71.276C432.429 71.1173 432.21 70.912 432.042 70.66C431.874 70.408 431.79 70.0953 431.79 69.722C431.79 69.2833 431.906 68.9053 432.14 68.588C432.373 68.2707 432.704 68.0233 433.134 67.846C433.563 67.6687 434.076 67.58 434.674 67.58C435.271 67.58 435.78 67.6733 436.2 67.86C436.62 68.0373 436.951 68.2893 437.194 68.616C437.436 68.9427 437.572 69.3253 437.6 69.764L436.494 70.044C436.484 69.736 436.4 69.4747 436.242 69.26C436.092 69.0453 435.878 68.8867 435.598 68.784C435.318 68.672 434.991 68.616 434.618 68.616C434.123 68.616 433.731 68.7093 433.442 68.896C433.152 69.0827 433.008 69.3393 433.008 69.666C433.008 69.9087 433.092 70.1047 433.26 70.254C433.437 70.4033 433.675 70.52 433.974 70.604C434.272 70.688 434.604 70.772 434.968 70.856C435.341 70.9307 435.696 71.0147 436.032 71.108C436.377 71.2013 436.685 71.3227 436.956 71.472C437.226 71.6213 437.441 71.822 437.6 72.074C437.758 72.3167 437.838 72.6293 437.838 73.012C437.838 73.488 437.712 73.8893 437.46 74.216C437.208 74.5333 436.853 74.776 436.396 74.944C435.948 75.1027 435.42 75.182 434.814 75.182ZM439.563 75V70.52V67.762H440.697L440.571 70.058H440.809C440.93 69.5073 441.094 69.05 441.299 68.686C441.504 68.3127 441.756 68.0373 442.055 67.86C442.363 67.6733 442.713 67.58 443.105 67.58C443.572 67.58 443.954 67.6967 444.253 67.93C444.552 68.154 444.771 68.448 444.911 68.812C445.06 69.176 445.135 69.5773 445.135 70.016H445.359C445.462 69.4933 445.62 69.05 445.835 68.686C446.05 68.322 446.316 68.0467 446.633 67.86C446.95 67.6733 447.314 67.58 447.725 67.58C448.098 67.58 448.425 67.6547 448.705 67.804C448.985 67.9533 449.223 68.1773 449.419 68.476C449.615 68.7653 449.76 69.1247 449.853 69.554C449.946 69.9833 449.993 70.478 449.993 71.038V75H448.719V71.206C448.719 70.6553 448.668 70.198 448.565 69.834C448.462 69.4607 448.308 69.1853 448.103 69.008C447.907 68.8213 447.655 68.728 447.347 68.728C447.002 68.728 446.689 68.8493 446.409 69.092C446.138 69.3253 445.914 69.6567 445.737 70.086C445.569 70.506 445.457 70.9867 445.401 71.528V75H444.155V71.332C444.155 70.7533 444.104 70.2727 444.001 69.89C443.898 69.5073 443.744 69.218 443.539 69.022C443.343 68.826 443.086 68.728 442.769 68.728C442.396 68.728 442.074 68.8587 441.803 69.12C441.532 69.372 441.313 69.7127 441.145 70.142C440.986 70.5713 440.884 71.052 440.837 71.584V75H439.563Z" fill="#9254DE"/>
<path d="M587.295 75V65.2H588.569V75H587.295ZM593.47 77.45C592.705 77.45 592.075 77.3893 591.58 77.268C591.095 77.156 590.735 76.9787 590.502 76.736C590.269 76.5027 590.152 76.2087 590.152 75.854C590.152 75.4247 590.32 75.07 590.656 74.79C590.992 74.51 591.501 74.3233 592.182 74.23V73.978C591.687 73.978 591.314 73.9173 591.062 73.796C590.81 73.6747 590.684 73.4927 590.684 73.25C590.684 72.998 590.81 72.788 591.062 72.62C591.314 72.4427 591.725 72.2793 592.294 72.13V71.864C591.725 71.8547 591.291 71.6867 590.992 71.36C590.693 71.024 590.544 70.59 590.544 70.058C590.544 69.582 590.67 69.1713 590.922 68.826C591.183 68.4713 591.557 68.2007 592.042 68.014C592.537 67.818 593.125 67.72 593.806 67.72H597.222V68.798L594.982 68.448V68.714C595.523 68.826 595.939 69.0173 596.228 69.288C596.517 69.5493 596.662 69.904 596.662 70.352C596.662 70.7533 596.545 71.1033 596.312 71.402C596.079 71.7007 595.733 71.934 595.276 72.102C594.828 72.2607 594.273 72.34 593.61 72.34C593.479 72.34 593.339 72.3353 593.19 72.326C593.05 72.3073 592.863 72.2793 592.63 72.242C592.378 72.4007 592.173 72.5453 592.014 72.676C591.865 72.8067 591.79 72.9233 591.79 73.026C591.79 73.1287 591.86 73.2127 592 73.278C592.149 73.334 592.327 73.3713 592.532 73.39C592.737 73.4087 592.929 73.418 593.106 73.418H594.744C594.931 73.418 595.164 73.4367 595.444 73.474C595.733 73.5113 596.018 73.5907 596.298 73.712C596.587 73.8333 596.83 74.02 597.026 74.272C597.222 74.524 597.32 74.874 597.32 75.322C597.32 75.826 597.171 76.2367 596.872 76.554C596.573 76.8713 596.139 77.1 595.57 77.24C595.001 77.38 594.301 77.45 593.47 77.45ZM593.498 76.4C594.123 76.4 594.627 76.358 595.01 76.274C595.402 76.1993 595.687 76.078 595.864 75.91C596.051 75.742 596.144 75.5273 596.144 75.266C596.144 75.0233 596.079 74.8367 595.948 74.706C595.827 74.566 595.673 74.468 595.486 74.412C595.299 74.356 595.113 74.3233 594.926 74.314C594.739 74.2953 594.581 74.286 594.45 74.286H592.812C592.271 74.4073 591.897 74.5753 591.692 74.79C591.487 75.0047 591.384 75.2333 591.384 75.476C591.384 75.7373 591.477 75.9333 591.664 76.064C591.851 76.1947 592.103 76.2833 592.42 76.33C592.747 76.3767 593.106 76.4 593.498 76.4ZM593.666 71.514C594.254 71.514 594.697 71.3927 594.996 71.15C595.295 70.9073 595.444 70.5807 595.444 70.17C595.444 69.7313 595.29 69.372 594.982 69.092C594.683 68.8027 594.231 68.658 593.624 68.658C593.036 68.658 592.583 68.7933 592.266 69.064C591.958 69.3347 591.804 69.6847 591.804 70.114C591.804 70.394 591.874 70.6413 592.014 70.856C592.163 71.0613 592.373 71.2247 592.644 71.346C592.924 71.458 593.265 71.514 593.666 71.514Z" fill="#9254DE"/>
<path d="M506.742 29.182C506.135 29.182 505.594 29.1213 505.118 29C504.642 28.888 504.236 28.7107 503.9 28.468C503.573 28.216 503.321 27.9127 503.144 27.558C502.967 27.194 502.873 26.7693 502.864 26.284L504.432 25.822C504.423 26.27 504.516 26.6433 504.712 26.942C504.908 27.2313 505.188 27.446 505.552 27.586C505.925 27.726 506.35 27.796 506.826 27.796C507.283 27.796 507.666 27.74 507.974 27.628C508.291 27.516 508.529 27.3667 508.688 27.18C508.847 26.984 508.926 26.7647 508.926 26.522C508.926 26.2513 508.828 26.0367 508.632 25.878C508.436 25.71 508.17 25.5747 507.834 25.472C507.507 25.36 507.134 25.2573 506.714 25.164C506.257 25.0613 505.809 24.9493 505.37 24.828C504.941 24.7067 504.549 24.5433 504.194 24.338C503.839 24.1327 503.555 23.8713 503.34 23.554C503.135 23.2273 503.032 22.8167 503.032 22.322C503.032 21.762 503.172 21.2813 503.452 20.88C503.732 20.4693 504.138 20.152 504.67 19.928C505.211 19.6947 505.855 19.578 506.602 19.578C507.339 19.578 507.983 19.69 508.534 19.914C509.085 20.1287 509.514 20.446 509.822 20.866C510.13 21.286 510.293 21.7807 510.312 22.35L508.702 22.798C508.702 22.49 508.651 22.224 508.548 22C508.455 21.7667 508.315 21.5753 508.128 21.426C507.941 21.2673 507.717 21.1507 507.456 21.076C507.204 21.0013 506.915 20.964 506.588 20.964C506.205 20.964 505.869 21.0153 505.58 21.118C505.3 21.2207 505.085 21.3653 504.936 21.552C504.787 21.7293 504.712 21.9393 504.712 22.182C504.712 22.4807 504.824 22.7187 505.048 22.896C505.272 23.0733 505.566 23.218 505.93 23.33C506.303 23.4327 506.709 23.5353 507.148 23.638C507.549 23.722 507.951 23.8247 508.352 23.946C508.763 24.0673 509.141 24.226 509.486 24.422C509.831 24.618 510.107 24.884 510.312 25.22C510.527 25.5467 510.634 25.962 510.634 26.466C510.634 27.0073 510.489 27.4833 510.2 27.894C509.911 28.3047 509.477 28.622 508.898 28.846C508.319 29.07 507.601 29.182 506.742 29.182ZM512.265 29V21.678H514.029V29H512.265ZM513.147 20.53C512.792 20.53 512.517 20.4553 512.321 20.306C512.134 20.1473 512.041 19.9233 512.041 19.634C512.041 19.3447 512.134 19.1253 512.321 18.976C512.517 18.8173 512.792 18.738 513.147 18.738C513.52 18.738 513.8 18.8127 513.987 18.962C514.173 19.1113 514.267 19.3353 514.267 19.634C514.267 19.9233 514.169 20.1473 513.973 20.306C513.786 20.4553 513.511 20.53 513.147 20.53ZM515.507 29V27.488L519.399 23.316V23.12H515.563V21.678H521.667V23.162L517.719 27.362V27.544H521.695V29H515.507ZM526.397 29.182C525.809 29.182 525.281 29.098 524.815 28.93C524.357 28.762 523.97 28.5193 523.653 28.202C523.335 27.8753 523.093 27.4833 522.925 27.026C522.757 26.5687 522.673 26.0507 522.673 25.472C522.673 24.8933 522.752 24.3613 522.911 23.876C523.079 23.3907 523.317 22.9707 523.625 22.616C523.933 22.2613 524.306 21.986 524.745 21.79C525.193 21.594 525.701 21.496 526.271 21.496C526.803 21.496 527.279 21.5847 527.699 21.762C528.119 21.9393 528.473 22.2053 528.763 22.56C529.052 22.9053 529.267 23.3393 529.407 23.862C529.547 24.3753 529.593 24.9727 529.547 25.654L523.821 25.696V24.674L528.525 24.632L527.909 25.206C527.965 24.674 527.923 24.24 527.783 23.904C527.643 23.5587 527.442 23.3067 527.181 23.148C526.919 22.98 526.621 22.896 526.285 22.896C525.902 22.896 525.566 22.9987 525.277 23.204C524.987 23.4 524.763 23.6893 524.605 24.072C524.455 24.4453 524.381 24.9027 524.381 25.444C524.381 26.256 524.558 26.8627 524.913 27.264C525.277 27.6653 525.771 27.866 526.397 27.866C526.677 27.866 526.91 27.8333 527.097 27.768C527.293 27.6933 527.456 27.6 527.587 27.488C527.717 27.3667 527.82 27.2313 527.895 27.082C527.979 26.9327 528.044 26.774 528.091 26.606L529.631 26.956C529.556 27.3013 529.435 27.6093 529.267 27.88C529.099 28.1507 528.879 28.384 528.609 28.58C528.347 28.776 528.035 28.9253 527.671 29.028C527.307 29.1307 526.882 29.182 526.397 29.182ZM534.083 29.182C533.588 29.182 533.14 29.1307 532.739 29.028C532.347 28.9347 532.011 28.7993 531.731 28.622C531.451 28.4353 531.227 28.216 531.059 27.964C530.891 27.7027 530.788 27.4133 530.751 27.096L532.137 26.578C532.156 26.8207 532.249 27.04 532.417 27.236C532.585 27.4227 532.818 27.572 533.117 27.684C533.416 27.796 533.775 27.852 534.195 27.852C534.662 27.852 535.021 27.782 535.273 27.642C535.534 27.4927 535.665 27.2827 535.665 27.012C535.665 26.816 535.595 26.662 535.455 26.55C535.315 26.4287 535.11 26.3307 534.839 26.256C534.578 26.172 534.26 26.0927 533.887 26.018C533.542 25.9433 533.192 25.8593 532.837 25.766C532.492 25.6633 532.17 25.5327 531.871 25.374C531.582 25.206 531.344 24.9913 531.157 24.73C530.98 24.4593 530.891 24.1187 530.891 23.708C530.891 23.26 531.008 22.8727 531.241 22.546C531.484 22.2193 531.829 21.9627 532.277 21.776C532.734 21.5893 533.285 21.496 533.929 21.496C534.536 21.496 535.058 21.58 535.497 21.748C535.945 21.916 536.309 22.1587 536.589 22.476C536.869 22.784 537.046 23.1527 537.121 23.582L535.665 24.044C535.637 23.7827 535.548 23.5633 535.399 23.386C535.25 23.1993 535.049 23.0593 534.797 22.966C534.545 22.8727 534.251 22.826 533.915 22.826C533.486 22.826 533.15 22.9007 532.907 23.05C532.664 23.1993 532.543 23.4 532.543 23.652C532.543 23.8573 532.618 24.0207 532.767 24.142C532.926 24.2633 533.14 24.3613 533.411 24.436C533.691 24.5107 534.008 24.5853 534.363 24.66C534.736 24.7347 535.096 24.8233 535.441 24.926C535.796 25.0193 536.113 25.1453 536.393 25.304C536.673 25.4627 536.897 25.6727 537.065 25.934C537.233 26.186 537.317 26.5127 537.317 26.914C537.317 27.3993 537.186 27.8147 536.925 28.16C536.664 28.496 536.29 28.7527 535.805 28.93C535.329 29.098 534.755 29.182 534.083 29.182Z" fill="#9254DE"/>
<path d="M408 265V180.373V146.06C408 141.642 411.582 138.06 416 138.06H438M468 265V146.06C468 141.642 464.418 138.06 460 138.06H438M556 265V180.373V146.06C556 141.642 559.582 138.06 564 138.06H594M632 265V146.06C632 141.642 628.418 138.06 624 138.06H594M438 138.06V103.747C438 99.3288 441.582 95.7471 446 95.7471H468H556H586C590.418 95.7471 594 99.3288 594 103.747V138.06" stroke="#9254DE" stroke-width="2"/>
<path d="M159.453 338V328.76H160.741V338H159.453ZM153.321 338V328.76H154.609V338H153.321ZM153.965 333.828V332.722H159.971V333.828H153.965ZM166.148 338.182C165.457 338.182 164.846 338.033 164.314 337.734C163.791 337.426 163.38 336.987 163.082 336.418C162.792 335.849 162.648 335.158 162.648 334.346C162.648 333.506 162.802 332.811 163.11 332.26C163.427 331.7 163.847 331.28 164.37 331C164.892 330.72 165.476 330.58 166.12 330.58C166.792 330.58 167.389 330.729 167.912 331.028C168.444 331.317 168.864 331.747 169.172 332.316C169.48 332.876 169.634 333.571 169.634 334.402C169.634 335.233 169.48 335.928 169.172 336.488C168.873 337.048 168.458 337.473 167.926 337.762C167.403 338.042 166.81 338.182 166.148 338.182ZM166.204 337.132C166.652 337.132 167.034 337.025 167.352 336.81C167.678 336.586 167.926 336.273 168.094 335.872C168.271 335.471 168.36 334.995 168.36 334.444C168.36 333.875 168.266 333.385 168.08 332.974C167.902 332.554 167.646 332.232 167.31 332.008C166.974 331.775 166.568 331.658 166.092 331.658C165.662 331.658 165.284 331.761 164.958 331.966C164.631 332.171 164.379 332.475 164.202 332.876C164.024 333.268 163.936 333.749 163.936 334.318C163.936 335.195 164.136 335.886 164.538 336.39C164.948 336.885 165.504 337.132 166.204 337.132ZM173.047 338L170.457 330.776H171.871L173.845 336.922H174.041L176.001 330.776H177.387L174.811 338H173.047ZM181.72 338.182C181.151 338.182 180.647 338.098 180.208 337.93C179.779 337.753 179.415 337.501 179.116 337.174C178.817 336.847 178.593 336.46 178.444 336.012C178.295 335.564 178.22 335.06 178.22 334.5C178.22 333.931 178.295 333.408 178.444 332.932C178.593 332.456 178.813 332.041 179.102 331.686C179.391 331.331 179.746 331.061 180.166 330.874C180.586 330.678 181.067 330.58 181.608 330.58C182.084 330.58 182.518 330.659 182.91 330.818C183.302 330.977 183.633 331.224 183.904 331.56C184.184 331.887 184.394 332.302 184.534 332.806C184.674 333.301 184.73 333.884 184.702 334.556L179.018 334.598V333.73L183.932 333.688L183.498 334.276C183.545 333.688 183.489 333.203 183.33 332.82C183.171 332.437 182.943 332.148 182.644 331.952C182.355 331.756 182.009 331.658 181.608 331.658C181.179 331.658 180.801 331.77 180.474 331.994C180.147 332.218 179.895 332.54 179.718 332.96C179.55 333.38 179.466 333.889 179.466 334.486C179.466 335.345 179.657 336.003 180.04 336.46C180.423 336.908 180.992 337.132 181.748 337.132C182.037 337.132 182.289 337.099 182.504 337.034C182.728 336.959 182.915 336.861 183.064 336.74C183.223 336.609 183.349 336.46 183.442 336.292C183.545 336.124 183.624 335.942 183.68 335.746L184.8 336.012C184.716 336.348 184.585 336.651 184.408 336.922C184.24 337.183 184.025 337.407 183.764 337.594C183.512 337.781 183.218 337.925 182.882 338.028C182.546 338.131 182.159 338.182 181.72 338.182ZM186.514 338V334.08V330.762H187.662L187.55 333.282H187.788C187.872 332.731 188.003 332.255 188.18 331.854C188.358 331.453 188.591 331.14 188.88 330.916C189.179 330.692 189.548 330.58 189.986 330.58C190.08 330.58 190.187 330.589 190.308 330.608C190.43 330.617 190.57 330.65 190.728 330.706L190.658 332.036C190.518 331.98 190.378 331.943 190.238 331.924C190.098 331.896 189.963 331.882 189.832 331.882C189.468 331.882 189.151 331.999 188.88 332.232C188.619 332.465 188.4 332.783 188.222 333.184C188.045 333.576 187.9 334.019 187.788 334.514V338H186.514Z" fill="#9254DE"/>
<path d="M164.473 377.182C163.811 377.182 163.213 377.079 162.681 376.874C162.159 376.669 161.715 376.365 161.351 375.964C160.987 375.563 160.707 375.073 160.511 374.494C160.325 373.906 160.231 373.239 160.231 372.492C160.231 371.736 160.329 371.059 160.525 370.462C160.721 369.855 161.001 369.337 161.365 368.908C161.729 368.479 162.168 368.152 162.681 367.928C163.195 367.695 163.769 367.578 164.403 367.578C164.889 367.578 165.337 367.648 165.747 367.788C166.158 367.919 166.513 368.115 166.811 368.376C167.119 368.628 167.357 368.936 167.525 369.3C167.693 369.664 167.782 370.07 167.791 370.518L166.573 370.826C166.583 370.35 166.485 369.958 166.279 369.65C166.074 369.333 165.803 369.095 165.467 368.936C165.131 368.777 164.767 368.698 164.375 368.698C164.011 368.698 163.657 368.773 163.311 368.922C162.975 369.062 162.677 369.286 162.415 369.594C162.154 369.893 161.944 370.28 161.785 370.756C161.636 371.223 161.561 371.787 161.561 372.45C161.561 373.299 161.683 373.985 161.925 374.508C162.177 375.031 162.527 375.418 162.975 375.67C163.423 375.913 163.941 376.034 164.529 376.034C165.099 376.034 165.556 375.931 165.901 375.726C166.247 375.511 166.503 375.217 166.671 374.844C166.839 374.461 166.937 374.023 166.965 373.528L168.113 373.738C168.104 374.205 168.029 374.648 167.889 375.068C167.749 375.488 167.535 375.857 167.245 376.174C166.956 376.491 166.583 376.739 166.125 376.916C165.668 377.093 165.117 377.182 164.473 377.182ZM169.807 377V367.2H171.081V377H169.807ZM173.294 377V369.762H174.568V377H173.294ZM173.938 368.502C173.639 368.502 173.415 368.441 173.266 368.32C173.116 368.199 173.042 368.017 173.042 367.774C173.042 367.531 173.116 367.349 173.266 367.228C173.415 367.107 173.634 367.046 173.924 367.046C174.222 367.046 174.446 367.107 174.596 367.228C174.745 367.349 174.82 367.531 174.82 367.774C174.82 368.007 174.745 368.189 174.596 368.32C174.446 368.441 174.227 368.502 173.938 368.502ZM179.888 377.182C179.253 377.182 178.712 377.079 178.264 376.874C177.825 376.669 177.466 376.393 177.186 376.048C176.915 375.703 176.714 375.306 176.584 374.858C176.462 374.41 176.402 373.943 176.402 373.458C176.402 372.926 176.472 372.427 176.612 371.96C176.752 371.493 176.962 371.083 177.242 370.728C177.531 370.364 177.886 370.084 178.306 369.888C178.735 369.683 179.234 369.58 179.804 369.58C180.354 369.58 180.84 369.678 181.26 369.874C181.68 370.061 182.02 370.327 182.282 370.672C182.552 371.017 182.725 371.428 182.8 371.904L181.582 372.24C181.563 371.979 181.484 371.727 181.344 371.484C181.213 371.241 181.017 371.045 180.756 370.896C180.494 370.737 180.172 370.658 179.79 370.658C179.426 370.658 179.113 370.728 178.852 370.868C178.6 371.008 178.385 371.204 178.208 371.456C178.04 371.708 177.909 372.002 177.816 372.338C177.732 372.674 177.69 373.038 177.69 373.43C177.69 373.971 177.764 374.443 177.914 374.844C178.072 375.245 178.315 375.558 178.642 375.782C178.968 376.006 179.388 376.118 179.902 376.118C180.284 376.118 180.611 376.053 180.882 375.922C181.152 375.782 181.367 375.591 181.526 375.348C181.684 375.096 181.787 374.802 181.834 374.466L183.01 374.732C182.944 375.133 182.823 375.488 182.646 375.796C182.468 376.104 182.244 376.361 181.974 376.566C181.703 376.762 181.39 376.911 181.036 377.014C180.69 377.126 180.308 377.182 179.888 377.182ZM184.463 377V367.2H185.737V372.786C186.101 372.59 186.451 372.366 186.787 372.114C187.123 371.862 187.436 371.596 187.725 371.316C188.015 371.036 188.262 370.761 188.467 370.49C188.682 370.219 188.845 369.977 188.957 369.762H190.455C190.278 370.107 190.049 370.457 189.769 370.812C189.499 371.157 189.195 371.484 188.859 371.792C188.523 372.091 188.169 372.347 187.795 372.562C187.431 372.777 187.058 372.931 186.675 373.024V373.192C187.142 373.155 187.553 373.211 187.907 373.36C188.262 373.509 188.575 373.724 188.845 374.004C189.125 374.284 189.382 374.606 189.615 374.97C189.849 375.325 190.073 375.703 190.287 376.104L190.721 377H189.279L188.971 376.356C188.719 375.88 188.463 375.451 188.201 375.068C187.94 374.676 187.641 374.368 187.305 374.144C186.969 373.92 186.568 373.808 186.101 373.808H185.737V377H184.463Z" fill="#9254DE"/>
<path d="M152.679 417V407.76H153.967V417H152.679ZM153.183 413.038V411.932H158.489V413.038H153.183ZM153.183 408.894V407.76H159.091V408.894H153.183ZM163.482 417.182C162.791 417.182 162.18 417.033 161.648 416.734C161.125 416.426 160.714 415.987 160.416 415.418C160.126 414.849 159.982 414.158 159.982 413.346C159.982 412.506 160.136 411.811 160.444 411.26C160.761 410.7 161.181 410.28 161.704 410C162.226 409.72 162.81 409.58 163.454 409.58C164.126 409.58 164.723 409.729 165.246 410.028C165.778 410.317 166.198 410.747 166.506 411.316C166.814 411.876 166.968 412.571 166.968 413.402C166.968 414.233 166.814 414.928 166.506 415.488C166.207 416.048 165.792 416.473 165.26 416.762C164.737 417.042 164.144 417.182 163.482 417.182ZM163.538 416.132C163.986 416.132 164.368 416.025 164.686 415.81C165.012 415.586 165.26 415.273 165.428 414.872C165.605 414.471 165.694 413.995 165.694 413.444C165.694 412.875 165.6 412.385 165.414 411.974C165.236 411.554 164.98 411.232 164.644 411.008C164.308 410.775 163.902 410.658 163.426 410.658C162.996 410.658 162.618 410.761 162.292 410.966C161.965 411.171 161.713 411.475 161.536 411.876C161.358 412.268 161.27 412.749 161.27 413.318C161.27 414.195 161.47 414.886 161.872 415.39C162.282 415.885 162.838 416.132 163.538 416.132ZM171.89 417.182C171.255 417.182 170.714 417.079 170.266 416.874C169.827 416.669 169.468 416.393 169.188 416.048C168.917 415.703 168.716 415.306 168.586 414.858C168.464 414.41 168.404 413.943 168.404 413.458C168.404 412.926 168.474 412.427 168.614 411.96C168.754 411.493 168.964 411.083 169.244 410.728C169.533 410.364 169.888 410.084 170.308 409.888C170.737 409.683 171.236 409.58 171.806 409.58C172.356 409.58 172.842 409.678 173.262 409.874C173.682 410.061 174.022 410.327 174.284 410.672C174.554 411.017 174.727 411.428 174.802 411.904L173.584 412.24C173.565 411.979 173.486 411.727 173.346 411.484C173.215 411.241 173.019 411.045 172.758 410.896C172.496 410.737 172.174 410.658 171.792 410.658C171.428 410.658 171.115 410.728 170.854 410.868C170.602 411.008 170.387 411.204 170.21 411.456C170.042 411.708 169.911 412.002 169.818 412.338C169.734 412.674 169.692 413.038 169.692 413.43C169.692 413.971 169.766 414.443 169.916 414.844C170.074 415.245 170.317 415.558 170.644 415.782C170.97 416.006 171.39 416.118 171.904 416.118C172.286 416.118 172.613 416.053 172.884 415.922C173.154 415.782 173.369 415.591 173.528 415.348C173.686 415.096 173.789 414.802 173.836 414.466L175.012 414.732C174.946 415.133 174.825 415.488 174.648 415.796C174.47 416.104 174.246 416.361 173.976 416.566C173.705 416.762 173.392 416.911 173.038 417.014C172.692 417.126 172.31 417.182 171.89 417.182ZM178.789 417.182C177.987 417.182 177.38 416.902 176.969 416.342C176.559 415.782 176.353 414.947 176.353 413.836V409.762H177.641V413.724C177.641 414.508 177.763 415.091 178.005 415.474C178.248 415.857 178.631 416.048 179.153 416.048C179.443 416.048 179.699 415.978 179.923 415.838C180.157 415.698 180.362 415.497 180.539 415.236C180.717 414.975 180.861 414.667 180.973 414.312C181.085 413.948 181.16 413.556 181.197 413.136V409.762H182.471V413.976V417H181.337L181.449 414.676H181.239C181.118 415.255 180.945 415.731 180.721 416.104C180.507 416.468 180.236 416.739 179.909 416.916C179.583 417.093 179.209 417.182 178.789 417.182ZM187.37 417.182C186.866 417.182 186.418 417.126 186.026 417.014C185.634 416.911 185.308 416.762 185.046 416.566C184.785 416.361 184.584 416.118 184.444 415.838C184.304 415.558 184.23 415.25 184.22 414.914L185.298 414.634C185.28 414.942 185.354 415.213 185.522 415.446C185.7 415.67 185.947 415.843 186.264 415.964C186.591 416.085 186.983 416.146 187.44 416.146C187.991 416.146 188.416 416.053 188.714 415.866C189.022 415.679 189.176 415.423 189.176 415.096C189.176 414.835 189.092 414.634 188.924 414.494C188.756 414.345 188.523 414.228 188.224 414.144C187.935 414.051 187.59 413.967 187.188 413.892C186.852 413.817 186.516 413.733 186.18 413.64C185.844 413.547 185.536 413.425 185.256 413.276C184.986 413.117 184.766 412.912 184.598 412.66C184.43 412.408 184.346 412.095 184.346 411.722C184.346 411.283 184.463 410.905 184.696 410.588C184.93 410.271 185.261 410.023 185.69 409.846C186.12 409.669 186.633 409.58 187.23 409.58C187.828 409.58 188.336 409.673 188.756 409.86C189.176 410.037 189.508 410.289 189.75 410.616C189.993 410.943 190.128 411.325 190.156 411.764L189.05 412.044C189.041 411.736 188.957 411.475 188.798 411.26C188.649 411.045 188.434 410.887 188.154 410.784C187.874 410.672 187.548 410.616 187.174 410.616C186.68 410.616 186.288 410.709 185.998 410.896C185.709 411.083 185.564 411.339 185.564 411.666C185.564 411.909 185.648 412.105 185.816 412.254C185.994 412.403 186.232 412.52 186.53 412.604C186.829 412.688 187.16 412.772 187.524 412.856C187.898 412.931 188.252 413.015 188.588 413.108C188.934 413.201 189.242 413.323 189.512 413.472C189.783 413.621 189.998 413.822 190.156 414.074C190.315 414.317 190.394 414.629 190.394 415.012C190.394 415.488 190.268 415.889 190.016 416.216C189.764 416.533 189.41 416.776 188.952 416.944C188.504 417.103 187.977 417.182 187.37 417.182Z" fill="#9254DE"/>
<path d="M136.015 454V452.894H138.745C139.38 452.894 139.902 452.749 140.313 452.46C140.724 452.161 141.027 451.751 141.223 451.228C141.428 450.705 141.531 450.099 141.531 449.408C141.531 448.801 141.466 448.274 141.335 447.826C141.214 447.378 141.022 447.014 140.761 446.734C140.5 446.445 140.168 446.23 139.767 446.09C139.375 445.941 138.908 445.866 138.367 445.866H136.015V444.76H138.339C139.384 444.76 140.238 444.942 140.901 445.306C141.564 445.67 142.054 446.193 142.371 446.874C142.688 447.555 142.847 448.367 142.847 449.31C142.847 449.935 142.777 450.5 142.637 451.004C142.506 451.508 142.315 451.947 142.063 452.32C141.82 452.693 141.531 453.006 141.195 453.258C140.859 453.501 140.486 453.687 140.075 453.818C139.664 453.939 139.235 454 138.787 454H136.015ZM135.329 454V444.76H136.617V454H135.329ZM144.843 454V446.762H146.117V454H144.843ZM145.487 445.502C145.188 445.502 144.964 445.441 144.815 445.32C144.665 445.199 144.591 445.017 144.591 444.774C144.591 444.531 144.665 444.349 144.815 444.228C144.964 444.107 145.183 444.046 145.473 444.046C145.771 444.046 145.995 444.107 146.145 444.228C146.294 444.349 146.369 444.531 146.369 444.774C146.369 445.007 146.294 445.189 146.145 445.32C145.995 445.441 145.776 445.502 145.487 445.502ZM151.017 454.182C150.513 454.182 150.065 454.126 149.673 454.014C149.281 453.911 148.954 453.762 148.693 453.566C148.431 453.361 148.231 453.118 148.091 452.838C147.951 452.558 147.876 452.25 147.867 451.914L148.945 451.634C148.926 451.942 149.001 452.213 149.169 452.446C149.346 452.67 149.593 452.843 149.911 452.964C150.237 453.085 150.629 453.146 151.087 453.146C151.637 453.146 152.062 453.053 152.361 452.866C152.669 452.679 152.823 452.423 152.823 452.096C152.823 451.835 152.739 451.634 152.571 451.494C152.403 451.345 152.169 451.228 151.871 451.144C151.581 451.051 151.236 450.967 150.835 450.892C150.499 450.817 150.163 450.733 149.827 450.64C149.491 450.547 149.183 450.425 148.903 450.276C148.632 450.117 148.413 449.912 148.245 449.66C148.077 449.408 147.993 449.095 147.993 448.722C147.993 448.283 148.109 447.905 148.343 447.588C148.576 447.271 148.907 447.023 149.337 446.846C149.766 446.669 150.279 446.58 150.877 446.58C151.474 446.58 151.983 446.673 152.403 446.86C152.823 447.037 153.154 447.289 153.397 447.616C153.639 447.943 153.775 448.325 153.803 448.764L152.697 449.044C152.687 448.736 152.603 448.475 152.445 448.26C152.295 448.045 152.081 447.887 151.801 447.784C151.521 447.672 151.194 447.616 150.821 447.616C150.326 447.616 149.934 447.709 149.645 447.896C149.355 448.083 149.211 448.339 149.211 448.666C149.211 448.909 149.295 449.105 149.463 449.254C149.64 449.403 149.878 449.52 150.177 449.604C150.475 449.688 150.807 449.772 151.171 449.856C151.544 449.931 151.899 450.015 152.235 450.108C152.58 450.201 152.888 450.323 153.159 450.472C153.429 450.621 153.644 450.822 153.803 451.074C153.961 451.317 154.041 451.629 154.041 452.012C154.041 452.488 153.915 452.889 153.663 453.216C153.411 453.533 153.056 453.776 152.599 453.944C152.151 454.103 151.623 454.182 151.017 454.182ZM157.528 454.182C157.136 454.182 156.781 454.107 156.464 453.958C156.147 453.799 155.895 453.571 155.708 453.272C155.521 452.964 155.428 452.577 155.428 452.11C155.428 451.765 155.489 451.461 155.61 451.2C155.741 450.939 155.937 450.715 156.198 450.528C156.469 450.341 156.814 450.187 157.234 450.066C157.654 449.945 158.167 449.842 158.774 449.758C159.119 449.711 159.399 449.665 159.614 449.618C159.838 449.571 160.001 449.497 160.104 449.394C160.207 449.282 160.258 449.119 160.258 448.904C160.258 448.549 160.137 448.251 159.894 448.008C159.651 447.765 159.269 447.644 158.746 447.644C158.475 447.644 158.2 447.691 157.92 447.784C157.64 447.877 157.393 448.036 157.178 448.26C156.973 448.475 156.842 448.778 156.786 449.17L155.61 448.778C155.685 448.442 155.806 448.139 155.974 447.868C156.151 447.597 156.375 447.369 156.646 447.182C156.917 446.986 157.229 446.837 157.584 446.734C157.948 446.631 158.349 446.58 158.788 446.58C159.395 446.58 159.899 446.683 160.3 446.888C160.711 447.093 161.014 447.411 161.21 447.84C161.415 448.26 161.518 448.801 161.518 449.464V451.074C161.518 451.363 161.523 451.681 161.532 452.026C161.551 452.362 161.574 452.703 161.602 453.048C161.63 453.384 161.658 453.701 161.686 454H160.51C160.482 453.701 160.454 453.403 160.426 453.104C160.407 452.805 160.393 452.507 160.384 452.208H160.202C160.062 452.553 159.875 452.875 159.642 453.174C159.409 453.473 159.115 453.715 158.76 453.902C158.415 454.089 158.004 454.182 157.528 454.182ZM157.906 453.146C158.111 453.146 158.317 453.113 158.522 453.048C158.737 452.983 158.947 452.875 159.152 452.726C159.367 452.577 159.567 452.385 159.754 452.152C159.95 451.919 160.123 451.639 160.272 451.312V449.912L160.636 449.982C160.487 450.131 160.286 450.243 160.034 450.318C159.791 450.393 159.521 450.453 159.222 450.5C158.923 450.547 158.625 450.598 158.326 450.654C158.027 450.701 157.752 450.775 157.5 450.878C157.257 450.971 157.061 451.107 156.912 451.284C156.763 451.461 156.688 451.704 156.688 452.012C156.688 452.385 156.8 452.67 157.024 452.866C157.248 453.053 157.542 453.146 157.906 453.146ZM167.407 454.182C166.94 454.182 166.539 454.089 166.203 453.902C165.876 453.715 165.61 453.463 165.405 453.146C165.209 452.819 165.059 452.451 164.957 452.04H164.733L164.803 454H163.655V450.43V444.2H164.943V446.468C164.943 446.711 164.929 446.967 164.901 447.238C164.882 447.499 164.849 447.77 164.803 448.05C164.765 448.33 164.723 448.601 164.677 448.862H164.929C165.031 448.47 165.181 448.101 165.377 447.756C165.573 447.411 165.834 447.131 166.161 446.916C166.497 446.701 166.912 446.594 167.407 446.594C168.023 446.594 168.545 446.757 168.975 447.084C169.413 447.401 169.749 447.845 169.983 448.414C170.216 448.983 170.333 449.646 170.333 450.402C170.333 451.13 170.216 451.779 169.983 452.348C169.759 452.917 169.427 453.365 168.989 453.692C168.559 454.019 168.032 454.182 167.407 454.182ZM167.099 453.062C167.5 453.062 167.841 452.955 168.121 452.74C168.401 452.525 168.615 452.217 168.765 451.816C168.923 451.415 169.003 450.948 169.003 450.416C169.003 449.893 168.928 449.431 168.779 449.03C168.629 448.619 168.415 448.297 168.135 448.064C167.855 447.821 167.509 447.7 167.099 447.7C166.8 447.7 166.534 447.761 166.301 447.882C166.067 447.994 165.862 448.148 165.685 448.344C165.517 448.54 165.377 448.755 165.265 448.988C165.153 449.221 165.069 449.455 165.013 449.688C164.957 449.921 164.929 450.136 164.929 450.332V450.5C164.929 450.78 164.975 451.069 165.069 451.368C165.171 451.667 165.316 451.947 165.503 452.208C165.689 452.46 165.918 452.665 166.189 452.824C166.459 452.983 166.763 453.062 167.099 453.062ZM172.172 454V444.2H173.446V454H172.172ZM178.753 454.182C178.184 454.182 177.68 454.098 177.241 453.93C176.812 453.753 176.448 453.501 176.149 453.174C175.85 452.847 175.626 452.46 175.477 452.012C175.328 451.564 175.253 451.06 175.253 450.5C175.253 449.931 175.328 449.408 175.477 448.932C175.626 448.456 175.846 448.041 176.135 447.686C176.424 447.331 176.779 447.061 177.199 446.874C177.619 446.678 178.1 446.58 178.641 446.58C179.117 446.58 179.551 446.659 179.943 446.818C180.335 446.977 180.666 447.224 180.937 447.56C181.217 447.887 181.427 448.302 181.567 448.806C181.707 449.301 181.763 449.884 181.735 450.556L176.051 450.598V449.73L180.965 449.688L180.531 450.276C180.578 449.688 180.522 449.203 180.363 448.82C180.204 448.437 179.976 448.148 179.677 447.952C179.388 447.756 179.042 447.658 178.641 447.658C178.212 447.658 177.834 447.77 177.507 447.994C177.18 448.218 176.928 448.54 176.751 448.96C176.583 449.38 176.499 449.889 176.499 450.486C176.499 451.345 176.69 452.003 177.073 452.46C177.456 452.908 178.025 453.132 178.781 453.132C179.07 453.132 179.322 453.099 179.537 453.034C179.761 452.959 179.948 452.861 180.097 452.74C180.256 452.609 180.382 452.46 180.475 452.292C180.578 452.124 180.657 451.942 180.713 451.746L181.833 452.012C181.749 452.348 181.618 452.651 181.441 452.922C181.273 453.183 181.058 453.407 180.797 453.594C180.545 453.781 180.251 453.925 179.915 454.028C179.579 454.131 179.192 454.182 178.753 454.182ZM186.15 454.182C185.534 454.182 185.007 454.019 184.568 453.692C184.129 453.365 183.793 452.917 183.56 452.348C183.336 451.779 183.224 451.125 183.224 450.388C183.224 449.651 183.336 448.997 183.56 448.428C183.784 447.859 184.111 447.411 184.54 447.084C184.969 446.757 185.497 446.594 186.122 446.594C186.635 446.594 187.055 446.701 187.382 446.916C187.709 447.131 187.97 447.411 188.166 447.756C188.371 448.092 188.521 448.461 188.614 448.862H188.866C188.819 448.591 188.777 448.311 188.74 448.022C188.703 447.723 188.67 447.434 188.642 447.154C188.614 446.865 188.6 446.608 188.6 446.384V444.2H189.888V450.43V454H188.74L188.81 452.04H188.586C188.474 452.46 188.315 452.833 188.11 453.16C187.905 453.477 187.643 453.729 187.326 453.916C187.009 454.093 186.617 454.182 186.15 454.182ZM186.444 453.062C186.78 453.062 187.083 452.983 187.354 452.824C187.625 452.665 187.853 452.46 188.04 452.208C188.227 451.947 188.367 451.667 188.46 451.368C188.563 451.069 188.614 450.78 188.614 450.5V450.332C188.614 450.136 188.586 449.926 188.53 449.702C188.474 449.469 188.39 449.235 188.278 449.002C188.175 448.769 188.035 448.554 187.858 448.358C187.69 448.153 187.489 447.994 187.256 447.882C187.023 447.761 186.761 447.7 186.472 447.7C186.052 447.7 185.697 447.821 185.408 448.064C185.128 448.297 184.913 448.619 184.764 449.03C184.624 449.441 184.554 449.903 184.554 450.416C184.554 450.948 184.629 451.415 184.778 451.816C184.927 452.208 185.142 452.516 185.422 452.74C185.711 452.955 186.052 453.062 186.444 453.062Z" fill="#9254DE"/>
<path d="M40.7089 377.182C40.1022 377.182 39.5609 377.121 39.0849 377C38.6089 376.888 38.2029 376.711 37.8669 376.468C37.5402 376.216 37.2882 375.913 37.1109 375.558C36.9335 375.194 36.8402 374.769 36.8309 374.284L38.3989 373.822C38.3895 374.27 38.4829 374.643 38.6789 374.942C38.8749 375.231 39.1549 375.446 39.5189 375.586C39.8922 375.726 40.3169 375.796 40.7929 375.796C41.2502 375.796 41.6329 375.74 41.9409 375.628C42.2582 375.516 42.4962 375.367 42.6549 375.18C42.8135 374.984 42.8929 374.765 42.8929 374.522C42.8929 374.251 42.7949 374.037 42.5989 373.878C42.4029 373.71 42.1369 373.575 41.8009 373.472C41.4742 373.36 41.1009 373.257 40.6809 373.164C40.2235 373.061 39.7755 372.949 39.3369 372.828C38.9075 372.707 38.5155 372.543 38.1609 372.338C37.8062 372.133 37.5215 371.871 37.3069 371.554C37.1015 371.227 36.9989 370.817 36.9989 370.322C36.9989 369.762 37.1389 369.281 37.4189 368.88C37.6989 368.469 38.1049 368.152 38.6369 367.928C39.1782 367.695 39.8222 367.578 40.5689 367.578C41.3062 367.578 41.9502 367.69 42.5009 367.914C43.0515 368.129 43.4809 368.446 43.7889 368.866C44.0969 369.286 44.2602 369.781 44.2789 370.35L42.6689 370.798C42.6689 370.49 42.6175 370.224 42.5149 370C42.4215 369.767 42.2815 369.575 42.0949 369.426C41.9082 369.267 41.6842 369.151 41.4229 369.076C41.1709 369.001 40.8815 368.964 40.5549 368.964C40.1722 368.964 39.8362 369.015 39.5469 369.118C39.2669 369.221 39.0522 369.365 38.9029 369.552C38.7535 369.729 38.6789 369.939 38.6789 370.182C38.6789 370.481 38.7909 370.719 39.0149 370.896C39.2389 371.073 39.5329 371.218 39.8969 371.33C40.2702 371.433 40.6762 371.535 41.1149 371.638C41.5162 371.722 41.9175 371.825 42.3189 371.946C42.7295 372.067 43.1075 372.226 43.4529 372.422C43.7982 372.618 44.0735 372.884 44.2789 373.22C44.4935 373.547 44.6009 373.962 44.6009 374.466C44.6009 375.007 44.4562 375.483 44.1669 375.894C43.8775 376.305 43.4435 376.622 42.8649 376.846C42.2862 377.07 41.5675 377.182 40.7089 377.182ZM48.7933 377.168C48.0186 377.168 47.4493 376.963 47.0853 376.552C46.7213 376.132 46.5393 375.483 46.5393 374.606V371.092H45.4613L45.4893 369.692H46.2033C46.474 369.692 46.6746 369.65 46.8053 369.566C46.936 369.482 47.0153 369.333 47.0433 369.118L47.2113 368.054H48.2333V369.678H50.1653V371.148H48.2333V374.536C48.2333 374.881 48.3126 375.133 48.4713 375.292C48.6393 375.451 48.8866 375.53 49.2133 375.53C49.3906 375.53 49.5633 375.511 49.7313 375.474C49.9086 375.427 50.072 375.353 50.2213 375.25V376.93C49.932 377.023 49.666 377.084 49.4233 377.112C49.19 377.149 48.98 377.168 48.7933 377.168ZM53.3667 377.182C52.9654 377.182 52.606 377.107 52.2887 376.958C51.9714 376.799 51.7194 376.566 51.5327 376.258C51.3554 375.95 51.2667 375.567 51.2667 375.11C51.2667 374.727 51.3367 374.401 51.4767 374.13C51.626 373.859 51.8454 373.64 52.1347 373.472C52.424 373.295 52.7834 373.15 53.2127 373.038C53.642 372.917 54.146 372.814 54.7247 372.73C55.042 372.683 55.2987 372.637 55.4947 372.59C55.7 372.543 55.8494 372.473 55.9427 372.38C56.036 372.277 56.0827 372.128 56.0827 371.932C56.0827 371.643 55.98 371.395 55.7747 371.19C55.5787 370.975 55.2567 370.868 54.8087 370.868C54.538 370.868 54.2767 370.915 54.0247 371.008C53.782 371.101 53.572 371.251 53.3947 371.456C53.2174 371.652 53.096 371.913 53.0307 372.24L51.4487 371.75C51.5514 371.377 51.7007 371.055 51.8967 370.784C52.0927 370.504 52.3354 370.266 52.6247 370.07C52.914 369.874 53.2454 369.729 53.6187 369.636C53.992 369.543 54.4027 369.496 54.8507 369.496C55.532 369.496 56.092 369.608 56.5307 369.832C56.9694 370.047 57.296 370.387 57.5107 370.854C57.7254 371.311 57.8327 371.904 57.8327 372.632V374.004C57.8327 374.321 57.8374 374.653 57.8467 374.998C57.8654 375.334 57.884 375.675 57.9027 376.02C57.9307 376.356 57.9634 376.683 58.0007 377H56.4187C56.3814 376.739 56.3487 376.459 56.3207 376.16C56.2927 375.861 56.2694 375.558 56.2507 375.25H56.0267C55.896 375.605 55.7094 375.931 55.4667 376.23C55.224 376.519 54.9254 376.753 54.5707 376.93C54.2254 377.098 53.824 377.182 53.3667 377.182ZM54.0667 375.88C54.2534 375.88 54.44 375.847 54.6267 375.782C54.8227 375.717 55.014 375.619 55.2007 375.488C55.3874 375.357 55.56 375.199 55.7187 375.012C55.8774 374.816 56.0127 374.587 56.1247 374.326L56.0967 373.08L56.4327 373.136C56.274 373.267 56.078 373.369 55.8447 373.444C55.6114 373.519 55.364 373.575 55.1027 373.612C54.8507 373.649 54.594 373.696 54.3327 373.752C54.0807 373.799 53.852 373.864 53.6467 373.948C53.4414 374.023 53.278 374.135 53.1567 374.284C53.0354 374.424 52.9747 374.62 52.9747 374.872C52.9747 375.189 53.0774 375.437 53.2827 375.614C53.488 375.791 53.7494 375.88 54.0667 375.88ZM62.3011 377.168C61.5265 377.168 60.9571 376.963 60.5931 376.552C60.2291 376.132 60.0471 375.483 60.0471 374.606V371.092H58.9691L58.9971 369.692H59.7111C59.9818 369.692 60.1825 369.65 60.3131 369.566C60.4438 369.482 60.5231 369.333 60.5511 369.118L60.7191 368.054H61.7411V369.678H63.6731V371.148H61.7411V374.536C61.7411 374.881 61.8205 375.133 61.9791 375.292C62.1471 375.451 62.3945 375.53 62.7211 375.53C62.8985 375.53 63.0711 375.511 63.2391 375.474C63.4165 375.427 63.5798 375.353 63.7291 375.25V376.93C63.4398 377.023 63.1738 377.084 62.9311 377.112C62.6978 377.149 62.4878 377.168 62.3011 377.168ZM68.4298 377.182C67.8418 377.182 67.3145 377.098 66.8478 376.93C66.3905 376.762 66.0032 376.519 65.6858 376.202C65.3685 375.875 65.1258 375.483 64.9578 375.026C64.7898 374.569 64.7058 374.051 64.7058 373.472C64.7058 372.893 64.7852 372.361 64.9438 371.876C65.1118 371.391 65.3498 370.971 65.6578 370.616C65.9658 370.261 66.3392 369.986 66.7778 369.79C67.2258 369.594 67.7345 369.496 68.3038 369.496C68.8358 369.496 69.3118 369.585 69.7318 369.762C70.1518 369.939 70.5065 370.205 70.7958 370.56C71.0852 370.905 71.2998 371.339 71.4398 371.862C71.5798 372.375 71.6265 372.973 71.5798 373.654L65.8538 373.696V372.674L70.5578 372.632L69.9418 373.206C69.9978 372.674 69.9558 372.24 69.8158 371.904C69.6758 371.559 69.4752 371.307 69.2138 371.148C68.9525 370.98 68.6538 370.896 68.3178 370.896C67.9352 370.896 67.5992 370.999 67.3098 371.204C67.0205 371.4 66.7965 371.689 66.6378 372.072C66.4885 372.445 66.4138 372.903 66.4138 373.444C66.4138 374.256 66.5912 374.863 66.9458 375.264C67.3098 375.665 67.8045 375.866 68.4298 375.866C68.7098 375.866 68.9432 375.833 69.1298 375.768C69.3258 375.693 69.4892 375.6 69.6198 375.488C69.7505 375.367 69.8532 375.231 69.9278 375.082C70.0118 374.933 70.0772 374.774 70.1238 374.606L71.6638 374.956C71.5892 375.301 71.4678 375.609 71.2998 375.88C71.1318 376.151 70.9125 376.384 70.6418 376.58C70.3805 376.776 70.0678 376.925 69.7038 377.028C69.3398 377.131 68.9152 377.182 68.4298 377.182ZM76.1163 377.182C75.6216 377.182 75.1736 377.131 74.7723 377.028C74.3803 376.935 74.0443 376.799 73.7643 376.622C73.4843 376.435 73.2603 376.216 73.0923 375.964C72.9243 375.703 72.8216 375.413 72.7843 375.096L74.1703 374.578C74.1889 374.821 74.2823 375.04 74.4503 375.236C74.6183 375.423 74.8516 375.572 75.1503 375.684C75.4489 375.796 75.8083 375.852 76.2283 375.852C76.6949 375.852 77.0543 375.782 77.3063 375.642C77.5676 375.493 77.6983 375.283 77.6983 375.012C77.6983 374.816 77.6283 374.662 77.4883 374.55C77.3483 374.429 77.1429 374.331 76.8723 374.256C76.6109 374.172 76.2936 374.093 75.9203 374.018C75.5749 373.943 75.2249 373.859 74.8703 373.766C74.5249 373.663 74.2029 373.533 73.9043 373.374C73.6149 373.206 73.3769 372.991 73.1903 372.73C73.0129 372.459 72.9243 372.119 72.9243 371.708C72.9243 371.26 73.0409 370.873 73.2743 370.546C73.5169 370.219 73.8623 369.963 74.3103 369.776C74.7676 369.589 75.3183 369.496 75.9623 369.496C76.5689 369.496 77.0916 369.58 77.5303 369.748C77.9783 369.916 78.3423 370.159 78.6223 370.476C78.9023 370.784 79.0796 371.153 79.1543 371.582L77.6983 372.044C77.6703 371.783 77.5816 371.563 77.4323 371.386C77.2829 371.199 77.0823 371.059 76.8303 370.966C76.5783 370.873 76.2843 370.826 75.9483 370.826C75.5189 370.826 75.1829 370.901 74.9403 371.05C74.6976 371.199 74.5763 371.4 74.5763 371.652C74.5763 371.857 74.6509 372.021 74.8003 372.142C74.9589 372.263 75.1736 372.361 75.4443 372.436C75.7243 372.511 76.0416 372.585 76.3963 372.66C76.7696 372.735 77.1289 372.823 77.4743 372.926C77.8289 373.019 78.1463 373.145 78.4263 373.304C78.7063 373.463 78.9303 373.673 79.0983 373.934C79.2663 374.186 79.3503 374.513 79.3503 374.914C79.3503 375.399 79.2196 375.815 78.9583 376.16C78.6969 376.496 78.3236 376.753 77.8383 376.93C77.3623 377.098 76.7883 377.182 76.1163 377.182Z" fill="#9254DE"/>
<path d="M145.49 301V299.894H148.22C148.854 299.894 149.377 299.749 149.788 299.46C150.198 299.161 150.502 298.751 150.698 298.228C150.903 297.705 151.006 297.099 151.006 296.408C151.006 295.801 150.94 295.274 150.81 294.826C150.688 294.378 150.497 294.014 150.236 293.734C149.974 293.445 149.643 293.23 149.242 293.09C148.85 292.941 148.383 292.866 147.842 292.866H145.49V291.76H147.814C148.859 291.76 149.713 291.942 150.376 292.306C151.038 292.67 151.528 293.193 151.846 293.874C152.163 294.555 152.322 295.367 152.322 296.31C152.322 296.935 152.252 297.5 152.112 298.004C151.981 298.508 151.79 298.947 151.538 299.32C151.295 299.693 151.006 300.006 150.67 300.258C150.334 300.501 149.96 300.687 149.55 300.818C149.139 300.939 148.71 301 148.262 301H145.49ZM144.804 301V291.76H146.092V301H144.804ZM157.398 301.182C156.828 301.182 156.324 301.098 155.886 300.93C155.456 300.753 155.092 300.501 154.794 300.174C154.495 299.847 154.271 299.46 154.122 299.012C153.972 298.564 153.898 298.06 153.898 297.5C153.898 296.931 153.972 296.408 154.122 295.932C154.271 295.456 154.49 295.041 154.78 294.686C155.069 294.331 155.424 294.061 155.844 293.874C156.264 293.678 156.744 293.58 157.286 293.58C157.762 293.58 158.196 293.659 158.588 293.818C158.98 293.977 159.311 294.224 159.582 294.56C159.862 294.887 160.072 295.302 160.212 295.806C160.352 296.301 160.408 296.884 160.38 297.556L154.696 297.598V296.73L159.61 296.688L159.176 297.276C159.222 296.688 159.166 296.203 159.008 295.82C158.849 295.437 158.62 295.148 158.322 294.952C158.032 294.756 157.687 294.658 157.286 294.658C156.856 294.658 156.478 294.77 156.152 294.994C155.825 295.218 155.573 295.54 155.396 295.96C155.228 296.38 155.144 296.889 155.144 297.486C155.144 298.345 155.335 299.003 155.718 299.46C156.1 299.908 156.67 300.132 157.426 300.132C157.715 300.132 157.967 300.099 158.182 300.034C158.406 299.959 158.592 299.861 158.742 299.74C158.9 299.609 159.026 299.46 159.12 299.292C159.222 299.124 159.302 298.942 159.358 298.746L160.478 299.012C160.394 299.348 160.263 299.651 160.086 299.922C159.918 300.183 159.703 300.407 159.442 300.594C159.19 300.781 158.896 300.925 158.56 301.028C158.224 301.131 157.836 301.182 157.398 301.182ZM162.766 301V295.89H161.478V294.868L163.284 294.98V294.742C163.051 294.649 162.855 294.523 162.696 294.364C162.547 294.196 162.43 294.005 162.346 293.79C162.271 293.575 162.234 293.347 162.234 293.104C162.234 292.712 162.318 292.371 162.486 292.082C162.663 291.793 162.911 291.564 163.228 291.396C163.555 291.228 163.942 291.144 164.39 291.144C164.745 291.144 165.062 291.195 165.342 291.298C165.631 291.391 165.869 291.517 166.056 291.676L165.902 292.866C165.725 292.698 165.51 292.567 165.258 292.474C165.006 292.371 164.754 292.32 164.502 292.32C164.194 292.32 163.942 292.418 163.746 292.614C163.55 292.81 163.452 293.113 163.452 293.524C163.452 293.757 163.485 293.958 163.55 294.126C163.615 294.294 163.699 294.439 163.802 294.56C163.914 294.672 164.026 294.765 164.138 294.84H165.93L165.916 295.89H164.026V301H162.766ZM169.04 301.182C168.648 301.182 168.293 301.107 167.976 300.958C167.658 300.799 167.406 300.571 167.22 300.272C167.033 299.964 166.94 299.577 166.94 299.11C166.94 298.765 167 298.461 167.122 298.2C167.252 297.939 167.448 297.715 167.71 297.528C167.98 297.341 168.326 297.187 168.746 297.066C169.166 296.945 169.679 296.842 170.286 296.758C170.631 296.711 170.911 296.665 171.126 296.618C171.35 296.571 171.513 296.497 171.616 296.394C171.718 296.282 171.77 296.119 171.77 295.904C171.77 295.549 171.648 295.251 171.406 295.008C171.163 294.765 170.78 294.644 170.258 294.644C169.987 294.644 169.712 294.691 169.432 294.784C169.152 294.877 168.904 295.036 168.69 295.26C168.484 295.475 168.354 295.778 168.298 296.17L167.122 295.778C167.196 295.442 167.318 295.139 167.486 294.868C167.663 294.597 167.887 294.369 168.158 294.182C168.428 293.986 168.741 293.837 169.096 293.734C169.46 293.631 169.861 293.58 170.3 293.58C170.906 293.58 171.41 293.683 171.812 293.888C172.222 294.093 172.526 294.411 172.722 294.84C172.927 295.26 173.03 295.801 173.03 296.464V298.074C173.03 298.363 173.034 298.681 173.044 299.026C173.062 299.362 173.086 299.703 173.114 300.048C173.142 300.384 173.17 300.701 173.198 301H172.022C171.994 300.701 171.966 300.403 171.938 300.104C171.919 299.805 171.905 299.507 171.896 299.208H171.714C171.574 299.553 171.387 299.875 171.154 300.174C170.92 300.473 170.626 300.715 170.272 300.902C169.926 301.089 169.516 301.182 169.04 301.182ZM169.418 300.146C169.623 300.146 169.828 300.113 170.034 300.048C170.248 299.983 170.458 299.875 170.664 299.726C170.878 299.577 171.079 299.385 171.266 299.152C171.462 298.919 171.634 298.639 171.784 298.312V296.912L172.148 296.982C171.998 297.131 171.798 297.243 171.546 297.318C171.303 297.393 171.032 297.453 170.734 297.5C170.435 297.547 170.136 297.598 169.838 297.654C169.539 297.701 169.264 297.775 169.012 297.878C168.769 297.971 168.573 298.107 168.424 298.284C168.274 298.461 168.2 298.704 168.2 299.012C168.2 299.385 168.312 299.67 168.536 299.866C168.76 300.053 169.054 300.146 169.418 300.146ZM177.491 301.182C176.688 301.182 176.081 300.902 175.671 300.342C175.26 299.782 175.055 298.947 175.055 297.836V293.762H176.343V297.724C176.343 298.508 176.464 299.091 176.707 299.474C176.949 299.857 177.332 300.048 177.855 300.048C178.144 300.048 178.401 299.978 178.625 299.838C178.858 299.698 179.063 299.497 179.241 299.236C179.418 298.975 179.563 298.667 179.675 298.312C179.787 297.948 179.861 297.556 179.899 297.136V293.762H181.173V297.976V301H180.039L180.151 298.676H179.941C179.819 299.255 179.647 299.731 179.423 300.104C179.208 300.468 178.937 300.739 178.611 300.916C178.284 301.093 177.911 301.182 177.491 301.182ZM183.383 301V291.2H184.657V301H183.383ZM189.165 301.14C188.493 301.14 187.993 300.958 187.667 300.594C187.34 300.23 187.177 299.675 187.177 298.928V294.826H186.085L186.099 293.762H186.785C187.018 293.762 187.186 293.72 187.289 293.636C187.401 293.552 187.466 293.412 187.485 293.216L187.625 292.124H188.409V293.762H190.495V294.84H188.409V298.9C188.409 299.273 188.493 299.544 188.661 299.712C188.838 299.871 189.09 299.95 189.417 299.95C189.594 299.95 189.776 299.927 189.963 299.88C190.159 299.833 190.35 299.74 190.537 299.6V300.874C190.266 300.977 190.014 301.047 189.781 301.084C189.557 301.121 189.351 301.14 189.165 301.14Z" fill="#9254DE"/>
<path d="M370 334L208.747 334M208.747 334L208.747 302C208.747 297.582 212.329 294 216.747 294L370 294M208.747 334L208.747 374M208.747 334L208.747 414M370 374L208.747 374M208.747 374L208.747 414M370 414L208.747 414M208.747 414L208.747 446C208.747 450.418 212.329 454 216.747 454L370 454" stroke="#9254DE" stroke-width="2"/>
</g>
<defs>
<filter id="filter0_dd_1896_2066" x="629" y="324" width="26" height="26" filterUnits="userSpaceOnUse" color-interpolation-filters="sRGB">
<feFlood flood-opacity="0" result="BackgroundImageFix"/>
<feColorMatrix in="SourceAlpha" type="matrix" values="0 0 0 0 0 0 0 0 0 0 0 0 0 0 0 0 0 0 127 0" result="hardAlpha"/>
<feOffset dy="1"/>
<feGaussianBlur stdDeviation="1"/>
<feColorMatrix type="matrix" values="0 0 0 0 0.0627451 0 0 0 0 0.0941176 0 0 0 0 0.156863 0 0 0 0.06 0"/>
<feBlend mode="normal" in2="BackgroundImageFix" result="effect1_dropShadow_1896_2066"/>
<feColorMatrix in="SourceAlpha" type="matrix" values="0 0 0 0 0 0 0 0 0 0 0 0 0 0 0 0 0 0 127 0" result="hardAlpha"/>
<feOffset dy="1"/>
<feGaussianBlur stdDeviation="1.5"/>
<feColorMatrix type="matrix" values="0 0 0 0 0.0627451 0 0 0 0 0.0941176 0 0 0 0 0.156863 0 0 0 0.1 0"/>
<feBlend mode="normal" in2="effect1_dropShadow_1896_2066" result="effect2_dropShadow_1896_2066"/>
<feBlend mode="normal" in="SourceGraphic" in2="effect2_dropShadow_1896_2066" result="shape"/>
</filter>
<filter id="filter1_dd_1896_2066" x="629" y="364" width="26" height="26" filterUnits="userSpaceOnUse" color-interpolation-filters="sRGB">
<feFlood flood-opacity="0" result="BackgroundImageFix"/>
<feColorMatrix in="SourceAlpha" type="matrix" values="0 0 0 0 0 0 0 0 0 0 0 0 0 0 0 0 0 0 127 0" result="hardAlpha"/>
<feOffset dy="1"/>
<feGaussianBlur stdDeviation="1"/>
<feColorMatrix type="matrix" values="0 0 0 0 0.0627451 0 0 0 0 0.0941176 0 0 0 0 0.156863 0 0 0 0.06 0"/>
<feBlend mode="normal" in2="BackgroundImageFix" result="effect1_dropShadow_1896_2066"/>
<feColorMatrix in="SourceAlpha" type="matrix" values="0 0 0 0 0 0 0 0 0 0 0 0 0 0 0 0 0 0 127 0" result="hardAlpha"/>
<feOffset dy="1"/>
<feGaussianBlur stdDeviation="1.5"/>
<feColorMatrix type="matrix" values="0 0 0 0 0.0627451 0 0 0 0 0.0941176 0 0 0 0 0.156863 0 0 0 0.1 0"/>
<feBlend mode="normal" in2="effect1_dropShadow_1896_2066" result="effect2_dropShadow_1896_2066"/>
<feBlend mode="normal" in="SourceGraphic" in2="effect2_dropShadow_1896_2066" result="shape"/>
</filter>
<filter id="filter2_dd_1896_2066" x="465" y="324" width="22" height="22" filterUnits="userSpaceOnUse" color-interpolation-filters="sRGB">
<feFlood flood-opacity="0" result="BackgroundImageFix"/>
<feColorMatrix in="SourceAlpha" type="matrix" values="0 0 0 0 0 0 0 0 0 0 0 0 0 0 0 0 0 0 127 0" result="hardAlpha"/>
<feOffset dy="1"/>
<feGaussianBlur stdDeviation="1"/>
<feColorMatrix type="matrix" values="0 0 0 0 0.0627451 0 0 0 0 0.0941176 0 0 0 0 0.156863 0 0 0 0.06 0"/>
<feBlend mode="normal" in2="BackgroundImageFix" result="effect1_dropShadow_1896_2066"/>
<feColorMatrix in="SourceAlpha" type="matrix" values="0 0 0 0 0 0 0 0 0 0 0 0 0 0 0 0 0 0 127 0" result="hardAlpha"/>
<feOffset dy="1"/>
<feGaussianBlur stdDeviation="1.5"/>
<feColorMatrix type="matrix" values="0 0 0 0 0.0627451 0 0 0 0 0.0941176 0 0 0 0 0.156863 0 0 0 0.1 0"/>
<feBlend mode="normal" in2="effect1_dropShadow_1896_2066" result="effect2_dropShadow_1896_2066"/>
<feBlend mode="normal" in="SourceGraphic" in2="effect2_dropShadow_1896_2066" result="shape"/>
</filter>
<filter id="filter3_dd_1896_2066" x="465" y="364" width="22" height="22" filterUnits="userSpaceOnUse" color-interpolation-filters="sRGB">
<feFlood flood-opacity="0" result="BackgroundImageFix"/>
<feColorMatrix in="SourceAlpha" type="matrix" values="0 0 0 0 0 0 0 0 0 0 0 0 0 0 0 0 0 0 127 0" result="hardAlpha"/>
<feOffset dy="1"/>
<feGaussianBlur stdDeviation="1"/>
<feColorMatrix type="matrix" values="0 0 0 0 0.0627451 0 0 0 0 0.0941176 0 0 0 0 0.156863 0 0 0 0.06 0"/>
<feBlend mode="normal" in2="BackgroundImageFix" result="effect1_dropShadow_1896_2066"/>
<feColorMatrix in="SourceAlpha" type="matrix" values="0 0 0 0 0 0 0 0 0 0 0 0 0 0 0 0 0 0 127 0" result="hardAlpha"/>
<feOffset dy="1"/>
<feGaussianBlur stdDeviation="1.5"/>
<feColorMatrix type="matrix" values="0 0 0 0 0.0627451 0 0 0 0 0.0941176 0 0 0 0 0.156863 0 0 0 0.1 0"/>
<feBlend mode="normal" in2="effect1_dropShadow_1896_2066" result="effect2_dropShadow_1896_2066"/>
<feBlend mode="normal" in="SourceGraphic" in2="effect2_dropShadow_1896_2066" result="shape"/>
</filter>
<filter id="filter4_dd_1896_2066" x="629" y="284" width="26" height="26" filterUnits="userSpaceOnUse" color-interpolation-filters="sRGB">
<feFlood flood-opacity="0" result="BackgroundImageFix"/>
<feColorMatrix in="SourceAlpha" type="matrix" values="0 0 0 0 0 0 0 0 0 0 0 0 0 0 0 0 0 0 127 0" result="hardAlpha"/>
<feOffset dy="1"/>
<feGaussianBlur stdDeviation="1"/>
<feColorMatrix type="matrix" values="0 0 0 0 0.0627451 0 0 0 0 0.0941176 0 0 0 0 0.156863 0 0 0 0.06 0"/>
<feBlend mode="normal" in2="BackgroundImageFix" result="effect1_dropShadow_1896_2066"/>
<feColorMatrix in="SourceAlpha" type="matrix" values="0 0 0 0 0 0 0 0 0 0 0 0 0 0 0 0 0 0 127 0" result="hardAlpha"/>
<feOffset dy="1"/>
<feGaussianBlur stdDeviation="1.5"/>
<feColorMatrix type="matrix" values="0 0 0 0 0.0627451 0 0 0 0 0.0941176 0 0 0 0 0.156863 0 0 0 0.1 0"/>
<feBlend mode="normal" in2="effect1_dropShadow_1896_2066" result="effect2_dropShadow_1896_2066"/>
<feBlend mode="normal" in="SourceGraphic" in2="effect2_dropShadow_1896_2066" result="shape"/>
</filter>
<filter id="filter5_dd_1896_2066" x="465" y="284" width="22" height="22" filterUnits="userSpaceOnUse" color-interpolation-filters="sRGB">
<feFlood flood-opacity="0" result="BackgroundImageFix"/>
<feColorMatrix in="SourceAlpha" type="matrix" values="0 0 0 0 0 0 0 0 0 0 0 0 0 0 0 0 0 0 127 0" result="hardAlpha"/>
<feOffset dy="1"/>
<feGaussianBlur stdDeviation="1"/>
<feColorMatrix type="matrix" values="0 0 0 0 0.0627451 0 0 0 0 0.0941176 0 0 0 0 0.156863 0 0 0 0.06 0"/>
<feBlend mode="normal" in2="BackgroundImageFix" result="effect1_dropShadow_1896_2066"/>
<feColorMatrix in="SourceAlpha" type="matrix" values="0 0 0 0 0 0 0 0 0 0 0 0 0 0 0 0 0 0 127 0" result="hardAlpha"/>
<feOffset dy="1"/>
<feGaussianBlur stdDeviation="1.5"/>
<feColorMatrix type="matrix" values="0 0 0 0 0.0627451 0 0 0 0 0.0941176 0 0 0 0 0.156863 0 0 0 0.1 0"/>
<feBlend mode="normal" in2="effect1_dropShadow_1896_2066" result="effect2_dropShadow_1896_2066"/>
<feBlend mode="normal" in="SourceGraphic" in2="effect2_dropShadow_1896_2066" result="shape"/>
</filter>
<filter id="filter6_dd_1896_2066" x="629" y="444" width="26" height="26" filterUnits="userSpaceOnUse" color-interpolation-filters="sRGB">
<feFlood flood-opacity="0" result="BackgroundImageFix"/>
<feColorMatrix in="SourceAlpha" type="matrix" values="0 0 0 0 0 0 0 0 0 0 0 0 0 0 0 0 0 0 127 0" result="hardAlpha"/>
<feOffset dy="1"/>
<feGaussianBlur stdDeviation="1"/>
<feColorMatrix type="matrix" values="0 0 0 0 0.0627451 0 0 0 0 0.0941176 0 0 0 0 0.156863 0 0 0 0.06 0"/>
<feBlend mode="normal" in2="BackgroundImageFix" result="effect1_dropShadow_1896_2066"/>
<feColorMatrix in="SourceAlpha" type="matrix" values="0 0 0 0 0 0 0 0 0 0 0 0 0 0 0 0 0 0 127 0" result="hardAlpha"/>
<feOffset dy="1"/>
<feGaussianBlur stdDeviation="1.5"/>
<feColorMatrix type="matrix" values="0 0 0 0 0.0627451 0 0 0 0 0.0941176 0 0 0 0 0.156863 0 0 0 0.1 0"/>
<feBlend mode="normal" in2="effect1_dropShadow_1896_2066" result="effect2_dropShadow_1896_2066"/>
<feBlend mode="normal" in="SourceGraphic" in2="effect2_dropShadow_1896_2066" result="shape"/>
</filter>
<filter id="filter7_dd_1896_2066" x="465" y="444" width="22" height="22" filterUnits="userSpaceOnUse" color-interpolation-filters="sRGB">
<feFlood flood-opacity="0" result="BackgroundImageFix"/>
<feColorMatrix in="SourceAlpha" type="matrix" values="0 0 0 0 0 0 0 0 0 0 0 0 0 0 0 0 0 0 127 0" result="hardAlpha"/>
<feOffset dy="1"/>
<feGaussianBlur stdDeviation="1"/>
<feColorMatrix type="matrix" values="0 0 0 0 0.0627451 0 0 0 0 0.0941176 0 0 0 0 0.156863 0 0 0 0.06 0"/>
<feBlend mode="normal" in2="BackgroundImageFix" result="effect1_dropShadow_1896_2066"/>
<feColorMatrix in="SourceAlpha" type="matrix" values="0 0 0 0 0 0 0 0 0 0 0 0 0 0 0 0 0 0 127 0" result="hardAlpha"/>
<feOffset dy="1"/>
<feGaussianBlur stdDeviation="1.5"/>
<feColorMatrix type="matrix" values="0 0 0 0 0.0627451 0 0 0 0 0.0941176 0 0 0 0 0.156863 0 0 0 0.1 0"/>
<feBlend mode="normal" in2="effect1_dropShadow_1896_2066" result="effect2_dropShadow_1896_2066"/>
<feBlend mode="normal" in="SourceGraphic" in2="effect2_dropShadow_1896_2066" result="shape"/>
</filter>
<filter id="filter8_dd_1896_2066" x="533" y="324" width="26" height="26" filterUnits="userSpaceOnUse" color-interpolation-filters="sRGB">
<feFlood flood-opacity="0" result="BackgroundImageFix"/>
<feColorMatrix in="SourceAlpha" type="matrix" values="0 0 0 0 0 0 0 0 0 0 0 0 0 0 0 0 0 0 127 0" result="hardAlpha"/>
<feOffset dy="1"/>
<feGaussianBlur stdDeviation="1"/>
<feColorMatrix type="matrix" values="0 0 0 0 0.0627451 0 0 0 0 0.0941176 0 0 0 0 0.156863 0 0 0 0.06 0"/>
<feBlend mode="normal" in2="BackgroundImageFix" result="effect1_dropShadow_1896_2066"/>
<feColorMatrix in="SourceAlpha" type="matrix" values="0 0 0 0 0 0 0 0 0 0 0 0 0 0 0 0 0 0 127 0" result="hardAlpha"/>
<feOffset dy="1"/>
<feGaussianBlur stdDeviation="1.5"/>
<feColorMatrix type="matrix" values="0 0 0 0 0.0627451 0 0 0 0 0.0941176 0 0 0 0 0.156863 0 0 0 0.1 0"/>
<feBlend mode="normal" in2="effect1_dropShadow_1896_2066" result="effect2_dropShadow_1896_2066"/>
<feBlend mode="normal" in="SourceGraphic" in2="effect2_dropShadow_1896_2066" result="shape"/>
</filter>
<filter id="filter9_dd_1896_2066" x="533" y="364" width="26" height="26" filterUnits="userSpaceOnUse" color-interpolation-filters="sRGB">
<feFlood flood-opacity="0" result="BackgroundImageFix"/>
<feColorMatrix in="SourceAlpha" type="matrix" values="0 0 0 0 0 0 0 0 0 0 0 0 0 0 0 0 0 0 127 0" result="hardAlpha"/>
<feOffset dy="1"/>
<feGaussianBlur stdDeviation="1"/>
<feColorMatrix type="matrix" values="0 0 0 0 0.0627451 0 0 0 0 0.0941176 0 0 0 0 0.156863 0 0 0 0.06 0"/>
<feBlend mode="normal" in2="BackgroundImageFix" result="effect1_dropShadow_1896_2066"/>
<feColorMatrix in="SourceAlpha" type="matrix" values="0 0 0 0 0 0 0 0 0 0 0 0 0 0 0 0 0 0 127 0" result="hardAlpha"/>
<feOffset dy="1"/>
<feGaussianBlur stdDeviation="1.5"/>
<feColorMatrix type="matrix" values="0 0 0 0 0.0627451 0 0 0 0 0.0941176 0 0 0 0 0.156863 0 0 0 0.1 0"/>
<feBlend mode="normal" in2="effect1_dropShadow_1896_2066" result="effect2_dropShadow_1896_2066"/>
<feBlend mode="normal" in="SourceGraphic" in2="effect2_dropShadow_1896_2066" result="shape"/>
</filter>
<filter id="filter10_dd_1896_2066" x="389" y="324" width="22" height="22" filterUnits="userSpaceOnUse" color-interpolation-filters="sRGB">
<feFlood flood-opacity="0" result="BackgroundImageFix"/>
<feColorMatrix in="SourceAlpha" type="matrix" values="0 0 0 0 0 0 0 0 0 0 0 0 0 0 0 0 0 0 127 0" result="hardAlpha"/>
<feOffset dy="1"/>
<feGaussianBlur stdDeviation="1"/>
<feColorMatrix type="matrix" values="0 0 0 0 0.0627451 0 0 0 0 0.0941176 0 0 0 0 0.156863 0 0 0 0.06 0"/>
<feBlend mode="normal" in2="BackgroundImageFix" result="effect1_dropShadow_1896_2066"/>
<feColorMatrix in="SourceAlpha" type="matrix" values="0 0 0 0 0 0 0 0 0 0 0 0 0 0 0 0 0 0 127 0" result="hardAlpha"/>
<feOffset dy="1"/>
<feGaussianBlur stdDeviation="1.5"/>
<feColorMatrix type="matrix" values="0 0 0 0 0.0627451 0 0 0 0 0.0941176 0 0 0 0 0.156863 0 0 0 0.1 0"/>
<feBlend mode="normal" in2="effect1_dropShadow_1896_2066" result="effect2_dropShadow_1896_2066"/>
<feBlend mode="normal" in="SourceGraphic" in2="effect2_dropShadow_1896_2066" result="shape"/>
</filter>
<filter id="filter11_dd_1896_2066" x="389" y="364" width="22" height="22" filterUnits="userSpaceOnUse" color-interpolation-filters="sRGB">
<feFlood flood-opacity="0" result="BackgroundImageFix"/>
<feColorMatrix in="SourceAlpha" type="matrix" values="0 0 0 0 0 0 0 0 0 0 0 0 0 0 0 0 0 0 127 0" result="hardAlpha"/>
<feOffset dy="1"/>
<feGaussianBlur stdDeviation="1"/>
<feColorMatrix type="matrix" values="0 0 0 0 0.0627451 0 0 0 0 0.0941176 0 0 0 0 0.156863 0 0 0 0.06 0"/>
<feBlend mode="normal" in2="BackgroundImageFix" result="effect1_dropShadow_1896_2066"/>
<feColorMatrix in="SourceAlpha" type="matrix" values="0 0 0 0 0 0 0 0 0 0 0 0 0 0 0 0 0 0 127 0" result="hardAlpha"/>
<feOffset dy="1"/>
<feGaussianBlur stdDeviation="1.5"/>
<feColorMatrix type="matrix" values="0 0 0 0 0.0627451 0 0 0 0 0.0941176 0 0 0 0 0.156863 0 0 0 0.1 0"/>
<feBlend mode="normal" in2="effect1_dropShadow_1896_2066" result="effect2_dropShadow_1896_2066"/>
<feBlend mode="normal" in="SourceGraphic" in2="effect2_dropShadow_1896_2066" result="shape"/>
</filter>
<filter id="filter12_dd_1896_2066" x="533" y="284" width="26" height="26" filterUnits="userSpaceOnUse" color-interpolation-filters="sRGB">
<feFlood flood-opacity="0" result="BackgroundImageFix"/>
<feColorMatrix in="SourceAlpha" type="matrix" values="0 0 0 0 0 0 0 0 0 0 0 0 0 0 0 0 0 0 127 0" result="hardAlpha"/>
<feOffset dy="1"/>
<feGaussianBlur stdDeviation="1"/>
<feColorMatrix type="matrix" values="0 0 0 0 0.0627451 0 0 0 0 0.0941176 0 0 0 0 0.156863 0 0 0 0.06 0"/>
<feBlend mode="normal" in2="BackgroundImageFix" result="effect1_dropShadow_1896_2066"/>
<feColorMatrix in="SourceAlpha" type="matrix" values="0 0 0 0 0 0 0 0 0 0 0 0 0 0 0 0 0 0 127 0" result="hardAlpha"/>
<feOffset dy="1"/>
<feGaussianBlur stdDeviation="1.5"/>
<feColorMatrix type="matrix" values="0 0 0 0 0.0627451 0 0 0 0 0.0941176 0 0 0 0 0.156863 0 0 0 0.1 0"/>
<feBlend mode="normal" in2="effect1_dropShadow_1896_2066" result="effect2_dropShadow_1896_2066"/>
<feBlend mode="normal" in="SourceGraphic" in2="effect2_dropShadow_1896_2066" result="shape"/>
</filter>
<filter id="filter13_dd_1896_2066" x="389" y="284" width="22" height="22" filterUnits="userSpaceOnUse" color-interpolation-filters="sRGB">
<feFlood flood-opacity="0" result="BackgroundImageFix"/>
<feColorMatrix in="SourceAlpha" type="matrix" values="0 0 0 0 0 0 0 0 0 0 0 0 0 0 0 0 0 0 127 0" result="hardAlpha"/>
<feOffset dy="1"/>
<feGaussianBlur stdDeviation="1"/>
<feColorMatrix type="matrix" values="0 0 0 0 0.0627451 0 0 0 0 0.0941176 0 0 0 0 0.156863 0 0 0 0.06 0"/>
<feBlend mode="normal" in2="BackgroundImageFix" result="effect1_dropShadow_1896_2066"/>
<feColorMatrix in="SourceAlpha" type="matrix" values="0 0 0 0 0 0 0 0 0 0 0 0 0 0 0 0 0 0 127 0" result="hardAlpha"/>
<feOffset dy="1"/>
<feGaussianBlur stdDeviation="1.5"/>
<feColorMatrix type="matrix" values="0 0 0 0 0.0627451 0 0 0 0 0.0941176 0 0 0 0 0.156863 0 0 0 0.1 0"/>
<feBlend mode="normal" in2="effect1_dropShadow_1896_2066" result="effect2_dropShadow_1896_2066"/>
<feBlend mode="normal" in="SourceGraphic" in2="effect2_dropShadow_1896_2066" result="shape"/>
</filter>
<filter id="filter14_dd_1896_2066" x="533" y="444" width="26" height="26" filterUnits="userSpaceOnUse" color-interpolation-filters="sRGB">
<feFlood flood-opacity="0" result="BackgroundImageFix"/>
<feColorMatrix in="SourceAlpha" type="matrix" values="0 0 0 0 0 0 0 0 0 0 0 0 0 0 0 0 0 0 127 0" result="hardAlpha"/>
<feOffset dy="1"/>
<feGaussianBlur stdDeviation="1"/>
<feColorMatrix type="matrix" values="0 0 0 0 0.0627451 0 0 0 0 0.0941176 0 0 0 0 0.156863 0 0 0 0.06 0"/>
<feBlend mode="normal" in2="BackgroundImageFix" result="effect1_dropShadow_1896_2066"/>
<feColorMatrix in="SourceAlpha" type="matrix" values="0 0 0 0 0 0 0 0 0 0 0 0 0 0 0 0 0 0 127 0" result="hardAlpha"/>
<feOffset dy="1"/>
<feGaussianBlur stdDeviation="1.5"/>
<feColorMatrix type="matrix" values="0 0 0 0 0.0627451 0 0 0 0 0.0941176 0 0 0 0 0.156863 0 0 0 0.1 0"/>
<feBlend mode="normal" in2="effect1_dropShadow_1896_2066" result="effect2_dropShadow_1896_2066"/>
<feBlend mode="normal" in="SourceGraphic" in2="effect2_dropShadow_1896_2066" result="shape"/>
</filter>
<filter id="filter15_dd_1896_2066" x="389" y="444" width="22" height="22" filterUnits="userSpaceOnUse" color-interpolation-filters="sRGB">
<feFlood flood-opacity="0" result="BackgroundImageFix"/>
<feColorMatrix in="SourceAlpha" type="matrix" values="0 0 0 0 0 0 0 0 0 0 0 0 0 0 0 0 0 0 127 0" result="hardAlpha"/>
<feOffset dy="1"/>
<feGaussianBlur stdDeviation="1"/>
<feColorMatrix type="matrix" values="0 0 0 0 0.0627451 0 0 0 0 0.0941176 0 0 0 0 0.156863 0 0 0 0.06 0"/>
<feBlend mode="normal" in2="BackgroundImageFix" result="effect1_dropShadow_1896_2066"/>
<feColorMatrix in="SourceAlpha" type="matrix" values="0 0 0 0 0 0 0 0 0 0 0 0 0 0 0 0 0 0 127 0" result="hardAlpha"/>
<feOffset dy="1"/>
<feGaussianBlur stdDeviation="1.5"/>
<feColorMatrix type="matrix" values="0 0 0 0 0.0627451 0 0 0 0 0.0941176 0 0 0 0 0.156863 0 0 0 0.1 0"/>
<feBlend mode="normal" in2="effect1_dropShadow_1896_2066" result="effect2_dropShadow_1896_2066"/>
<feBlend mode="normal" in="SourceGraphic" in2="effect2_dropShadow_1896_2066" result="shape"/>
</filter>
<filter id="filter16_dd_1896_2066" x="465" y="404" width="22" height="22" filterUnits="userSpaceOnUse" color-interpolation-filters="sRGB">
<feFlood flood-opacity="0" result="BackgroundImageFix"/>
<feColorMatrix in="SourceAlpha" type="matrix" values="0 0 0 0 0 0 0 0 0 0 0 0 0 0 0 0 0 0 127 0" result="hardAlpha"/>
<feOffset dy="1"/>
<feGaussianBlur stdDeviation="1"/>
<feColorMatrix type="matrix" values="0 0 0 0 0.0627451 0 0 0 0 0.0941176 0 0 0 0 0.156863 0 0 0 0.06 0"/>
<feBlend mode="normal" in2="BackgroundImageFix" result="effect1_dropShadow_1896_2066"/>
<feColorMatrix in="SourceAlpha" type="matrix" values="0 0 0 0 0 0 0 0 0 0 0 0 0 0 0 0 0 0 127 0" result="hardAlpha"/>
<feOffset dy="1"/>
<feGaussianBlur stdDeviation="1.5"/>
<feColorMatrix type="matrix" values="0 0 0 0 0.0627451 0 0 0 0 0.0941176 0 0 0 0 0.156863 0 0 0 0.1 0"/>
<feBlend mode="normal" in2="effect1_dropShadow_1896_2066" result="effect2_dropShadow_1896_2066"/>
<feBlend mode="normal" in="SourceGraphic" in2="effect2_dropShadow_1896_2066" result="shape"/>
</filter>
<filter id="filter17_dd_1896_2066" x="389" y="404" width="22" height="22" filterUnits="userSpaceOnUse" color-interpolation-filters="sRGB">
<feFlood flood-opacity="0" result="BackgroundImageFix"/>
<feColorMatrix in="SourceAlpha" type="matrix" values="0 0 0 0 0 0 0 0 0 0 0 0 0 0 0 0 0 0 127 0" result="hardAlpha"/>
<feOffset dy="1"/>
<feGaussianBlur stdDeviation="1"/>
<feColorMatrix type="matrix" values="0 0 0 0 0.0627451 0 0 0 0 0.0941176 0 0 0 0 0.156863 0 0 0 0.06 0"/>
<feBlend mode="normal" in2="BackgroundImageFix" result="effect1_dropShadow_1896_2066"/>
<feColorMatrix in="SourceAlpha" type="matrix" values="0 0 0 0 0 0 0 0 0 0 0 0 0 0 0 0 0 0 127 0" result="hardAlpha"/>
<feOffset dy="1"/>
<feGaussianBlur stdDeviation="1.5"/>
<feColorMatrix type="matrix" values="0 0 0 0 0.0627451 0 0 0 0 0.0941176 0 0 0 0 0.156863 0 0 0 0.1 0"/>
<feBlend mode="normal" in2="effect1_dropShadow_1896_2066" result="effect2_dropShadow_1896_2066"/>
<feBlend mode="normal" in="SourceGraphic" in2="effect2_dropShadow_1896_2066" result="shape"/>
</filter>
<filter id="filter18_dd_1896_2066" x="629" y="404" width="26" height="26" filterUnits="userSpaceOnUse" color-interpolation-filters="sRGB">
<feFlood flood-opacity="0" result="BackgroundImageFix"/>
<feColorMatrix in="SourceAlpha" type="matrix" values="0 0 0 0 0 0 0 0 0 0 0 0 0 0 0 0 0 0 127 0" result="hardAlpha"/>
<feOffset dy="1"/>
<feGaussianBlur stdDeviation="1"/>
<feColorMatrix type="matrix" values="0 0 0 0 0.0627451 0 0 0 0 0.0941176 0 0 0 0 0.156863 0 0 0 0.06 0"/>
<feBlend mode="normal" in2="BackgroundImageFix" result="effect1_dropShadow_1896_2066"/>
<feColorMatrix in="SourceAlpha" type="matrix" values="0 0 0 0 0 0 0 0 0 0 0 0 0 0 0 0 0 0 127 0" result="hardAlpha"/>
<feOffset dy="1"/>
<feGaussianBlur stdDeviation="1.5"/>
<feColorMatrix type="matrix" values="0 0 0 0 0.0627451 0 0 0 0 0.0941176 0 0 0 0 0.156863 0 0 0 0.1 0"/>
<feBlend mode="normal" in2="effect1_dropShadow_1896_2066" result="effect2_dropShadow_1896_2066"/>
<feBlend mode="normal" in="SourceGraphic" in2="effect2_dropShadow_1896_2066" result="shape"/>
</filter>
<filter id="filter19_dd_1896_2066" x="533" y="404" width="26" height="26" filterUnits="userSpaceOnUse" color-interpolation-filters="sRGB">
<feFlood flood-opacity="0" result="BackgroundImageFix"/>
<feColorMatrix in="SourceAlpha" type="matrix" values="0 0 0 0 0 0 0 0 0 0 0 0 0 0 0 0 0 0 127 0" result="hardAlpha"/>
<feOffset dy="1"/>
<feGaussianBlur stdDeviation="1"/>
<feColorMatrix type="matrix" values="0 0 0 0 0.0627451 0 0 0 0 0.0941176 0 0 0 0 0.156863 0 0 0 0.06 0"/>
<feBlend mode="normal" in2="BackgroundImageFix" result="effect1_dropShadow_1896_2066"/>
<feColorMatrix in="SourceAlpha" type="matrix" values="0 0 0 0 0 0 0 0 0 0 0 0 0 0 0 0 0 0 127 0" result="hardAlpha"/>
<feOffset dy="1"/>
<feGaussianBlur stdDeviation="1.5"/>
<feColorMatrix type="matrix" values="0 0 0 0 0.0627451 0 0 0 0 0.0941176 0 0 0 0 0.156863 0 0 0 0.1 0"/>
<feBlend mode="normal" in2="effect1_dropShadow_1896_2066" result="effect2_dropShadow_1896_2066"/>
<feBlend mode="normal" in="SourceGraphic" in2="effect2_dropShadow_1896_2066" result="shape"/>
</filter>
<clipPath id="clip0_1896_2066">
<path d="M610 336C610 329.373 615.373 324 622 324H642C648.627 324 654 329.373 654 336C654 342.627 648.627 348 642 348H622C615.373 348 610 342.627 610 336Z" fill="white"/>
</clipPath>
<clipPath id="clip1_1896_2066">
<path d="M610 376C610 369.373 615.373 364 622 364H642C648.627 364 654 369.373 654 376C654 382.627 648.627 388 642 388H622C615.373 388 610 382.627 610 376Z" fill="white"/>
</clipPath>
<clipPath id="clip2_1896_2066">
<path d="M450 334C450 328.477 454.477 324 460 324H476C481.523 324 486 328.477 486 334C486 339.523 481.523 344 476 344H460C454.477 344 450 339.523 450 334Z" fill="white"/>
</clipPath>
<clipPath id="clip3_1896_2066">
<path d="M450 374C450 368.477 454.477 364 460 364H476C481.523 364 486 368.477 486 374C486 379.523 481.523 384 476 384H460C454.477 384 450 379.523 450 374Z" fill="white"/>
</clipPath>
<clipPath id="clip4_1896_2066">
<path d="M610 296C610 289.373 615.373 284 622 284H642C648.627 284 654 289.373 654 296C654 302.627 648.627 308 642 308H622C615.373 308 610 302.627 610 296Z" fill="white"/>
</clipPath>
<clipPath id="clip5_1896_2066">
<path d="M450 294C450 288.477 454.477 284 460 284H476C481.523 284 486 288.477 486 294C486 299.523 481.523 304 476 304H460C454.477 304 450 299.523 450 294Z" fill="white"/>
</clipPath>
<clipPath id="clip6_1896_2066">
<path d="M610 456C610 449.373 615.373 444 622 444H642C648.627 444 654 449.373 654 456C654 462.627 648.627 468 642 468H622C615.373 468 610 462.627 610 456Z" fill="white"/>
</clipPath>
<clipPath id="clip7_1896_2066">
<path d="M450 454C450 448.477 454.477 444 460 444H476C481.523 444 486 448.477 486 454C486 459.523 481.523 464 476 464H460C454.477 464 450 459.523 450 454Z" fill="white"/>
</clipPath>
<clipPath id="clip8_1896_2066">
<path d="M534 336C534 329.373 539.373 324 546 324H566C572.627 324 578 329.373 578 336C578 342.627 572.627 348 566 348H546C539.373 348 534 342.627 534 336Z" fill="white"/>
</clipPath>
<clipPath id="clip9_1896_2066">
<path d="M534 376C534 369.373 539.373 364 546 364H566C572.627 364 578 369.373 578 376C578 382.627 572.627 388 566 388H546C539.373 388 534 382.627 534 376Z" fill="white"/>
</clipPath>
<clipPath id="clip10_1896_2066">
<path d="M390 334C390 328.477 394.477 324 400 324H416C421.523 324 426 328.477 426 334C426 339.523 421.523 344 416 344H400C394.477 344 390 339.523 390 334Z" fill="white"/>
</clipPath>
<clipPath id="clip11_1896_2066">
<path d="M390 374C390 368.477 394.477 364 400 364H416C421.523 364 426 368.477 426 374C426 379.523 421.523 384 416 384H400C394.477 384 390 379.523 390 374Z" fill="white"/>
</clipPath>
<clipPath id="clip12_1896_2066">
<path d="M534 296C534 289.373 539.373 284 546 284H566C572.627 284 578 289.373 578 296C578 302.627 572.627 308 566 308H546C539.373 308 534 302.627 534 296Z" fill="white"/>
</clipPath>
<clipPath id="clip13_1896_2066">
<path d="M390 294C390 288.477 394.477 284 400 284H416C421.523 284 426 288.477 426 294C426 299.523 421.523 304 416 304H400C394.477 304 390 299.523 390 294Z" fill="white"/>
</clipPath>
<clipPath id="clip14_1896_2066">
<path d="M534 456C534 449.373 539.373 444 546 444H566C572.627 444 578 449.373 578 456C578 462.627 572.627 468 566 468H546C539.373 468 534 462.627 534 456Z" fill="white"/>
</clipPath>
<clipPath id="clip15_1896_2066">
<path d="M390 454C390 448.477 394.477 444 400 444H416C421.523 444 426 448.477 426 454C426 459.523 421.523 464 416 464H400C394.477 464 390 459.523 390 454Z" fill="white"/>
</clipPath>
<clipPath id="clip16_1896_2066">
<path d="M450 414C450 408.477 454.477 404 460 404H476C481.523 404 486 408.477 486 414C486 419.523 481.523 424 476 424H460C454.477 424 450 419.523 450 414Z" fill="white"/>
</clipPath>
<clipPath id="clip17_1896_2066">
<path d="M390 414C390 408.477 394.477 404 400 404H416C421.523 404 426 408.477 426 414C426 419.523 421.523 424 416 424H400C394.477 424 390 419.523 390 414Z" fill="white"/>
</clipPath>
<clipPath id="clip18_1896_2066">
<path d="M610 416C610 409.373 615.373 404 622 404H642C648.627 404 654 409.373 654 416C654 422.627 648.627 428 642 428H622C615.373 428 610 422.627 610 416Z" fill="white"/>
</clipPath>
<clipPath id="clip19_1896_2066">
<path d="M534 416C534 409.373 539.373 404 546 404H566C572.627 404 578 409.373 578 416C578 422.627 572.627 428 566 428H546C539.373 428 534 422.627 534 416Z" fill="white"/>
</clipPath>
</defs>
</svg>
